<svg id="Layer_1" enable-background="new 0 0 91 91" height="300" viewBox="0 0 91 91" width="300" xmlns="http://www.w3.org/2000/svg" version="1.1" xmlns:xlink="http://www.w3.org/1999/xlink" xmlns:svgjs="http://svgjs.dev/svgjs"><g width="100%" height="100%" transform="matrix(1,0,0,1,0,0)"><g><path d="m10.9 43.2c-1.2 0-2.4 0-3.5.5-1.5.8-2.3 2.5-2.6 4.2-.5 3.1.4 6.3 1.3 9.3 1.9 6.1 4.1 12.3 7.9 17.4 1.1 1.5 11.8 13.7 31.5 13.7 17.4 0 23.9-6.2 27.8-9.5 9.8-8.3 11.1-17.2 12.8-27.5.4-2.5.6-5.6-1.4-7.2-2.1-1.8-5.3-.9-8-.1-4.9 1.4-10.1 1.5-15.2 2.2-22.5 3.3-36.2-.9-38.9-1.5-3.9-.9-7.8-1.4-11.7-1.5z" fill="#f3abc3" fill-opacity="1" data-original-color="#f3abc3ff" stroke="none" stroke-opacity="1"/><path d="m37.8 68.5 5.4 10.8c.5.2 3-.5 3.3-.9 4.6-5.9 7.3-11.6 10.5-18.4 1.1-2.3 1.4-5.2 2.8-7.3.9-1.4 1.9-2.6 2.5-4.2.2-.4.3-.9 0-1.2-.2-.2-.5-.2-.7-.2-1.5 0-3 .2-4.5.4-7.2.9-14.4.7-21.6-.5-1.8-.3-3.5-.7-5.3-1.1-1.7-.4-2.3-.9-2 1 .5 3.3 2.7 7.1 4.1 10.1 1.7 3.9 3.6 7.7 5.5 11.5z" fill="#99b3b8" fill-opacity="1" data-original-color="#99b3b8ff" stroke="none" stroke-opacity="1"/><path d="m33.6 4.9c-6.4-.2-13 2.9-16.4 8.3-.7 1-1.2 2.8-1.4 4-.2 1.1 0 2.2.3 3.3 1.4 6.4 4.7 12.1 8.1 17.7 1.1 1.8 2.1 3.6 3.2 5.4.5.9 1.1 1.7 1.8 2.4 3.8 3.6 29.9 1.1 31.7.2s2.5-1.9 3.9-3.3c4.5-4.4 7.5-9.9 10.6-15.5.7-1.3 1.4-2.7 1.7-4.2 1-4-.3-8.2-2.4-11.7-.8-1.4-1.8-2.8-3-3.9-2.9-2.6-7.1-3.6-11-3.5-3.4.1-6.6 1-9.8 1.9-1.2.4-2.5.7-3.8 1.2-3.1.9-8.3-2.1-13.5-2.3z" fill="#c6e9f6" fill-opacity="1" data-original-color="#c6e9f6ff" stroke="none" stroke-opacity="1"/><g fill="#3c6b76"><path d="m29.9 43.8c-4-8.2-14.5-18-10.4-28.1 2-4.9 7.6-7.4 12.6-8.2 6.1-1 11.6 3.2 15.2 7.8 2.7 3.4 7.6-1.4 4.8-4.8-4.8-5.9-12.1-10.7-19.9-9.8-6.7.8-14.1 4.1-17.6 10.1-3.6 6-2.6 13.1-.1 19.2 2.6 6.3 6.8 12.9 12.5 16.8 1.9 1.4 3.8-1.2 2.9-3z" fill="#09b7be" fill-opacity="1" data-original-color="#3c6b76ff" stroke="none" stroke-opacity="1"/><path d="m44.7 9.1c9.3-1.2 26.1-5.6 29.3 7.5 2.8 11.2-8.2 17-13 25.4-2.5 4.3 4.5 8.3 6.6 3.9 2.6-5.5 7.6-9.4 10.3-14.8 2.8-5.6 3.2-12.6.7-18.3-5.7-13-24-12.8-34.9-7.2-1.6.7-1 3.7 1 3.5z" fill="#09b7be" fill-opacity="1" data-original-color="#3c6b76ff" stroke="none" stroke-opacity="1"/><path d="m28.7 51.5c-2.6 1.7-2.7 5-.4 7 2.6 2.3 7.1 2.7 10.4 2.9 8.5.5 17.9-2.5 25.6-5.8 3.2-1.4.8-7-2.4-5.6-5.3 2.2-11.1 3.8-16.8 4.8-2.7.5-5.4.5-8.1.4-1.3-.1-3.3 0-4.5-.6-1.1-.6-1-.5-1.2-1.9-.2-1.3-1.7-1.8-2.6-1.2z" fill="#09b7be" fill-opacity="1" data-original-color="#3c6b76ff" stroke="none" stroke-opacity="1"/><path d="m33.5 64.3c-3 5.7 5.8 8.2 9.7 8 3.2-.1 6.4-.6 9.5-1.6 2.8-.8 7.2-1.9 8.5-4.7.5-1.2.2-3-1.3-3.3-2.1-.4-3.1.2-5 1.1-2.1.9-4.4 1.6-6.7 2.2-4 .9-9.5 2.2-12.3-1.7-.6-.8-1.9-1-2.4 0z" fill="#09b7be" fill-opacity="1" data-original-color="#3c6b76ff" stroke="none" stroke-opacity="1"/><path d="m86.2 39.7c-18 3.8-37.2 8.1-55.6 5.3-4.1-.6-8.1-1.9-12.2-2.7-2.6-.5-5.6-1.4-8.3-1.2-3.9.3-6.7 3.4-7.3 7.1-1.1 6.1 1.7 13.1 4.2 18.6 2.6 5.6 6.3 10.7 11.1 14.6 12.2 9.9 31.4 11.5 45.7 5.7 15.2-6.3 22.4-21.4 24.9-36.8.5-2.9-3.9-4.1-4.4-1.2-2 12.3-6.7 25.1-17.8 31.8-12.3 7.4-30.9 7-42.9-.8-4.9-3.1-8.7-7.6-11.4-12.7-2.6-4.9-5.3-11.2-5.3-16.7 0-1.7.3-3.8 1.9-4.8.8-.5 1.4-.6 1.9-.6 3.7 0 7.8 1.3 11.4 2.2 3.3.8 6.6 1.6 10.1 2 9 1.1 18.2.4 27.2-.8 9.4-1.3 18.7-3.2 27.6-6.6 1.2-.7.7-2.8-.8-2.4z" fill="#09b7be" fill-opacity="1" data-original-color="#3c6b76ff" stroke="none" stroke-opacity="1"/><path d="m50.2 67c-1.2.9-2 2.3-2.8 3.6-1.3 2-2.5 4.1-3.6 6.2-1.7 3.5 3.5 6.6 5.2 3.1 1-2.2 2.3-4.2 3.4-6.3.7-1.3 1.5-2.6 1.9-4.1.6-2.6-2.2-4-4.1-2.5z" fill="#09b7be" fill-opacity="1" data-original-color="#3c6b76ff" stroke="none" stroke-opacity="1"/><path d="m58.7 52.7c-1.7 1.3-2.9 3.5-4 5.2-.8 1.4-.2 3.2 1.3 3.8s3.1-.2 3.6-1.7c.6-2 1.5-4.3 1.3-6.4-.1-1.2-1.3-1.6-2.2-.9z" fill="#09b7be" fill-opacity="1" data-original-color="#3c6b76ff" stroke="none" stroke-opacity="1"/></g><path d="m37.5 13.8c-3.5-1.7-7.9.8-9.7 3.9-1.9 3.2-2.7 9.6 1.6 11.2.9.3 2.4-.2 2.8-1.2.6-1.4.5-2.2.2-3.7-.2-1.1-.1-2.3.5-3.4 1.1-2 3.3-2.6 5-4 .9-.6.6-2.3-.4-2.8z" fill="#ffffff" fill-opacity="1" data-original-color="#ffffffff" stroke="none" stroke-opacity="1"/><g><g><path d="m33.6 36.1c3.2 0 3.2-5 0-5s-3.2 5 0 5z" fill="#ffffff" fill-opacity="1" data-original-color="#ffffffff" stroke="none" stroke-opacity="1"/></g></g></g></g></svg>