<svg id="Capa_1" enable-background="new 0 0 508.946 508.946" height="300" viewBox="0 0 508.946 508.946" width="300" xmlns="http://www.w3.org/2000/svg" version="1.1" xmlns:xlink="http://www.w3.org/1999/xlink" xmlns:svgjs="http://svgjs.dev/svgjs"><g width="100%" height="100%" transform="matrix(1,0,0,1,0,0)"><g><g><path d="m457.865 319.623c-23.631-4.501-48.949-5.064-72.58 1.125 13.503-51.763 43.323-101.837 25.319-156.413-20.818-63.578-106.338-60.765-158.101-45.574-1.125.563-2.813 1.125-3.376 1.688-12.941-5.064-25.881-9.002-39.385-11.253 1.688-7.314 3.376-14.629 5.064-21.943 6.752-1.125 12.941-1.688 19.13-3.376 10.69-2.251 15.754-7.877 15.754-19.13 0-2.251 0-4.501 0-6.752 36.009 8.44 66.954 28.695 102.4 38.822 33.758 9.565 64.703-9.002 97.899-1.688 12.378 2.813 17.442-16.316 5.064-18.567-24.193-5.064-47.824 3.376-70.892 5.626.563-4.501.563-9.002.563-13.503.563-11.253-18.004-11.253-18.004 0 0 4.501 0 9.002.563 13.503-4.501-.563-9.002-1.125-13.503-2.251-18.004-5.064-33.758-15.191-51.763-20.818-17.442-5.626-34.321-7.314-52.325-7.314-.563-6.752-1.125-12.941-2.251-19.692 14.066 5.064 29.257 8.44 43.886 11.815 19.692 5.064 39.947 10.69 60.202 12.941 34.321 3.938 65.266-14.629 99.024-10.127 9.565 1.125 14.066-13.503 3.938-15.191-32.633-4.501-60.765 11.253-92.835 10.127-39.947-1.688-78.207-19.13-118.154-20.255-2.813-6.752-7.314-12.941-14.629-16.879-17.442-9.565-41.635-3.376-52.888 12.378s-8.44 42.198-1.688 60.202c-1.125 6.752 2.251 14.629 10.69 13.503 5.064-.563 10.127-1.125 15.191-1.688-1.688 6.189-2.813 12.378-4.501 18.567-16.316-1.125-32.633.563-48.387 6.189-43.323 16.316-75.956 61.89-72.018 108.589 1.688 25.881 14.629 47.824 27.569 69.767 5.626 9.565 10.127 19.13 14.066 28.694-22.505-.563-44.448 1.125-66.391 5.064-10.127 1.688-7.877 18.567 2.251 18.004 23.631-1.688 47.262-1.688 71.455-1.125 2.251 8.44 3.938 17.442 5.064 27.007 2.813 24.193 3.376 49.512 10.127 73.143 5.626 19.692 18.004 46.136 38.259 54.013 5.064 2.251 10.127 2.251 14.629 1.688.563 1.125 1.688 2.813 2.251 3.938 5.626 9.002 21.38 3.376 18.004-7.314-.563-2.813-1.688-5.064-2.813-7.877 20.818-24.193 30.382-78.769 35.446-97.336 3.376-12.378 6.752-24.756 10.127-37.134.563-1.688.563-5.064 1.688-6.752 1.125-1.125 1.125-2.251 1.125-2.251s.563 0 1.125.563c3.938 1.125 8.44 11.253 10.127 14.066 10.127 20.255 10.69 45.011 13.503 67.516 2.813 20.255 5.626 44.448 19.692 60.202 2.251 2.251 4.501 4.501 6.752 5.626-.563 3.376-1.125 6.189-1.688 9.565-1.125 6.752 7.314 10.69 11.253 4.501 2.251-3.376 3.938-6.752 6.189-10.69 9.565-1.125 18.567-7.877 25.319-16.879 31.508-40.51 23.068-95.086 31.508-142.347 24.193-2.251 46.699-2.813 70.892 2.813 12.378 2.254 17.442-16.875 5.064-19.126zm-270.066-286.382c3.376-12.378 20.255-19.13 31.508-13.503 13.503 6.752 10.127 27.569 11.815 39.947.563 5.064 1.125 3.938-1.688 5.626s-9.565 0-12.941 0c-9.565 0-19.13 1.125-29.257 1.688-.563-11.253-2.813-22.506.563-33.758zm-26.444 366.277c-1.688-18.567-2.813-37.697-6.189-56.264-3.938-23.068-13.503-42.76-25.319-63.015-11.815-20.818-26.444-42.198-25.319-67.516 1.125-24.756 14.629-48.949 34.884-63.015 15.754-11.253 33.196-15.191 51.763-15.191-3.376 17.442-6.189 35.446-8.44 52.888-2.813 22.505-5.626 45.574-7.877 68.642-2.813 25.319-7.314 52.888-6.752 78.769 0 1.125 0 1.688-.563 2.813-5.064 37.134-4.501 78.769 6.189 116.466-9.001-15.755-10.689-38.824-12.377-54.577zm149.099 48.386c-5.626-19.692-7.314-39.947-10.69-59.64-3.938-21.943-18.567-80.457-52.325-68.079-14.066 5.064-19.13 23.068-23.068 36.571-6.752 22.506-11.815 45.574-19.13 67.517-2.813 8.44-5.626 16.879-8.44 24.756v.563c-2.813-7.877-5.064-15.754-6.189-23.631-4.501-21.943-5.064-43.886-3.376-65.829 1.125-16.879 3.938-33.196 7.314-49.512 2.251-3.376 5.064-6.189 8.44-9.002 9.565-9.002 21.38-13.503 33.758-15.754 8.44-1.125 5.064-14.629-3.376-12.941-11.253 2.251-23.068 7.314-33.196 15.191 7.314-28.132 22.506-39.947 52.888-41.635 24.193-1.688 52.888-2.251 66.954 21.38 11.815 19.692 12.378 46.699 13.503 69.204-10.127-16.316-24.193-29.82-41.073-38.259-3.376-1.688-7.877 2.813-4.501 5.626 22.505 19.692 41.073 43.323 45.574 73.143-1.125 15.191-2.813 30.382-5.064 45.574-2.251 14.066-6.752 27.569-10.69 41.073-4.5-3.938-6.188-11.252-7.313-16.316zm36.008-3.375c-2.251 5.064-5.626 15.191-10.69 20.818 5.064-17.442 7.877-35.446 10.127-52.325 4.501-32.633 4.501-65.829.563-99.024-2.813-24.193-7.314-51.763-25.881-69.204-18.004-16.316-45.011-17.442-68.079-16.879s-44.448 5.064-59.64 24.193c-1.125 1.688-2.813 3.376-3.938 5.626 2.251-21.38 3.938-42.198 6.752-63.578 2.251-19.692 5.064-39.947 9.002-59.077 30.945 3.376 61.89 16.879 87.209 28.695 11.253 5.064 20.255-9.565 9.565-16.316-4.501-2.813-9.002-5.626-13.503-7.877 43.323-7.877 98.462-4.501 105.213 46.136 6.189 46.136-17.442 86.646-28.132 129.969-10.128 41.634-2.251 88.333-18.568 128.843z" fill="#1b898b" fill-opacity="1" data-original-color="#000000ff" stroke="none" stroke-opacity="1"/></g></g></g></svg>