<svg id="Layer_1" enable-background="new 0 0 91 91" height="300" viewBox="0 0 91 91" width="300" xmlns="http://www.w3.org/2000/svg" version="1.1" xmlns:xlink="http://www.w3.org/1999/xlink" xmlns:svgjs="http://svgjs.dev/svgjs"><g width="100%" height="100%" transform="matrix(1,0,0,1,0,0)"><g><path d="m48 23.8c-8.1-2.9-17.7-5-25-.3-6.3 4-8.8 12.9-5.7 19.7 1.6 3.4 4.4 6.2 6 9.6 4.2 8.7.5 20.6 7 27.8.2.2.3.3.5.4.9.5 1.9-.4 2.4-1.3 3.9-6 5.4-13.2 7.4-20.1s4.9-14 10.6-18.2c1.5-1.1 3.1-2 4.3-3.4 1.5-1.8 3.7-7.3 2.5-9.7-1.1-2.3-7.6-3.6-10-4.5z" fill="#ffffff" fill-opacity="1" data-original-color="#ffffffff" stroke="none" stroke-opacity="1"/><path d="m61 10.4c.8-.4 1.5-1 2.3-1.4 1.3-.5 2.8-.2 3.9.7.6.5 1 1.3 1.7 1.6.9.4 2 0 2.9-.4 2-.9 3.9-1.7 5.9-2.6.5-.2 1.1-.4 1.6-.3.8.2 1.1 1.1 1.2 1.9.3 1.4.6 3.2-.5 4.2-.4.4-.9.5-1.5.7-7.3 2.3-15.4 2-22.5-.9-3.7-1.5-6.8-2.8-10.8-2.9-1.9 0-4.2.6-2-1.3 5.2-4.2 12.5 3.4 17.8.7z" fill="#c6e9f6" fill-opacity="1" data-original-color="#c6e9f6ff" stroke="none" stroke-opacity="1"/><path d="m32 7.5c.3 1.4 1.9 2.4 3.4 2.3s2.8-1.1 3.5-2.4c.3-.5.5-1.1 1-1.6s1.1-.7 1.7-.5c1 2 1.5 4.3 1.3 6.6 0 .3-.1.6-.3.8s-.4.2-.7.3c-2.1.4-4.2.8-6.4 1.1-.6.1-1.3.2-1.9-.1-.9-.4-1.2-1.5-1.4-2.5-.2-1.2-.4-2.3-.6-3.5" fill="#9eddf9" fill-opacity="1" data-original-color="#9eddf9ff" stroke="none" stroke-opacity="1"/><path d="m45.2 90.7c36 0 37.1-29.4 35.1-32.8-.9-1.6-3.7-1.2-5.5-1.6-2.8-.6-6.3-1-8.1 1.3-.8 1-1.1 2.2-1.3 3.4-.7 3.6-1.2 7.2-1.4 10.9-.3 4.6-.7 10.1-4.9 12.1-.9.4-1.9.6-2.8.2-1.8-.7-2.2-3-2.4-4.9-.5-5.2-1.6-10.4-3.3-15.4-.5-1.4-1-2.9-2.1-4s-2.7-1.7-4.1-1.1c-2 6-4.1 12.1-6.1 18.1-.7 1.9-1.3 3.9-2.8 5.4s-3.8 2.3-5.6 1.3c-2-1.1-2.4-3.8-2.6-6.1-.3-3.7-.6-7.3-.9-11-.2-2.2-.5-4.7-2.2-6.1-.9-.8-2.1-1.4-3.3-1.3-4.5.5-12.8-3.2-11.2 3.5 1.6 6.3 1 28.1 35.5 28.1z" fill="#f3abc3" fill-opacity="1" data-original-color="#f3abc3ff" stroke="none" stroke-opacity="1"/><path d="m48.9 21.8c-.4.2-.7.4-1 .8-.4.7-.1 1.7.4 2.4 1.7 2.2 5.2 3.3 5.2 6.1 0 1.6-1.3 2.9-2.6 3.8-6.3 4.5-14.9 5.4-22 2.3-.5-.2-.9-.4-1.4-.4-1.5 0-2.3 1.9-2.1 3.4.4 4.3 4.7 6.9 7.2 10.3 2.9 4 3.2 9.7.8 14.1-1 1.8-2.4 3.4-3.4 5.2-1.5 2.7-2.1 5.8-1.6 8.8.4 2.6 2 5.4 4.6 5.4 2.5 0 4.2-2.6 5.2-4.9 2.5-5.6 4.3-11.5 5.5-17.5.2-1.2.6-2.5 1.7-2.9 1.9-.7 3.2 1.8 3.6 3.7.9 4.3 1.9 8.6 2.8 12.8.4 1.9.8 3.8 1.9 5.4 1 1.6 2.8 2.9 4.7 2.9 3.5-.1 5.3-4.3 5.7-7.7.6-4.7.3-9.5 1.2-14.1.7-3.8 2.2-7.4 3.4-11.1 1.4-4.5 2.4-9.2 2.8-14 .2-2.5.3-5-.6-7.4-2.6-7.5-15.4-10.9-22-7.4z" fill="#f5f2e8" fill-opacity="1" data-original-color="#f5f2e8ff" stroke="none" stroke-opacity="1"/><g><path d="m72.4 29.1c-3.7-11-18.6-10.6-27.5-7.9-.2.1-.4.2-.6.3-5.7-2.2-11.8-3.2-17.6-1.1-7.7 2.7-13.3 10.7-12.7 18.9.3 4.5 2.6 8.4 4.8 12.2 2.5 4.4 4.1 8.5 4.6 13.6.4 4.2.6 8.6 1.8 12.7 1 3.4 3.1 8 6.7 9.4 7.7 3 10.5-14.2 11.8-18.7.6-2.2 1.2-4.3 1.8-6.4.1-.3.1-.9.3-1.2.2-.2.2-.4.2-.4s.1 0 .2.1c.7.1 1.5 1.9 1.7 2.5 1.7 3.5 1.8 7.9 2.4 11.7.5 3.5 1 7.7 3.5 10.5 2.7 3.1 6.1 1.4 8.3-1.3 5.6-7.2 3.9-17 5.6-25.4 1.7-9.9 8-19.3 4.7-29.5zm-8 26.3c-1.8 7.3-.4 15.4-3.2 22.5-.5 1.2-1.5 3.8-2.7 4.4-2.5 1.1-3.1-2.2-3.6-3.7-1-3.4-1.2-6.9-1.9-10.4-.7-3.8-3.2-14-9.1-11.8-2.5.9-3.3 4.1-4 6.3-1.2 3.9-2.1 7.9-3.3 11.8-.5 1.5-.9 2.9-1.5 4.3-.6 1.5-1 3.9-2.7 2.5-2.8-2.5-3.2-7.8-3.5-11.2-.3-3.3-.5-6.5-1.1-9.8-.7-4-2.4-7.5-4.4-11-2.1-3.6-4.6-7.4-4.4-11.7s2.6-8.5 6.1-11c7.8-5.6 18.9-1.2 26.5 2.5 1.9.9 3.5-1.7 1.7-2.9-.8-.5-1.5-1-2.3-1.4 7.6-1.4 17.2-.8 18.3 8 1.1 8-3 15-4.9 22.6z" fill="#1b898b" fill-opacity="1" data-original-color="#3c6b76ff" stroke="none" stroke-opacity="1"/><path d="m56.4 88.6c2.9-4.6 4-10.8 4.7-16.1.8-5.7.8-11.5.1-17.2-.5-4.2-1.2-9-4.5-12-3.2-2.9-7.8-3-11.8-2.9-4.1.1-7.8.9-10.4 4.2-3 3.9-3.6 10.1-4.3 14.8-1.3 9.4-.4 20.5 4.6 28.8 1 1.6 3.7.6 3.1-1.3-1.3-4.1-3.1-7.8-3.9-12-.7-3.8-.9-7.7-.6-11.5.3-4.1 1.2-8.2 2.2-12.2 1.3-5.1 3.9-7.2 9.3-7.6 4.1-.4 9.1-.6 11.5 3.6 2.1 3.6 2.2 8.6 2.4 12.7.2 4.8-.1 9.7-1 14.5-.8 4.6-2.6 8.9-3.4 13.4-.2 1.1 1.3 1.8 2 .8z" fill="#f4879d" fill-opacity="1" data-original-color="#f4879dff" stroke="none" stroke-opacity="1"/><path d="m32.4 57.7c1.3-1.6 2.2-3.3 3.7-4.7 1.7-1.5 3.7-2.4 5.9-2.7 1.5-.2.9-2.5-.6-2.2-4.4.8-9.6 4.5-9.7 9.4 0 .2.5.5.7.2z" fill="#f4879d" fill-opacity="1" data-original-color="#f4879dff" stroke="none" stroke-opacity="1"/><path d="m50.8 53.6c3.9 3.4 7.1 7.5 7.9 12.8.2 1.7 2.9 1 2.5-.7-1.1-5.6-4.6-10.5-9.7-13.1-.5-.3-1.3.5-.7 1z" fill="#f4879d" fill-opacity="1" data-original-color="#f4879dff" stroke="none" stroke-opacity="1"/><g fill="#3c6b76"><path d="m10.1 60.5c4.5-.3 8.9-.3 13.4-.2 2.4.1 2.4-3.6 0-3.8-4.6-.3-9.3 0-13.8.8-1.8.4-1.4 3.3.4 3.2z" fill="#1b898b" fill-opacity="1" data-original-color="#3c6b76ff" stroke="none" stroke-opacity="1"/><path d="m65.8 59.1c4.8-.5 9.2-.7 13.9.3 2.2.5 3.1-2.9.9-3.3-5-1-10.3-1-15.1 1-.9.4-1 2.1.3 2z" fill="#1b898b" fill-opacity="1" data-original-color="#3c6b76ff" stroke="none" stroke-opacity="1"/><path d="m32 60.5c1.2-4.6 1.2-9.7 1.7-14.5.4-3.9.7-7.8 1.2-11.7.8-6.8 2-13.6 3.8-20.2.4-1.4-1.8-2.1-2.2-.6-1.7 6.4-2.9 13-3.8 19.6-.5 4-.9 7.9-1.3 11.9-.5 4.9-1.4 10.3-1.1 15.2 0 1.1 1.4 1.4 1.7.3z" fill="#1b898b" fill-opacity="1" data-original-color="#3c6b76ff" stroke="none" stroke-opacity="1"/><g><path d="m33.4 14c.2-2.5-.6-5.2.1-7.7.6-2.2 3.6-3.4 5.5-2.3 2.3 1.2 1.8 4.8 2 7 .1.9.2.7-.3 1s-1.6 0-2.2 0c-1.8 0-3.6.2-5.4.3-2.6.2-2.5 4.3 0 4 2.8-.3 5.7-.5 8.5-1.1 1.8-.4 2.8-1.4 2.7-3.4-.1-3.6 0-8.4-3.6-10.5-3-1.7-7.2-.6-9.2 2.2-2.1 2.9-1.3 8.1 0 11.1.4 1 1.9.3 1.9-.6z" fill="#1b898b" fill-opacity="1" data-original-color="#3c6b76ff" stroke="none" stroke-opacity="1"/><path d="m41.9 5.2c3 1.4 6.3 2.1 9.5 2.9 3.5.8 6.9 1.8 10.5 2.3 6 .7 11.4-2.6 17.3-1.8 1.7.2 2.4-2.4.7-2.6-5.7-.8-10.6 2-16.2 1.7-7.3-.3-14.2-3.6-21.6-3.6-.4.1-.7.9-.2 1.1z" fill="#1b898b" fill-opacity="1" data-original-color="#3c6b76ff" stroke="none" stroke-opacity="1"/><path d="m43.5 10.4c6.6 1.3 12.2 5.1 18.6 7 5.9 1.7 11.3-1.6 17-.3 2.1.5 3-2.8.9-3.3-6-1.2-11.6 2.3-17.6.5-3.1-.9-5.9-2.6-9-3.6-3.2-1-6.4-1.3-9.7-1.3-.6 0-.7.9-.2 1z" fill="#1b898b" fill-opacity="1" data-original-color="#3c6b76ff" stroke="none" stroke-opacity="1"/><path d="m67.4 16.5c.3-1.4.3-2.7.4-4.2.1-2-3.2-2-3.1 0 0 1.4.1 2.8.4 4.2.2 1.2 2 1.2 2.3 0z" fill="#1b898b" fill-opacity="1" data-original-color="#3c6b76ff" stroke="none" stroke-opacity="1"/></g></g></g></g></g></svg>