<?xml version="1.0" encoding="iso-8859-1"?>
<!-- Generator: Adobe Illustrator 19.0.0, SVG Export Plug-In . SVG Version: 6.00 Build 0)  -->
<svg version="1.1" id="Capa_1" xmlns="http://www.w3.org/2000/svg" xmlns:xlink="http://www.w3.org/1999/xlink" x="0px" y="0px"
	 viewBox="0 0 498.6 498.6" style="enable-background:new 0 0 498.6 498.6;" xml:space="preserve">
<path style="fill:#F0BC5E;" d="M370.6,459.316c-1.424,0-2.848-0.384-4.12-1.144l-10.312-6.184
	c-50.312-30.184-81.568-85.392-81.568-144.064V277.02c0-3.112,1.8-5.936,4.616-7.248l88-41.072c2.144-1,4.624-1,6.768,0l88,41.072
	c2.816,1.312,4.616,4.136,4.616,7.248v30.904c0,58.672-31.248,113.872-81.56,144.064l-10.32,6.184
	C373.44,458.932,372.024,459.316,370.6,459.316z"/>
<path d="M370.6,191.804l-106.816,49.848l-0.512-1.808c-3.904-13.664-16.56-23.208-30.776-23.208h-8.36
	c3.104-4.424,6.448-8.68,10.28-12.504c20.752-20.752,32.184-48.344,32.184-77.688v-9.832c0-37.48-30.496-67.976-67.976-67.976
	c-12.568,0-25.112,3.632-36.264,10.496c-5.848,3.608-11.296,5.504-15.76,5.504s-9.912-1.896-15.76-5.504
	c-11.152-6.864-23.696-10.496-36.264-10.496c-37.48,0-67.976,30.496-67.976,67.976v9.832c0,29.344,11.432,56.936,32.176,77.688
	c3.832,3.824,7.184,8.08,10.288,12.504h-8.36c-14.208,0-26.864,9.544-30.776,23.208L0,344.636h246.104
	c10.504,55.56,44.36,105.248,93.6,134.792l30.896,18.536l30.896-18.536C461.392,443.492,498.6,377.78,498.6,307.924V251.54
	L370.6,191.804z M42.6,126.444v-9.832c0-28.656,23.32-51.976,51.976-51.976c9.6,0,19.24,2.816,27.872,8.128
	c16.984,10.456,31.312,10.456,48.296,0c8.64-5.312,18.28-8.128,27.88-8.128c28.656,0,51.976,23.32,51.976,51.976v9.832
	c0,25.072-9.768,48.648-27.496,66.376c-12.824,12.824-22.344,28.768-27.552,46.128l-13.672,45.584
	c-0.736,2.456-2.952,4.104-5.52,4.104c-3.176,0-5.76-2.584-5.76-5.76v-82.24c0-13.232-10.768-24-24-24s-24,10.768-24,24v82.24
	c0,3.168-2.584,5.76-5.76,5.76c-2.568,0-4.792-1.648-5.52-4.104L97.648,238.94c-5.208-17.36-14.736-33.304-27.552-46.128
	C52.368,175.092,42.6,151.508,42.6,126.444z M21.2,328.636l24.12-84.4c1.952-6.824,8.272-11.6,15.384-11.6h17.592
	c1.568,3.544,2.912,7.184,4.024,10.896l13.672,45.6c2.784,9.28,11.168,15.504,20.848,15.504c12,0,21.76-9.76,21.76-21.76v-82.24
	c0-4.416,3.584-8,8-8s8,3.584,8,8v82.24c0,12,9.76,21.76,21.76,21.76c9.68,0,18.064-6.224,20.848-15.504l13.672-45.592
	c1.112-3.72,2.464-7.36,4.024-10.896h17.592c7.112,0,13.432,4.776,15.384,11.6l1.216,4.272l-6.496,3.024v56.384
	c0,6.96,0.472,13.856,1.192,20.712H21.2z M482.6,307.924c0,64.264-34.232,124.728-89.336,157.784l-22.664,13.6l-22.664-13.6
	c-55.104-33.056-89.336-93.52-89.336-157.784v-46.192l112-52.264l112,52.264V307.924z"/>
<polygon points="336.256,346.98 324.944,358.292 346.6,379.948 416.256,310.292 404.944,298.98 346.6,357.324 "/>
<path d="M190.784,97.916l-8.872-13.312c-23.952,15.968-46.68,15.96-70.616,0.008l-8.872,13.312
	c14.648,9.76,29.504,14.712,44.176,14.712S176.136,107.684,190.784,97.916z"/>
<rect x="282.6" y="0.636" width="16" height="16"/>
<rect x="266.6" y="16.636" width="16" height="16"/>
<rect x="282.6" y="32.636" width="16" height="16"/>
<rect x="298.6" y="16.636" width="16" height="16"/>
<rect x="18.6" y="360.636" width="16" height="16"/>
<rect x="2.6" y="376.636" width="16" height="16"/>
<rect x="18.6" y="392.636" width="16" height="16"/>
<rect x="34.6" y="376.636" width="16" height="16"/>
<g>
</g>
<g>
</g>
<g>
</g>
<g>
</g>
<g>
</g>
<g>
</g>
<g>
</g>
<g>
</g>
<g>
</g>
<g>
</g>
<g>
</g>
<g>
</g>
<g>
</g>
<g>
</g>
<g>
</g>
</svg>
