<svg id="Capa_1" enable-background="new 0 0 509.72 509.72" height="300" viewBox="0 0 509.72 509.72" width="300" xmlns="http://www.w3.org/2000/svg" version="1.1" xmlns:xlink="http://www.w3.org/1999/xlink" xmlns:svgjs="http://svgjs.dev/svgjs"><g width="100%" height="100%" transform="matrix(1,0,0,1,0,0)"><g><g><g><path d="m504.384 331.789c-16.316-31.508-58.514-25.881-86.646-18.567-.563 0-1.688.563-2.251.563-13.503-6.752-27.569-10.69-42.76-7.314-23.631 5.064-38.259 26.444-41.073 49.512-1.688 18.004 5.064 34.321 11.253 50.637-19.692 18.004-57.952 27.007-82.708 27.007-19.692 0-38.822-2.813-57.389-9.002-12.941-4.501-25.319-12.941-38.822-16.879 9.002-24.756 21.943-51.2 9.002-75.956-16.316-31.508-58.514-25.881-86.646-18.567-.563 0-1.688.563-2.251.563-13.503-6.752-27.569-10.69-42.76-7.314-23.631 5.064-38.259 26.444-41.073 49.512-2.813 30.382 18.004 55.138 21.38 84.958 2.813 21.38 3.376 57.389 28.695 66.391 24.756 9.002 33.758-31.508 38.259-47.262 1.688-5.626 3.376-11.815 5.064-17.442.563-1.125 1.125-2.813 1.688-4.501 1.688 5.064 3.938 10.127 4.501 15.191 1.125 7.877 1.688 15.754 3.376 23.631 3.938 20.255 20.255 39.947 38.822 19.13 16.879-19.13 13.503-45.011 16.879-68.642 11.253 9.565 27.007 15.754 39.947 20.255 21.38 6.752 45.574 10.127 68.079 9.002 23.631-1.125 61.89-10.127 82.708-28.694 1.125 4.501 2.251 8.44 2.813 12.941 2.813 21.38 3.376 57.389 28.695 66.391 24.756 9.002 33.758-31.508 38.259-47.262 1.688-5.626 3.376-11.815 5.064-17.442.563-1.125 1.125-2.813 1.688-4.501 1.688 5.064 3.938 10.127 4.501 15.191 1.125 7.877 1.688 15.754 3.376 23.631 3.938 20.255 20.255 39.947 38.822 19.13s12.941-50.637 18.567-75.956c6.752-27.57 28.132-59.078 12.941-88.335zm-364.027 118.716c-.563 10.128-2.251 20.818-7.314 29.257-3.938 6.752-5.064 6.752-7.877-.563-1.688-3.938-2.251-7.877-3.376-11.815-3.376-16.316-6.752-61.89-33.196-57.389-14.066 2.251-16.879 20.255-20.255 30.945-2.251 8.44-5.626 29.82-11.815 39.947-9.565-10.127-8.44-41.073-10.127-50.637-3.376-19.692-14.066-36.009-19.13-54.576-4.501-17.442 0-41.073 20.818-45.011 19.692-3.938 43.323 11.815 60.765 19.13 9.565 3.938 17.442-7.877 8.44-14.629-1.125-1.125-2.813-2.251-4.501-2.813 19.13-3.938 40.51-4.501 45.574 16.316 4.501 18.004-5.626 37.697-11.253 54.013-5.065 15.755-5.627 31.509-6.753 47.825zm338.145-47.824c-5.064 15.754-5.626 31.508-6.752 47.824-.563 10.128-2.251 20.818-7.314 29.257-3.938 6.752-5.064 6.752-7.877-.563-1.688-3.938-2.251-7.877-3.376-11.815-3.376-16.316-6.752-61.89-33.196-57.389-14.066 2.251-16.879 20.255-20.255 30.945-2.251 8.44-5.626 29.82-11.815 39.947-9.565-10.127-8.44-41.073-10.127-50.637-2.813-19.692-14.066-36.009-19.13-54.576-4.501-17.442 0-41.073 20.818-45.011 19.692-3.938 43.323 11.815 60.765 19.13 9.565 3.938 17.442-7.877 8.44-14.629-1.125-1.125-2.813-2.251-4.501-2.813 19.13-3.938 40.51-4.501 45.574 16.316 4.5 17.443-6.19 37.135-11.254 54.014z" fill="#1b898b" fill-opacity="1" data-original-color="#000000ff" stroke="none" stroke-opacity="1"/><path d="m128.542 77.477c5.626 6.752 11.815 12.378 18.567 17.442-2.251 2.251-3.938 4.501-5.626 6.189-13.503 16.879-17.442 38.822-18.004 60.202-.563 30.945 14.066 68.642 45.011 78.207 5.626 18.567 15.754 35.446 18.004 55.138 2.813 22.505 3.376 58.514 29.82 67.516 25.881 9.002 35.446-31.508 40.51-48.387 1.688-5.626 2.813-10.69 4.501-16.316 1.688 4.501 3.376 9.565 3.376 11.815 1.125 7.314 1.688 14.629 2.813 21.943 4.501 20.818 21.943 41.073 40.51 19.692 18.567-20.818 12.941-50.637 18.567-75.956 2.251-9.002 5.626-18.567 9.002-28.132 2.251-.563 3.938-1.688 5.626-3.376 36.009-37.697 54.013-111.965 19.692-155.288 15.191-9.565 28.132-22.505 36.009-39.385 5.626-11.253 14.066-36.009 1.125-45.011-1.125-.563-2.251-.563-3.376 0-10.127 5.626-10.69 24.756-15.191 34.884-6.752 14.629-19.13 25.319-33.196 33.196-.563.563-1.125.563-1.688 1.125-2.251-1.688-4.501-3.376-6.752-4.501-7.877-4.501-16.316-7.877-25.319-10.69 22.506-9.565 41.635-25.319 43.323-48.949.563-6.189-8.44-9.565-12.378-5.064-10.127 10.69-16.879 22.505-29.82 30.945-15.754 9.565-33.758 11.815-51.763 13.503-9.565-1.125-19.13-2.813-28.132-4.501-18.004-3.376-50.637-8.44-52.325-28.695-1.688-18.567-30.945-18.567-29.257 0 5.064 54.576 68.079 51.2 109.152 56.264 19.692 2.251 43.323 2.251 61.327 10.69 17.442 8.44 26.444 28.132 31.508 45.574 5.064 18.004 3.938 37.697-2.251 56.264-.563-9.565-1.125-19.13-4.501-28.132-10.69-28.695-42.198-42.76-69.767-50.637-33.196-9.002-71.455-2.251-102.4-19.692-27.569-15.754-46.136-42.198-53.451-72.58-2.813-10.127-20.818-8.44-19.13 2.813 2.253 24.193 9.567 42.76 25.884 61.89zm175.543 226.18c-.563 9.565-2.251 20.255-7.314 28.695-3.376 5.626-1.688 7.314-5.064-.563-1.688-3.376-2.251-7.877-3.376-11.815-3.376-17.442-7.314-62.453-34.884-57.952-14.629 2.251-18.004 20.255-21.38 31.508-2.251 7.877-5.064 26.444-10.69 36.571-7.877-11.815-6.752-41.635-8.44-50.075-3.376-19.13-15.191-35.446-19.13-54.576-3.938-18.567 3.938-40.51 25.881-39.947 18.567 0 38.259 12.941 55.138 19.692 10.69 4.501 15.191-11.815 7.314-17.442-.563-.563-1.125-.563-1.125-1.125 16.879-3.376 35.446-2.813 40.51 15.191 5.064 17.442-6.189 37.134-11.253 52.888-4.499 16.88-4.499 32.633-6.187 48.95zm-5.064-165.978c15.191 7.877 25.319 17.442 28.694 33.758-20.255-15.754-52.888-11.815-75.956-5.064-.563 0-1.125.563-1.688.563-13.503-6.752-27.569-10.69-42.76-7.314-9.565 2.251-17.442 6.752-24.193 12.941 1.125-6.752 2.813-12.941 5.064-18.567 7.877-16.879 29.257-28.132 47.824-33.196 21.38 2.813 42.76 6.751 63.015 16.879zm-104.651-20.818c-11.815 7.314-21.38 17.442-27.007 29.257-7.314 16.879-9.002 37.697-6.189 57.389-9.002-12.941-11.815-32.07-11.253-47.262.563-15.191 3.376-27.569 11.253-40.51 1.688-2.813 3.938-5.626 5.626-7.877 8.441 3.94 17.443 6.753 27.57 9.003z" fill="#1b898b" fill-opacity="1" data-original-color="#000000ff" stroke="none" stroke-opacity="1"/><path d="m253.447 94.918c3.938 0 7.314-2.251 9.565-5.626 1.125-2.251 1.688-4.501 1.125-6.752-.563-2.813-1.125-4.501-2.813-6.189 0 0 0 0 0-.563-1.688-1.688-5.064-3.376-7.314-3.376-2.813 0-5.626 1.125-7.314 3.376v.563c-1.125 1.688-2.251 2.813-2.813 5.064-.563 2.251-.563 5.064.563 7.314.562 3.376 4.5 6.189 9.001 6.189z" fill="#1b898b" fill-opacity="1" data-original-color="#000000ff" stroke="none" stroke-opacity="1"/></g></g></g></g></svg>