<svg id="Layer_1" enable-background="new 0 0 91 91" height="512" viewBox="0 0 91 91" width="512" xmlns="http://www.w3.org/2000/svg"><g><path d="m56.6 11.7c3.7.8 7.5-.4 11.2-1.3.8-.2 1.8-.3 2.3.4.4.5.2 1.2.3 1.9.3 1 1.4 1.5 2.4 1.4s1.9-.7 2.7-1.3c2-1.4 4-2.8 6-4.1.4 2.3.6 4.8.4 7.1-5.4 1.9-11.1 3.9-16.8 2.9-3.7-.7-7-2.5-10.5-4s-7.3-2.5-10.9-1.4c-2.7-10 8.8-2.5 12.9-1.6z" fill="#c6e9f6"/><path d="m32.3 10.6c.8-.2 1.7.1 2.6.3 2 .5 4.7-.3 5.1-2.3.1-.7 0-1.4.2-2.1.1-.7.7-1.4 1.4-1.3s1 .9 1.1 1.6c.4 1.6.8 3.2 1.2 4.9.2.9.4 1.9-.2 2.6-.5.6-1.4.7-2.1.8-2 .2-3.9.4-5.9.6-.5.1-1.1.1-1.6-.1-1.6-.5-1.9-2.5-2-4.1" fill="#99b3b8"/><path d="m18.6 31.5c-.5.7-1 1.5-1 2.3 0 1.8 2.1 2.8 3.8 3.4 2.8.9 5.5 1.9 8.3 2.8 4.7 1.6 9.5 3.2 14.5 3.9 5 .6 10.2.2 14.7-2 2.2-1.1 4.2-2.7 5.3-4.8 1.2-2.1 1.3-4.9 0-7-1.8-2.8-5.5-3.6-8.8-3.6-2.8 0-5.5.3-8.2.9-1 .2-1.9.5-2.9.5-1.4 0-2.6-.7-3.9-1.2-7.3-2.7-16.7-1.6-21.8 4.8z" fill="#f5f2e8"/><path d="m26.7 45.3c1.3-1 2.4-2.5 4.1-2.6 4.3-.4 5.3 8.1 9.6 7.7 1-.1 1.9-.7 2.7-1.3 2.7-2 5.3-3.9 8-5.9 1.3 2.4 2.6 4.9 3.9 7.3.5.9 1 1.8 1.8 2.3s1.9.6 2.8.9c2.1.9 3.1 3.8 2 5.8 2.2 0 2.9 3 2.9 5.3-.1 6.6-.7 13.6-4.5 19-1.5 2.2-4.3 4.1-6.6 2.8-2-1.1-2.2-3.7-2.5-5.9-.4-4.2-1.4-8.4-3.2-12.3-.6-1.3-1.3-2.7-2.5-3.5s-3-.9-4 .2c-.6.7-.8 1.6-1 2.5-1.2 5.6-3.5 10.9-6.6 15.7-1.2 1.8-3.4 3.6-5.2 2.4-.7-.5-1-1.2-1.3-2-1.5-4.2-1.5-8.7-2.6-12.9-1.1-4.5-3.1-8.6-5.2-12.7-1.5-3-5.4-8.3-4.6-11.7 4.2.6 8.1 2.1 12-1.1z" fill="#c6e9f6"/><path d="m58.7 38.5c-1 1.3-2.7 1.9-4.4 2.2-6.1 1.2-12.6.1-17.9-3.2-2.8-1.7-5.4-4.1-8.5-5.1-5.6-1.8-12.3 1.4-14.4 6.9-.9 2.4-.8 5.3 1 7.1 1.9 1.7 4.8 1.6 7.2.6s4.4-2.6 6.7-3.6c1.2-.5 2.6-.9 3.8-.3 2.2 1.1 2 4.4 3.7 6.2 1.9 2.1 5.4 1.3 7.7-.2s4.3-3.8 7-4.5c3 1.1 2.3 5.7 4.4 8 1.2 1.2 3 1.6 4 3 .9 1.2.9 2.9 1.3 4.4s1.9 3 3.3 2.3c.6-.3 1-.9 1.3-1.5 1.9-3.5 3.1-7.3 4.2-11.1 1-3.5 1.8-7.1 1.7-10.7-.2-3.6-1.4-7.4-4.2-9.8-2.1-1.8-6.7-3.9-8.2-.7s2.8 6.7.3 10z" fill="#f5dabc"/><g><g fill="#3c6b76"><path d="m51.6 31.7c-7.6-4.9-17-8.9-26.2-6.6-7.6 1.9-13.6 8.9-14.7 16.6-1.4 9.6 6.1 16 8.6 24.6 2.2 7.5 1.1 15.5 6.7 21.7 2.4 2.7 6.5 3.3 9 .2 3-3.7 4.5-9.2 6-13.6.8-2.2 1.6-4.5 2.2-6.8.4-1.4.1-1.9 1.1-1.2s1.6 2.2 2 3.3c1.5 3.8 1.3 8.1 2.1 12.1.7 3.6 2 7.5 6.1 8 3.8.4 6.4-3.2 8-6.2 3.9-7.3 2.3-16.1 4.9-23.8 2.8-8.4 7.8-18 3.4-26.9-4.9-10-19.3-9.2-28.1-6.6-3.1.9-1.7 5.8 1.3 4.8 4.2-1.4 8.5-2.4 13-1.9 4.4.5 9.5 2.2 11 6.8 2.3 7.3-1 14.5-3.4 21.2-2.4 6.8-1.7 13.8-3.4 20.7-.6 2.4-4.4 11.1-7.5 7.1-1.9-2.5-2-7.1-2.4-10.1-.6-4.1-2.7-14-8.8-13-3 .5-4 4.2-4.8 6.6-1.4 4.3-2.7 8.6-4.6 12.7-.5 1.1-1.5 4-2.8 3.9-1.1-.1-2.8-3.8-3.2-4.8-1.2-3-1.3-6.3-1.8-9.5-.4-3.2-1.1-6.4-2.4-9.4-1.4-3.4-3.5-6.5-5.2-9.7-3.9-7.6-1.9-16.6 5.9-20.8 8.1-4.3 18.8.1 26.3 3.7 2 .7 3.6-2 1.7-3.1z"/><g><path d="m33.9 15.5c.2-2.7-.6-5.5.1-8.2.8-2.9 4.1-3.8 6.3-1.7.9.9.9 1.9 1.1 3.2.1 1 .8 3.7.5 4.5-.1.2-3.4.2-4 .3-1.7.2-3.3.4-5 .5-2.9.2-2.8 4.9 0 4.5s5.5-1 8.2-1.5c1.8-.4 3.7-.6 4.2-2.7.3-1.3-.1-2.8-.2-4.1-.1-1.4-.1-2.9-.4-4.2-.3-1.5-1.4-2.9-2.7-3.8-3.1-2.3-7.6-1.8-9.9 1.3-2.5 3.2-1.9 9-.4 12.5.5 1.2 2.1.4 2.2-.6z"/><path d="m42.2 6.3c3.2 1.5 6.7 2.2 10.1 2.9 3.7.9 7.5 1.9 11.3 2.4 5.9.7 11-2.6 16.8-1.8 1.7.2 2.4-2.4.7-2.6-2.6-.4-5-.3-7.5.4-2.9.8-5.5 1.7-8.5 1.5-7.6-.5-14.9-3.8-22.6-3.8-.5-.1-.8.8-.3 1z"/><path d="m43.5 11.7c3.3.6 6.7 1.5 9.8 2.7 3.5 1.3 6.6 3.3 10.2 4.4 2.7.8 5.5 1.1 8.2.5 3.1-.6 5.5-1.5 8.7-.7 2.1.5 3-2.8.9-3.3-6.1-1.2-11.4 2.3-17.5.4-3.3-1.1-6.4-3-9.7-3.9-3.4-.9-6.9-1.2-10.4-1.1-.7.1-.8.9-.2 1z"/><path d="m69.5 18.2c.3-1.5.3-2.9.4-4.4.1-2-3.2-2-3.2 0 0 1.5.1 2.9.4 4.4.2 1.2 2.1 1.2 2.4 0z"/></g><path d="m13.2 40.7c-1.2 2.9.3 5.9 2.9 7.5 3.2 2 7.5 1 10.4-1 .7-.4 1.2-.9 1.9-1.4.6-.6 1.2-1.1 1.9-1.5 1.1-.9 1.8-.8 2.3.3 1.1 1.2.8 3.3 1.7 4.7 1.6 2.4 4.8 3.8 7.7 3.1 1.6-.4 2.8-1.4 3.8-2.7 1.1-1.4 2-3.8 3.8-4.4 3.4-1.1 2.1 2.8 1.9 4.4-.1 1.3 0 2.7.8 3.8.9 1.1 2.1 1.6 3.5 1.7 1.3.2 2-.2 3 .8 1.2 1.1.5 1.7.5 3.2 0 2.6 1.8 5.2 4.6 4.5 2-.5 1.2-3.6-.9-3.1-.7.2-.3-4.6-.4-5-.3-1.1-.8-2.1-1.8-2.8-1-.8-2.3-.8-3.5-.8-1.3-.1-2.2.2-2.6-1.6-.2-.7.2-1.8.3-2.5.3-2.2.1-4.6-2.2-5.8-2.2-1.1-5-.1-6.7 1.6-2.2 2.2-4.1 7.7-8.1 4.9-2.8-2-.6-6.2-4.3-7.8-3-1.3-5.6.8-7.8 2.7-3.8 3.2-10.9 4.1-11.4-2.5.1-1-1-1.1-1.3-.3z"/><path d="m58.2 36.6c-.1 0-.1-.1-.2-.1-.6-.5-1.3-.5-1.9 0-.1 0-.1.1-.2.1-.5.4-.6 1.2-.3 1.8.2.6.8 1 1.5 1 .6 0 1.1-.3 1.4-.8.3-.6.3-1.5-.3-2z"/><path d="m62.3 41.6c.1-.1.2-.2.2-.3.2-.2.2-.5 0-.7-.1-.1-.2-.2-.2-.3-.5-.6-1.5-.1-1.5.6-.1.8.9 1.3 1.5.7z"/><path d="m64 35.3c.5-.3.8-.6 1-1.1.1-.3.2-.6.2-1 0-.3-.2-.7-.4-.9s-.4-.3-.7-.4c-.4-.1-.8 0-1.2.2-.5.2-.8.6-1.1 1-.3.6-.3 1.5.3 2 .4.5 1.2.6 1.9.2z"/><path d="m29.6 34.6c0-.1-.1-.3-.1-.4-.2-1.1-2-1.1-2.2 0 0 .1-.1.3-.1.4-.2.8.4 1.6 1.2 1.6s1.3-.8 1.2-1.6z"/><path d="m34.3 33.7c-.1 0-.3-.1-.4-.1-.9-.2-1.8.4-1.8 1.4 0 .9.9 1.6 1.8 1.4.1 0 .3-.1.4-.1 1.2-.4 1.2-2.4 0-2.6z"/><path d="m41.7 37.8c-.1 0-.2.1-.4.1-1 .3-1 1.7 0 2 .1 0 .2.1.4.1.7.2 1.5-.4 1.5-1.1-.1-.7-.8-1.3-1.5-1.1z"/></g><g><g><path d="m40 35c.8 0 .8-1.2 0-1.2s-.8 1.2 0 1.2z" fill="#3c6b76"/></g></g><g><g><path d="m22.3 43.6c2.1 0 2.1-3.2 0-3.2-2 0-2 3.2 0 3.2z" fill="#3c6b76"/></g></g><path d="m57.2 80.3c1.2 1.2 2.4 2.6 3.9 3.5.8.5 1.8-.5 1.3-1.3-.9-1.5-2.4-2.6-3.6-3.8-1.1-.9-2.6.6-1.6 1.6z" fill="#3c6b76"/><path d="m57.6 73.4c.7.8 1.5 1.6 2.3 2.4.8.7 1.4 1.6 2.4 2.1.4.2 1-.1.8-.6-.4-1.1-1.2-1.7-2-2.4-.9-.8-1.7-1.6-2.6-2.4-.6-.7-1.5.3-.9.9z" fill="#3c6b76"/><path d="m58.2 67.8c1.5 1.3 3.1 2.6 4.6 3.9 1.1.9 2.7-.6 1.6-1.6-1.5-1.4-3-2.8-4.4-4.1-1.2-1.1-3 .7-1.8 1.8z" fill="#3c6b76"/><path d="m33.4 24c4.2-.4 8.4-.8 12.5-1.7 1.7-.4 1.3-3.2-.4-3-4.2.4-8.4 1.3-12.5 2.2-1.4.3-1.1 2.7.4 2.5z" fill="#3c6b76"/><path d="m37.7 14.8c-.1 1.2-.2 2.4-.3 3.6-.1 1-.3 2 .5 2.8.3.4.7.7 1.2.6 1.6-.2 1.4-2.5 1.1-3.5-.3-1.2-.5-2.5-.8-3.7-.3-1.1-1.6-.7-1.7.2z" fill="#3c6b76"/><path d="m19 17.9c.8.3 1.6.5 2.3.8.8.3 1.4.6 2.2.3.5-.2.7-.7.5-1.1-.4-.8-1.2-1-2-1.3s-1.6-.7-2.4-1c-1.4-.6-2.1 1.8-.6 2.3z" fill="#3c6b76"/><path d="m20.6 7c1.2 1.3 2.2 2.8 3.1 4.4.7 1.3 1 3.2 2.5 3.9.5.2 1.2.2 1.4-.4.8-1.7-.4-3.5-1.4-5-1.1-1.7-2.4-3.3-3.9-4.7-1.1-1.1-2.8.6-1.7 1.8z" fill="#3c6b76"/></g></g></svg>