<svg id="Layer_1" enable-background="new 0 0 91 91" height="512" viewBox="0 0 91 91" width="512" xmlns="http://www.w3.org/2000/svg"><g><path d="m52.9 11.4c3 .6 6.2 1.3 8.4 3.5 2.1 2.1 3.5 5.1 4 8 .7 4.3.3 9.1-2.3 12.6-.2.3-.6.6-.9.5-.2-.1-.4-.3-.5-.6-1.6-3.2-1.1-7.5-3.6-10-1.1-1-2.5-2.2-3.9-2.7-5.3-1.9-10.7-2.8-16.2-4.1-2.7-.6-5.8-1.3-7.3-3.7-.7-1-.9-2.3-1-3.6 0-.8.1-1.6.5-2.2 1.8-2.4 6.7-.3 9.1.1 4.6.6 9.1 1.3 13.7 2.2z" fill="#fff"/><path d="m34.9 11.1c3.2 2 6.9 3 10.6 3.6 4.1.6 8.5.9 11.8 3.5 2.5 1.9 4 5 4.6 8s.5 6.3.3 9.4c-.7-3.4-1.4-7-3.7-9.6-1-1.1-2.3-2-3.6-2.7-5.6-3-12.3-3.4-18.6-3.9-1.7-.1-3.5-.3-5-1-2.3-1-3.9-3.1-5.3-5.2-1-1.4-2.1-2.9-3.1-4.3-.6-.9-1.3-1.9-1.3-3 0-1.4 1.1-2.6 2.4-3.2 2.5-1.2 4-.7 5.2 1.8 1.2 2.8 3.1 5 5.7 6.6z" fill="#c6e9f6"/><path d="m26.6 20.4c-1.5 3.3-2.2 7-1.5 10.6s2.9 6.9 6.2 8.4c1.8-3.2-1-7.3 0-10.8.3-.9.8-1.7 1.4-2.5 1.6-2.2 3.7-4 6.1-5.3.4-.2.8-.5.9-.9.1-.5-.3-1-.8-1.2s-1-.1-1.5-.1c-2.5.1-4.5-.6-6.8-1.4-2.2-.6-3.1 1.2-4 3.2z" fill="#99b3b8"/><path d="m53 9.5c-.6.1-1.4.6-1.1 1.1.1.2.2.2.4.3 1.7.8 3.6 1.2 5.1 2.4.9.7 1.5 1.8 2.6 2.2 1.8.7 3.6-.6 5.1-1.9s3.1-2.7 4.3-4.4c.6-.9 1.1-1.9 1.2-2.9s-.2-2.2-1-2.9c-.5-.4-1.1-.6-1.7-.8-1.2-.4-4.2-1.3-5.4-.6-.9.5-1.4 2.3-2.1 3.1-2 2.2-4.6 3.8-7.4 4.4z" fill="#99b3b8"/><path d="m48.5 90.7c10.1 0 30.7-1.7 32.3-4.1.3-.5 0-1.2-.2-1.7-.8-2.8-1.6-5.7-2.4-8.5-.4-1.3-1.1-3-2.5-3-.9 0-1.6.7-2.1 1.4-2.1 2.7-3.7 5.8-4.5 9.1-.3 1-1.1 2.3-2 1.7-.2-.2-.3-.4-.4-.7-.9-2.1-1.4-4.4-1.4-6.8-.1-2.6 0-5.9-2.3-7-1.7-.8-3.7.1-5.4.9-9.2 4.1-20.4 3.5-29.1-1.4-.5-.3-1.1-.5-1.5-.2-.3.3-.3.9-.2 1.3.7 3.7-.4 7.4-1.4 11-.2.8-.5 1.6-1.1 2.1s-1.7.5-2.1-.1c-.2-.3-.2-.7-.2-1-.1-2.9 0-5.9-1.1-8.5-.4-1-1.2-2.1-2.3-1.9-.8.2-1.3 1-1.6 1.7-1.2 2.4-2.5 4.8-3.8 7.1-1.2 2-3.8 4.2-1.3 5.5 2.1 1.1 13.2 3.1 36.6 3.1z" fill="#f3abc3"/><path d="m5.7 72.6c.4 1.9.6 3.9 1.1 5.8.4 1.7 1.1 3.3 1.9 4.8.4.7.9 1.4 1.6 1.6 1.2.4 2.4-.5 3.2-1.5 2.8-3.8 2-9.1 3.8-13.4 1.4-3.3 6.1-6 6.5-9.5.1-.9 0-1.9-.5-2.6-.6-.8-3.4-1.3-4.4-1.7-2.8-1.1-5.7-2.1-8.6-2-11.2.6-6 12-4.6 18.5z" fill="#fff"/><path d="m17 56c2.4.4 7.2 4.9 2.3 6-2.3.5-4-1-6.1-.8-4.4.4-2.1 5.4-1.4 7.8 1.3 4.5-1 9.5-.9 14.1 0 2.5 1.1 2.7 2.4.5 1.7-2.9.7-7 2.4-9.6 2.5-3.8 3.6 3.2 3.8 4.8.2 2 2 8.9 4.7 5.5 1.6-2 1.6-5.9 2-8.3.5-2.6 1.4-5.1 2.5-7.6 1.5-3.4 4.3-10.6.1-13.1-2.8-1.6-8.6-1.5-11.2.7.5-.1.7-.2-.6 0z" fill="#f5f2e8"/><path d="m62.9 72.1c.4 1.9.6 3.9 1.1 5.8.4 1.7 1.1 3.3 1.9 4.8.4.7.9 1.4 1.6 1.6 1.2.4 2.4-.5 3.2-1.5 2.8-3.8 2-9.1 3.8-13.4 1.4-3.3 6.1-6 6.5-9.5.1-.9 0-1.9-.5-2.6-.6-.8-3.4-1.3-4.4-1.7-2.8-1.1-5.7-2.1-8.6-2-11.1.6-6 12.1-4.6 18.5z" fill="#fff"/><path d="m74.3 55.5c2.4.4 7.2 4.9 2.3 6-2.3.5-4-1-6.1-.8-4.4.4-2.1 5.4-1.4 7.8 1.3 4.5-1 9.5-.9 14.1 0 2.5 1.1 2.7 2.4.5 1.7-2.9.7-7 2.4-9.6 2.5-3.8 3.6 3.2 3.8 4.8.2 2 2 8.9 4.7 5.5 1.6-2 1.6-5.9 2-8.3.5-2.6 1.4-5.1 2.5-7.6 1.5-3.4 4.3-10.6.1-13.1-2.8-1.6-8.6-1.5-11.2.7.4-.1.6-.2-.6 0z" fill="#f5f2e8"/><path d="m34.3 48.7c.4 1.9.6 3.9 1.1 5.8.4 1.7 1.1 3.3 1.9 4.8.4.7.9 1.4 1.6 1.6 1.2.4 2.4-.5 3.2-1.5 2.8-3.8 2-9.1 3.8-13.4 1.4-3.3 6.1-6 6.5-9.5.1-.9 0-1.9-.5-2.6-.6-.8-3.4-1.3-4.4-1.7-2.8-1.1-5.7-2.1-8.6-2-11.1.5-6 12-4.6 18.5z" fill="#fff"/><path d="m45.6 32.1c2.4.4 7.2 4.9 2.3 6-2.3.5-4-1-6.1-.8-4.4.4-2.1 5.4-1.4 7.8 1.3 4.5-1 9.5-.9 14.1 0 2.5 1.1 2.7 2.4.5 1.7-2.9.7-7 2.4-9.6 2.5-3.8 3.6 3.2 3.8 4.8.2 2 2 8.9 4.7 5.5 1.6-2 1.6-5.9 2-8.3.5-2.6 1.4-5.1 2.5-7.6 1.5-3.4 4.3-10.6.1-13.1-2.8-1.6-8.6-1.5-11.2.7.5-.1.7-.3-.6 0z" fill="#f5dabc"/><g fill="#3c6b76"><g><path d="m70.5.9c-.2-.1-.4-.1-.6 0-1.8 1-1.8 4.4-2.7 6.1-1.2 2.6-3.3 4.4-5.8 5.8-.1.1-.2.1-.3.2-.4-.3-.8-.5-1.2-.8-1.4-.8-2.9-1.4-4.4-1.9 3.9-1.6 7.3-4.4 7.6-8.5.1-1.1-1.4-1.7-2.2-.9-1.8 1.9-2.9 4-5.2 5.4-2.7 1.7-5.7 2-8.9 2.3-1.7-.2-3.3-.5-4.9-.8-3.1-.6-8.8-1.5-9.1-5-.3-3.2-5.4-3.3-5.1 0 .9 9.5 11.8 8.9 19 9.8 3.4.4 7.5.4 10.6 1.9 3 1.5 4.6 4.9 5.5 7.9.9 3.1.6 6.6-.4 9.8-.1-1.7-.2-3.3-.8-4.9-1.9-5-7.3-7.4-12.2-8.8-5.9-1.7-12.6-.5-17.9-3.5-4.8-2.7-8-7.3-9.3-12.6-.5-1.8-3.6-1.5-3.4.5.6 4.3 1.8 7.5 4.7 10.8 1 1.1 2.1 2.2 3.2 3.1-.4.4-.7.8-1 1.1-2.4 3-3.1 6.8-3.1 10.5-.1 5.3 2.5 12 7.9 13.6 1 3.2 2.7 6.2 3.1 9.6.5 3.9.6 10.2 5.2 11.8s6.2-5.4 7-8.4c.3-.9.5-1.9.8-2.8.3.8.6 1.7.6 2 .2 1.3.3 2.5.5 3.8.7 3.6 3.8 7.2 7.1 3.4 3.2-3.7 2.2-8.9 3.2-13.3.4-1.6 1-3.2 1.6-4.9.3-.1.7-.3 1-.6 6.3-6.6 9.4-19.4 3.4-27 2.7-1.7 4.9-3.9 6.3-6.8 1-2 2.5-6.4.2-7.9zm-17.4 23.3c2.6 1.4 4.4 3 4.9 5.9-3.5-2.8-9.2-2-13.2-.9-.1 0-.2.1-.3.1-2.3-1.2-4.8-1.8-7.5-1.2-1.7.4-3.1 1.2-4.2 2.3.2-1.2.5-2.3.9-3.2 1.4-3 5.1-4.9 8.3-5.8 3.9.4 7.6 1 11.1 2.8zm-26 3.2c.1-2.6.6-4.8 1.9-7.1.3-.5.6-1 1-1.4 1.5.8 3.1 1.3 4.9 1.6-2.1 1.3-3.8 3.1-4.7 5.2-1.3 3-1.6 6.6-1.1 10-1.6-2.3-2-5.6-2-8.3zm26.9 25.8c-.1 1.7-.4 3.5-1.3 5-.6 1-.3 1.2-.9-.1-.3-.6-.4-1.4-.5-2-.6-3-1.3-10.9-6.1-10.1-2.5.4-3.1 3.5-3.7 5.5-.4 1.4-.9 4.6-1.8 6.4-1.3-2-1.2-7.2-1.4-8.7-.6-3.3-2.6-6.2-3.3-9.5-.7-3.2.7-7 4.5-7 3.2 0 6.7 2.3 9.6 3.5 1.9.8 2.7-2 1.3-3-.1-.1-.2-.1-.2-.2 3-.6 6.2-.5 7.1 2.7.8 3-1 6.5-1.9 9.2-1.1 2.7-1.1 5.4-1.4 8.3z"/><path d="m46.6 13.5c-.1 0-.1 0 0 0-.3-.4-.9-.6-1.4-.6s-1 .2-1.3.5v.1c-.2.3-.4.5-.5.8-.1.4-.1.9.1 1.2.3.7 1 1.2 1.7 1.2s1.3-.4 1.6-.9c.2-.4.3-.8.2-1.2 0-.5-.2-.7-.4-1.1z"/></g><path d="m88.9 56.1c-2.9-5.5-10.2-4.5-15.1-3.2-.1 0-.2.1-.4.1-2.3-1.2-4.8-1.9-7.5-1.3-4.1.9-6.7 4.6-7.1 8.6-.3 3.2.8 6 2 8.8-3.4 3.2-10.1 4.7-14.4 4.7-3.4 0-6.8-.5-10-1.6-2.3-.8-4.4-2.2-6.7-3 1.4-4.3 3.7-8.9 1.5-13.2-2.9-5.5-10.2-4.5-15.1-3.2-.1 0-.2.1-.4.1-2.3-1.2-4.8-1.9-7.5-1.3-4.1.9-6.7 4.6-7.1 8.6-.5 5.5 3.2 9.8 3.8 14.9.4 3.8.6 10 5 11.6 4.3 1.5 5.9-5.5 6.7-8.3.3-1 .6-2 .9-3 .1-.2.2-.5.3-.8.2.9.7 1.8.8 2.7.2 1.4.3 2.8.6 4.1.7 3.5 3.6 7 6.8 3.4 2.9-3.3 2.4-7.9 3-11.9 2 1.7 4.8 2.8 7 3.5 3.7 1.2 8 1.8 11.9 1.5 4.1-.2 10.8-1.7 14.4-5 .2.7.4 1.5.5 2.3.4 3.8.6 10 5 11.6 4.3 1.5 5.9-5.5 6.7-8.3.3-1 .6-2 .9-3 .1-.2.2-.5.3-.8.2.9.7 1.8.8 2.7.2 1.4.3 2.8.6 4.1.7 3.5 3.6 7 6.8 3.4s2.2-8.8 3.2-13.2c.8-5.1 4.5-10.5 1.8-15.6zm-63.4 20.6c-.1 1.7-.4 3.6-1.3 5.1-.7 1.2-.9 1.2-1.3-.1-.3-.7-.4-1.4-.6-2.1-.6-2.8-1.2-10.8-5.8-10-2.4.4-3 3.5-3.5 5.4-.4 1.5-.9 5.2-2.1 6.9-1.7-1.8-1.5-7.2-1.7-8.8-.5-3.4-2.5-6.2-3.3-9.5-.8-3 0-7.2 3.6-7.9 3.4-.7 7.5 2.1 10.6 3.4 1.7.7 3-1.4 1.5-2.5-.2-.2-.5-.3-.7-.5 3.3-.7 7-.8 8 2.8.8 3.1-1 6.5-2 9.4-1.1 2.8-1.2 5.5-1.4 8.4zm58.9-8.4c-.9 2.8-1 5.5-1.2 8.3-.1 1.7-.4 3.6-1.3 5.1-.8 1.3-.9 1.3-1.4 0-.3-.7-.4-1.4-.6-2.1-.6-2.8-1.2-10.8-5.8-10-2.4.4-3 3.5-3.5 5.4-.4 1.5-.9 5.2-2.1 6.9-1.7-1.8-1.5-7.2-1.7-8.8-.5-3.4-2.5-6.2-3.3-9.5-.8-3 0-7.2 3.6-7.9 3.4-.7 7.5 2.1 10.6 3.4 1.7.7 3-1.4 1.5-2.5-.2-.2-.5-.3-.7-.5 3.3-.7 7-.8 8 2.8.6 3.1-1.2 6.5-2.1 9.4z"/></g></g></svg>