<svg width="1888" height="794" viewBox="0 0 1888 794" fill="none" xmlns="http://www.w3.org/2000/svg">
<path opacity="0.1" d="M1424.47 547.326C1600.5 540.942 1744.97 544.134 1788.98 414.993C1832.99 285.852 1656.96 232.454 1707.34 150.326C1740.92 95.7676 1831.25 69.359 1888 57.4606V0C1654.93 0.870614 1435.76 33.6638 1360.48 81.8378C1249.88 152.067 1402.18 206.916 1270.15 241.45C1138.42 276.275 867.42 234.485 707.891 248.415C548.073 262.345 458.03 276.275 416.339 317.774C339.614 394.388 405.337 456.492 360.75 512.211C305.45 581.28 111.757 567.931 0 554.291V794H1196.03C1183.87 773.976 1174.61 753.662 1169.69 733.057C1143.92 623.07 1248.44 553.42 1424.18 547.326H1424.47Z" fill="#C37C13"/>
</svg>
