<svg height="300" viewBox="0 0 480 480" width="300" xmlns="http://www.w3.org/2000/svg" version="1.1" xmlns:xlink="http://www.w3.org/1999/xlink" xmlns:svgjs="http://svgjs.dev/svgjs"><g width="100%" height="100%" transform="matrix(1,0,0,1,0,0)"><path d="m432 240c0 106.039062-85.960938 192-192 192s-192-85.960938-192-192 85.960938-192 192-192 192 85.960938 192 192zm0 0" fill="#ffffff" fill-opacity="1" data-original-color="#cfd2fcff" stroke="none" stroke-opacity="1" style=""/><path d="m240 480c-132.546875 0-240-107.453125-240-240s107.453125-240 240-240 240 107.453125 240 240c-.148438 132.484375-107.515625 239.851562-240 240zm0-464c-123.710938 0-224 100.289062-224 224s100.289062 224 224 224 224-100.289062 224-224c-.140625-123.652344-100.347656-223.859375-224-224zm0 0" fill="#ffffff" fill-opacity="1" data-original-color="#8690faff" stroke="none" stroke-opacity="1" style=""/><path d="m192 136 128 104-128 104zm0 0" fill="#000000" fill-opacity="1" data-original-color="#5153ffff" stroke="none" stroke-opacity="1" style=""/></g></svg>