<?xml version="1.0" encoding="utf-8"?>
<!-- Generator: Adobe Illustrator 27.5.0, SVG Export Plug-In . SVG Version: 6.00 Build 0)  -->
<svg version="1.1" id="Слой_1" xmlns="http://www.w3.org/2000/svg" xmlns:xlink="http://www.w3.org/1999/xlink" x="0px" y="0px"
	 viewBox="0 0 3000 3000" style="enable-background:new 0 0 3000 3000;" xml:space="preserve">
<rect x="0" y="0" style="fill:#FFFFFF;" width="3000" height="3000"/>
<g>
	<g>
		<rect x="374.373" y="356.643" style="fill:#FFFFFF;" width="608.684" height="608.684"/>
		<path d="M1031.256,1013.531H326.171V308.446h705.085V1013.531z M422.57,917.133h512.288V404.845H422.57V917.133z"/>
	</g>
	<g>
		<rect x="548.891" y="531.16" width="259.648" height="259.648"/>
	</g>
</g>
<g>
	<g>
		<rect x="2016.947" y="356.643" style="fill:#FFFFFF;" width="608.684" height="608.684"/>
		<path d="M2673.83,1013.531h-705.085V308.446h705.085V1013.531z M2065.143,917.133h512.288V404.845h-512.288V917.133z"/>
	</g>
	<g>
		<rect x="2191.464" y="531.16" width="259.648" height="259.648"/>
	</g>
</g>
<g>
	<g>
		<rect x="2232.466" y="1930.696" style="fill:#FFFFFF;" width="304.341" height="304.341"/>
		<path d="M2560.906,2259.14h-352.541v-352.541h352.541V2259.14z M2256.564,2210.941h256.143v-256.143h-256.143V2210.941z"/>
	</g>
	<g>
		<rect x="2319.724" y="2017.955" width="129.824" height="129.824"/>
	</g>
</g>
<g>
	<g>
		<rect x="374.373" y="2034.667" style="fill:#FFFFFF;" width="608.684" height="608.684"/>
		<path d="M1031.256,2691.556H326.171v-705.085h705.085V2691.556z M422.57,2595.157h512.288v-512.289H422.57V2595.157z"/>
	</g>
	<g>
		<rect x="548.891" y="2209.184" width="259.648" height="259.648"/>
	</g>
</g>
<rect x="1106.756" y="308.444" width="96.398" height="96.398"/>
<rect x="1099.261" y="868.928" width="96.398" height="96.398"/>
<rect x="1195.656" y="965.326" width="96.398" height="96.398"/>
<rect x="1479.315" y="1189.692" width="96.398" height="96.398"/>
<polygon points="1717.215,1578.806 1717.215,1671.688 1717.215,1675.204 1717.215,1768.086 1813.614,1768.086 1813.614,1675.204 
	1813.614,1671.688 1813.614,1578.806 "/>
<rect x="1468.833" y="2407.371" width="96.398" height="96.398"/>
<rect x="2205.099" y="2274.395" width="96.398" height="96.398"/>
<polygon points="1968.745,1061.731 1968.745,1158.129 2065.143,1158.129 2161.541,1158.129 2257.939,1158.129 2257.939,1061.731 "/>
<polygon points="1252.482,1704.104 1252.482,1800.502 1348.88,1800.502 1445.278,1800.502 1541.677,1800.502 1541.677,1704.104 "/>
<polygon points="2217.522,1752.303 2217.522,1848.701 2313.921,1848.701 2410.319,1848.701 2506.717,1848.701 2506.717,1752.303 "/>
<polygon points="1461.596,1986.468 1461.596,1960.883 1461.596,1864.484 1365.198,1864.484 1365.198,2153.679 1461.596,2153.679 
	1461.596,2082.866 1466.883,2082.866 1563.282,2082.866 1659.68,2082.866 1659.68,1986.468 "/>
<polygon points="2673.829,1217.432 2673.829,1121.034 2673.829,1024.636 2577.431,1024.636 2577.431,1121.034 2577.431,1217.432 
	2577.431,1313.831 2673.829,1313.831 "/>
<rect x="1613.431" y="308.443" width="96.398" height="96.398"/>
<rect x="1920.545" y="1254.527" width="96.398" height="96.398"/>
<rect x="2369.486" y="1061.731" width="96.398" height="96.398"/>
<rect x="2300.442" y="1254.527" width="96.398" height="96.398"/>
<rect x="2160.166" y="1254.527" width="96.398" height="96.398"/>
<rect x="1958.589" y="1912.683" transform="matrix(-1 -1.224647e-16 1.224647e-16 -1 4013.5759 3921.7651)" width="96.398" height="96.398"/>
<rect x="1833.086" y="1784.721" transform="matrix(-1 -1.224647e-16 1.224647e-16 -1 3762.5708 3665.8394)" width="96.398" height="96.398"/>
<rect x="1718.969" y="1912.683" transform="matrix(-1 -1.224647e-16 1.224647e-16 -1 3534.3354 3921.7651)" width="96.398" height="96.398"/>
<polygon points="1075.026,1945.099 1165.816,1945.099 1165.816,2137.896 1262.214,2137.896 1262.214,2041.498 1262.214,1945.099 
	1262.214,1848.701 1171.424,1848.701 1165.816,1848.701 1075.026,1848.701 "/>
<rect x="772.018" y="1043.07" width="96.398" height="96.398"/>
<rect x="734.68" y="1241.609" transform="matrix(-1 -1.224647e-16 1.224647e-16 -1 1565.7592 2579.6162)" width="96.398" height="96.398"/>
<rect x="1147.46" y="1575.288" transform="matrix(-1 -1.224647e-16 1.224647e-16 -1 2391.3186 3246.9751)" width="96.398" height="96.398"/>
<rect x="609.178" y="1113.646" transform="matrix(-1 -1.224647e-16 1.224647e-16 -1 1314.7542 2323.6904)" width="96.398" height="96.398"/>
<rect x="495.06" y="1241.609" transform="matrix(-1 -1.224647e-16 1.224647e-16 -1 1086.5188 2579.6162)" width="96.398" height="96.398"/>
<rect x="565.794" y="1687.469" transform="matrix(-1 -1.224647e-16 1.224647e-16 -1 1227.9873 3471.3362)" width="96.398" height="96.398"/>
<rect x="440.292" y="1559.506" transform="matrix(-1 -1.224647e-16 1.224647e-16 -1 976.9823 3215.4106)" width="96.398" height="96.398"/>
<polygon points="422.573,1864.484 422.573,1783.867 422.573,1781.005 422.573,1687.469 326.174,1687.469 326.174,1781.005 
	326.174,1783.867 326.174,1877.403 413.422,1877.403 413.422,1960.883 509.821,1960.883 509.821,1864.484 "/>
<rect x="1239.696" y="2177.997" width="96.398" height="96.398"/>
<rect x="1365.198" y="2305.96" width="96.398" height="96.398"/>
<rect x="1479.316" y="2177.997" width="96.398" height="96.398"/>
<polygon points="1805.052,308.443 1805.052,401.777 1805.052,404.842 1805.052,498.175 1901.45,498.175 1901.45,404.842 
	1901.45,401.777 1901.45,308.443 "/>
<polygon points="1106.756,2246.609 1106.756,2339.01 1106.756,2343.007 1106.756,2435.408 1203.154,2435.408 1203.154,2343.007 
	1203.154,2339.01 1203.154,2246.609 "/>
<polygon points="1902.625,1043.07 1902.625,946.672 1806.227,946.672 1806.227,850.274 1709.829,850.274 1709.829,946.672 
	1613.43,946.672 1613.43,855.571 1517.032,855.571 1517.032,946.672 1517.032,951.969 1517.032,1037.773 1517.032,1043.07 
	1517.032,1134.172 1613.43,1134.172 1613.43,1043.07 1709.829,1043.07 1717.216,1043.07 1717.216,1134.172 1806.227,1134.172 
	1806.227,1225.875 1902.625,1225.875 1902.625,1129.477 1813.614,1129.477 1813.614,1043.07 "/>
<polygon points="1120.078,1219.475 1125.188,1219.475 1216.477,1219.475 1216.477,1123.077 1125.188,1123.077 1120.078,1123.077 
	1034.736,1123.077 1034.736,1031.945 938.338,1031.945 938.338,1123.077 938.338,1128.343 938.338,1219.475 938.338,1315.874 
	938.338,1323.26 846.036,1323.26 846.036,1419.659 938.338,1419.659 938.338,1508.67 1034.736,1508.67 1034.736,1412.272 
	1131.135,1412.272 1131.135,1315.874 1034.736,1315.874 1034.736,1219.475 "/>
<polygon points="1665.613,1286.091 1665.613,1286.093 1575.713,1286.093 1575.713,1382.491 1479.315,1382.491 1479.315,1478.889 
	1575.713,1478.889 1575.713,1575.287 1575.715,1575.287 1575.715,1575.288 1483.412,1575.288 1483.412,1671.687 1579.811,1671.687 
	1579.811,1671.686 1672.113,1671.686 1672.113,1575.287 1672.111,1575.287 1672.111,1478.889 1672.111,1474.371 1762.011,1474.371 
	1762.011,1382.489 1762.011,1377.973 1762.011,1286.091 "/>
<polygon points="2577.431,1575.287 2577.431,1495.525 2577.431,1478.888 2668.402,1478.888 2668.402,1382.49 2577.431,1382.49 
	2577.431,1302.726 2481.033,1302.726 2481.033,1382.49 2384.636,1382.49 2384.636,1478.888 2481.033,1478.888 2481.033,1478.889 
	2481.033,1495.525 2481.033,1575.287 2384.635,1575.287 2384.635,1494.134 2288.236,1494.134 2288.236,1575.289 2288.236,1590.532 
	2288.236,1671.688 2384.635,1671.688 2384.635,1671.686 2481.033,1671.686 2577.431,1671.686 2673.83,1671.686 2673.83,1575.287 "/>
<polygon points="1402.714,2595.156 1402.714,2498.758 1306.316,2498.758 1306.316,2595.156 1209.918,2595.156 1209.918,2502.936 
	1113.519,2502.936 1113.519,2595.158 1113.519,2599.334 1113.519,2691.557 1209.918,2691.557 1209.918,2691.555 1306.316,2691.555 
	1402.714,2691.555 1499.112,2691.555 1499.112,2595.156 "/>
<polygon points="2673.827,2483.607 2673.827,2387.208 2673.827,2290.81 2673.827,2194.412 2577.428,2194.412 2577.428,2290.81 
	2481.03,2290.81 2481.03,2387.209 2577.428,2387.208 2577.428,2483.607 2483.968,2483.607 2483.968,2580.005 2580.366,2580.005 
	2673.829,2580.005 2673.829,2483.607 "/>
<polygon points="1079.456,1699.38 1079.456,1607.705 983.057,1607.705 983.057,1699.38 944.357,1699.38 847.958,1699.38 
	847.958,1676.1 847.958,1671.688 847.958,1579.702 751.56,1579.702 751.56,1671.688 751.56,1676.1 751.56,1766.232 
	710.125,1766.232 710.125,1858.577 672.722,1858.577 576.324,1858.577 576.324,1954.975 672.722,1954.975 769.12,1954.975 
	865.519,1954.975 865.519,1862.63 902.921,1862.63 999.319,1862.63 999.319,1795.778 1040.755,1795.778 1137.153,1795.778 
	1137.153,1699.38 "/>
<polygon points="2577.431,1752.303 2577.431,1844.969 2577.431,1848.701 2577.431,1941.368 2673.83,1941.368 2673.83,1848.701 
	2673.83,1844.969 2673.83,1752.303 "/>
<polygon points="2580.366,2595.151 2577.43,2595.151 2483.968,2595.151 2483.968,2691.55 2577.43,2691.55 2580.366,2691.55 
	2673.829,2691.55 2673.829,2595.151 "/>
<polygon points="518.967,1109.93 422.57,1109.93 422.57,1013.531 326.172,1013.531 326.172,1109.93 326.169,1109.93 
	326.169,1206.328 326.172,1206.328 326.172,1289.808 422.571,1289.808 422.571,1206.328 518.967,1206.328 "/>
<polygon points="1359.396,1270.307 1359.396,1313.563 1270.22,1313.563 1266.077,1313.563 1173.822,1313.563 1173.822,1409.962 
	1266.077,1409.962 1270.22,1409.962 1359.396,1409.962 1359.396,1458.162 1455.795,1458.162 1455.795,1366.706 1455.795,1361.763 
	1455.795,1270.307 "/>
<polygon points="422.572,1400.558 418.634,1400.558 326.173,1400.558 326.173,1496.956 418.634,1496.956 422.572,1496.956 
	515.032,1496.956 515.032,1400.558 "/>
<polygon points="693.21,1342.597 596.811,1342.597 596.811,1434.418 596.811,1438.996 596.811,1530.816 693.21,1530.816 
	693.21,1434.418 693.21,1434.418 "/>
<polygon points="1805.052,579.358 1805.052,671.975 1805.052,675.757 1805.052,768.373 1901.45,768.373 1901.45,675.757 
	1901.45,671.975 1901.45,579.358 "/>
<polygon points="1613.431,2502.936 1613.431,2595.157 1613.431,2599.334 1613.431,2691.556 1709.829,2691.556 1709.829,2599.334 
	1709.829,2595.157 1709.829,2502.936 "/>
<polygon points="2094.247,2128.184 2094.247,2128.186 1997.849,2128.186 1901.45,2128.186 1805.052,2128.186 1805.052,2207.948 
	1805.052,2224.584 1805.052,2304.347 1709.829,2304.347 1709.829,2216.049 1613.431,2216.049 1612.256,2400.747 1708.654,2400.747 
	1708.654,2400.745 1805.052,2400.745 1805.052,2493.758 1805.052,2590.156 1805.052,2686.555 1893.299,2686.555 1893.299,2686.559 
	1989.697,2686.559 2086.095,2686.559 2182.493,2686.559 2182.493,2594.336 2182.493,2590.16 2182.493,2504.05 2182.493,2497.938 
	2182.493,2407.652 2086.095,2407.652 2086.095,2497.938 2086.095,2504.05 2086.095,2590.16 1989.697,2590.16 1901.45,2590.16 
	1901.45,2590.156 1901.45,2493.758 1901.45,2400.745 1997.849,2400.745 1997.849,2320.982 1997.849,2224.584 2094.247,2224.584 
	2094.247,2226.196 2094.247,2322.594 2190.645,2322.594 2190.645,2305.726 2190.645,2226.196 2190.645,2224.582 2190.645,2209.328 
	2190.645,2128.184 "/>
<polygon points="1395.951,572.575 1395.951,501.242 1395.951,501.242 1492.349,501.242 1492.349,404.844 1492.349,404.844 
	1492.349,312.779 1395.951,312.779 1395.951,404.844 1354.515,404.844 1354.515,312.779 1258.117,312.779 1258.117,404.844 
	1203.154,404.844 1203.154,482.961 1203.154,482.961 1106.756,482.961 1106.756,572.575 1106.756,579.359 1106.756,668.973 
	1203.154,668.973 1203.154,579.359 1299.552,579.359 1385.154,579.359 1385.154,665.097 1347.752,665.097 1251.353,665.097 
	1251.353,731.948 1209.918,731.948 1113.519,731.948 1113.519,828.347 1209.918,828.347 1306.316,828.347 1402.714,828.347 
	1402.714,761.495 1444.15,761.495 1540.548,761.495 1540.548,668.973 1674.349,668.973 1674.349,572.575 "/>
<polygon points="2160.165,1478.888 2160.165,1478.89 2142.446,1478.89 2142.446,1387.824 2046.048,1387.824 2046.048,1478.89 
	1967.369,1478.89 1870.97,1478.89 1870.97,1575.288 1967.369,1575.288 1967.369,1664.698 1967.369,1671.687 1967.369,1761.096 
	2063.767,1761.096 2063.767,1671.687 2063.767,1664.698 2063.767,1575.288 2160.165,1575.288 2160.165,1668.191 2256.564,1668.191 
	2256.564,1575.286 2256.564,1478.888 "/>
<rect x="1365.198" y="965.326" width="96.398" height="96.398"/>
<rect x="2273.089" y="2595.151" width="96.398" height="96.398"/>
<rect x="1949.65" y="2468.833" width="96.398" height="96.398"/>
</svg>
