<svg height="512" viewBox="0 0 128 128" width="512" xmlns="http://www.w3.org/2000/svg"><g><path d="m93.1 53.55h-51.09v-19.56a18.711 18.711 0 0 1 18.69-18.69c10.05-.208 18.893 8.652 18.689 18.69v7.69a1.749 1.749 0 0 0 1.75 1.75h8a1.75 1.75 0 0 0 1.75-1.75v-7.69c.328-16.227-13.945-30.526-30.189-30.19a30.224 30.224 0 0 0 -30.19 30.19v19.56h-2.21a8.92 8.92 0 0 0 -8.91 8.91v48.83a8.92 8.92 0 0 0 8.91 8.91h64.8a8.92 8.92 0 0 0 8.91-8.91v-48.83a8.92 8.92 0 0 0 -8.91-8.91zm-59.09-19.56a26.72 26.72 0 0 1 26.69-26.69c14.36-.3 26.98 12.344 26.689 26.69v5.94h-4.5v-5.94c.241-11.921-10.255-22.437-22.189-22.19a22.215 22.215 0 0 0 -22.19 22.19v19.56h-4.5zm64.5 77.3a5.416 5.416 0 0 1 -5.41 5.41h-64.8a5.416 5.416 0 0 1 -5.41-5.41v-48.83a5.416 5.416 0 0 1 5.41-5.41h3.96c3.185.005 55.907 0 60.84 0a5.416 5.416 0 0 1 5.41 5.41z"/><path d="m106.861 39.068h-9.455a1.75 1.75 0 0 0 0 3.5h9.455a1.75 1.75 0 0 0 0-3.5z"/><path d="m97.406 36.568a1.748 1.748 0 0 0 1.238-.512l6.685-6.686a1.75 1.75 0 0 0 -2.475-2.474l-6.685 6.685a1.761 1.761 0 0 0 1.237 2.987z"/><path d="m98.644 45.581a1.75 1.75 0 0 0 -2.475 2.475l6.685 6.685a1.75 1.75 0 1 0 2.475-2.474z"/><path d="m60.7 67.577c-12.217.158-16.013 16.325-5.25 21.957v11.393a5.25 5.25 0 0 0 10.5 0v-11.393c10.762-5.626 6.965-21.804-5.25-21.957zm2.88 19.184a1.749 1.749 0 0 0 -1.13 1.639v12.53a1.75 1.75 0 0 1 -3.5 0v-12.53a1.749 1.749 0 0 0 -1.13-1.636 8.106 8.106 0 0 1 2.88-15.687c8.98.117 11.2 12.395 2.88 15.684z"/></g></svg>