<svg width="64" height="64" viewBox="0 0 64 64" fill="none" xmlns="http://www.w3.org/2000/svg">
<path d="M43.3088 18.8152C43.2279 18.8152 43.1454 18.805 43.0633 18.7823C39.2116 17.736 36.955 15.6448 36.8602 15.5566C36.485 15.2039 36.4668 14.6137 36.8194 14.2377C37.1721 13.8625 37.7616 13.8442 38.1368 14.1962C38.1762 14.2319 40.1894 16.0688 43.5529 16.9826C44.0498 17.1174 44.3434 17.6297 44.2078 18.1272C44.0949 18.5419 43.719 18.8152 43.3088 18.8152Z" fill="black"/>
<path d="M20.3938 30.1617C20.3508 30.1617 20.3078 30.1587 20.2641 30.153C19.934 30.1062 19.6527 29.887 19.5281 29.5764C19.0115 28.2912 18.75 26.9431 18.75 25.5711C18.75 19.6413 23.5744 14.8169 29.5042 14.8169C29.9858 14.8169 30.4827 14.857 31.0678 14.9423C31.3104 14.978 31.5282 15.1071 31.6762 15.3023L33.2049 17.319C33.374 17.5421 33.4338 17.8291 33.3681 18.1009L32.4486 21.911C32.3779 22.2045 32.1689 22.4458 31.8882 22.5581L28.2996 23.9936L26.2083 26.3835C26.1041 26.503 25.9701 26.594 25.8207 26.6472L22.7189 27.7554L21.1304 29.8007C20.9528 30.0306 20.6793 30.1617 20.3938 30.1617ZM29.5042 16.6825C24.6024 16.6825 20.6153 20.6697 20.6153 25.5712C20.6153 26.1272 20.6678 26.6787 20.7714 27.2223L21.4127 26.3968C21.522 26.2561 21.6683 26.1505 21.8352 26.0908L24.9648 24.9731L27.0436 22.5969C27.1405 22.486 27.2621 22.4001 27.3992 22.3455L30.7487 21.0056L31.4512 18.0938L30.4251 16.7393C30.09 16.7007 29.7905 16.6825 29.5042 16.6825Z" fill="black"/>
<path d="M46.6174 60.8C46.2882 60.8 45.9545 60.754 45.6213 60.6599C43.8733 60.1637 42.6994 58.501 42.6994 56.5227V51.0725C42.6994 47.7682 40.3662 45.0794 37.4984 45.0794C34.6304 45.0794 32.2965 47.7682 32.2965 51.0725V56.5227C32.2965 58.501 31.1227 60.1637 29.3746 60.6599C27.76 61.1154 26.1133 60.4334 25.1769 58.9163C19.8178 50.2373 18.1033 38.1775 17.5582 31.761C17.5378 31.5278 17.6071 31.2953 17.7506 31.1102L21.4106 26.3966C21.5191 26.256 21.6662 26.1504 21.8331 26.0906L24.9627 24.9729L27.0416 22.5967C27.1385 22.4858 27.2601 22.4 27.3972 22.3453L30.7467 21.0054L31.4491 18.0937L29.8782 16.0199C29.7186 15.81 29.656 15.5427 29.7047 15.2834L30.3117 12.0737C30.4007 11.6037 30.8283 11.27 31.307 11.3181C33.5185 11.5047 35.6447 12.3215 37.4978 13.6913C39.637 12.1058 42.1028 11.2723 44.6742 11.2723C51.8761 11.2723 57.736 17.8345 57.736 25.8999C57.7375 26.7203 57.6813 46.1848 49.8192 58.9172C49.0759 60.1208 47.8846 60.8 46.6174 60.8ZM37.4984 43.2139C41.3945 43.2139 44.5648 46.7392 44.5648 51.0725V56.5227C44.5648 57.9239 45.4085 58.6606 46.1306 58.8652C46.9466 59.0977 47.7306 58.7479 48.232 57.937C55.8171 45.6527 55.8704 26.0971 55.8704 25.9011C55.8704 18.8624 50.8478 13.1375 44.674 13.1375C42.3015 13.1375 40.0267 13.987 38.0949 15.5937C37.7481 15.8808 37.2475 15.8808 36.9022 15.5937C35.4375 14.3769 33.7507 13.587 31.9815 13.2832L31.6142 15.2236L33.2027 17.3191C33.3718 17.5422 33.4316 17.8292 33.3659 18.101L32.4464 21.9111C32.3757 22.2046 32.1667 22.4459 31.886 22.5582L28.2974 23.9937L26.2061 26.3836C26.1019 26.5031 25.9679 26.5941 25.8185 26.6473L22.7167 27.7555L19.448 31.9657C20.0113 38.2983 21.7054 49.7455 26.7637 57.9361C27.2649 58.7477 28.0475 59.0982 28.8651 58.8651C29.5871 58.6604 30.4309 57.9237 30.4309 56.5226V51.0723C30.4313 46.7392 33.6016 43.2139 37.4984 43.2139Z" fill="black"/>
<path d="M15.0806 29.5576C14.7134 29.5576 14.3972 29.288 14.3433 28.9202L12.926 19.3026L10.1091 21.6422C9.90878 21.8091 9.63691 21.8601 9.39 21.7734C9.14373 21.6889 8.95941 21.4821 8.90398 21.227L6.28306 9.20638C6.19486 8.8042 6.44997 8.40638 6.85291 8.31895C7.25432 8.22487 7.65291 8.4865 7.74034 8.88881L10.1005 19.7099L12.9947 17.3062C13.2022 17.1342 13.4859 17.0862 13.7379 17.1837C13.9899 17.28 14.1699 17.505 14.2093 17.7718L14.5204 19.882L14.6174 15.1881L11.8201 16.748C11.5913 16.8763 11.3115 16.8741 11.0842 16.7429C10.8569 16.6125 10.7148 16.3721 10.7104 16.1097L10.4996 3.9603C10.4923 3.54788 10.821 3.2083 11.2327 3.201C11.6319 3.17988 11.9846 3.52228 11.9919 3.93406L12.1807 14.8382L15.0267 13.2513C15.2598 13.1201 15.5463 13.126 15.775 13.263C16.0038 13.4014 16.1415 13.6507 16.1364 13.9181L15.8275 28.827C15.8194 29.2153 15.5157 29.5323 15.128 29.5563C15.112 29.557 15.0968 29.5576 15.0806 29.5576Z" fill="black"/>
<path d="M23.2206 18.7714C23.0873 18.7714 22.9533 18.7357 22.8337 18.6635C22.5613 18.4981 22.4235 18.1783 22.4913 17.8664L23.2214 14.5081L20.8468 15.3286C20.5998 15.4138 20.328 15.3635 20.1277 15.198C19.9264 15.0311 19.8275 14.7726 19.8654 14.5146L21.2404 5.14644C21.3001 4.73915 21.6695 4.45064 22.0871 4.51694C22.4944 4.57672 22.7762 4.9556 22.7167 5.36366L21.5203 13.5173L23.9895 12.664C24.2439 12.5743 24.5266 12.6319 24.7284 12.8112C24.9302 12.9905 25.019 13.2645 24.9622 13.5281L24.3975 16.1236L26.8706 11.2307L24.8683 11.5301C24.6103 11.5651 24.3479 11.4681 24.1819 11.2656C24.015 11.063 23.9677 10.7884 24.0558 10.5414L25.8395 5.54734C25.9773 5.15899 26.4058 4.95419 26.7926 5.0955C27.181 5.234 27.3836 5.66101 27.2445 6.04859L25.8795 9.87029L28.0771 9.54171C28.3526 9.50305 28.6295 9.61748 28.7919 9.84251C28.9552 10.0691 28.9792 10.3672 28.8532 10.6164L25.4897 17.2711C25.4212 17.4067 25.3133 17.5173 25.1801 17.5902C24.6613 17.8714 24.1629 18.211 23.6986 18.598C23.561 18.713 23.3911 18.7714 23.2206 18.7714Z" fill="black"/>
</svg>
