<svg width="64" height="64" viewBox="0 0 64 64" fill="none" xmlns="http://www.w3.org/2000/svg">
<path d="M5.63388 1.28003C3.58588 1.28003 1.92188 2.94403 1.92188 4.99203V12.032C1.92188 12.8 2.43387 13.312 3.20187 13.312C3.96988 13.312 4.48187 12.8 4.48187 12.032V4.99203C4.48187 4.35203 4.99388 3.84003 5.63388 3.84003H12.6739C13.4419 3.84003 13.9539 3.32803 13.9539 2.56003C13.9539 1.79203 13.4419 1.28003 12.6739 1.28003H5.63388Z" fill="black"/>
<path d="M3.20187 42.2401C2.43387 42.2401 1.92188 42.7521 1.92188 43.5201V50.4321C1.92188 52.4801 3.58588 54.144 5.63388 54.144H12.6739C13.4419 54.144 13.9539 53.6321 13.9539 52.864C13.9539 52.0961 13.4419 51.5841 12.6739 51.5841H5.63388C4.99388 51.5841 4.48187 51.0721 4.48187 50.4321V43.5201C4.48187 42.7521 3.84187 42.2401 3.20187 42.2401Z" fill="black"/>
<path d="M58.3688 54.144C60.4168 54.144 62.0808 52.4801 62.0808 50.4321V43.5201C62.0808 42.7521 61.5688 42.2401 60.8008 42.2401C60.0328 42.2401 59.5208 42.7521 59.5208 43.5201V50.4321C59.5208 51.0721 59.0088 51.5841 58.3688 51.5841H51.3288C50.5608 51.5841 50.0488 52.0961 50.0488 52.864C50.0488 53.6321 50.5608 54.144 51.3288 54.144H58.3688Z" fill="black"/>
<path d="M60.8008 13.312C61.5688 13.312 62.0808 12.8 62.0808 12.032V4.99203C62.0808 2.94403 60.4168 1.28003 58.3688 1.28003H51.3288C50.5608 1.28003 50.0488 1.79203 50.0488 2.56003C50.0488 3.32803 50.5608 3.84003 51.3288 3.84003H58.3688C59.0088 3.84003 59.5208 4.35203 59.5208 4.99203V12.032C59.5208 12.672 60.1608 13.312 60.8008 13.312Z" fill="black"/>
<path d="M61.4412 29.568H51.3292C51.4572 28.672 51.4572 27.776 51.4572 26.88C51.4572 14.976 44.0332 7.552 32.0012 7.552C19.9692 7.552 12.5452 14.848 12.5452 26.752C12.5452 27.648 12.5452 28.544 12.6732 29.44H2.56125C1.79325 29.44 1.28125 29.952 1.28125 30.72C1.28125 31.488 1.79325 32 2.56125 32H13.0572C14.2092 38.784 17.5372 45.568 22.1452 49.664V52.864C22.1452 55.552 20.6092 58.24 17.9212 60.288C17.4093 60.672 17.2812 61.568 17.6653 62.08C17.9212 62.464 18.3053 62.592 18.6893 62.592C18.9452 62.592 19.2013 62.464 19.4572 62.336C22.7852 59.776 24.5772 56.448 24.5772 52.864V51.584C26.8813 52.992 29.3132 53.888 32.0012 53.888C34.6893 53.888 37.1213 52.992 39.4252 51.584V52.864C39.4252 56.32 41.2172 59.776 44.5452 62.336C44.8012 62.464 45.0573 62.592 45.3133 62.592C45.6973 62.592 46.0812 62.464 46.3372 62.08C46.7212 61.568 46.7212 60.672 46.0812 60.288C43.3932 58.24 41.8573 55.552 41.8573 52.864V49.664C46.4652 45.44 49.7932 38.784 50.9452 32H61.4412C62.2092 32 62.7212 31.488 62.7212 30.72C62.7212 29.952 62.2092 29.568 61.4412 29.568ZM15.1053 26.752C15.1053 16.256 21.3772 9.984 32.0012 9.984C42.6252 9.984 48.8973 16.256 48.8973 26.752C48.8973 27.648 48.8972 28.544 48.7692 29.44H15.2332C15.1052 28.544 15.1053 27.648 15.1053 26.752ZM32.0012 51.584C24.0653 51.584 17.4093 41.856 15.6172 32.128H48.3852C46.5932 41.856 39.9372 51.584 32.0012 51.584Z" fill="black"/>
</svg>
