<svg width="89" height="89" viewBox="0 0 89 89" fill="none" xmlns="http://www.w3.org/2000/svg">
<path d="M19.6683 30.0889C19.5214 30.0889 19.3744 30.0329 19.2623 29.9207C18.4873 29.1458 18.0605 28.1154 18.0605 27.0195C18.0605 25.9235 18.4873 24.8932 19.2623 24.1183C19.4865 23.894 19.8501 23.894 20.0743 24.1183C20.2986 24.3425 20.2986 24.706 20.0743 24.9303C19.5163 25.4883 19.2089 26.2303 19.2089 27.0195C19.2089 27.8087 19.5163 28.5507 20.0743 29.1087C20.2986 29.3329 20.2986 29.6965 20.0743 29.9207C19.9622 30.0329 19.8153 30.0889 19.6683 30.0889Z" fill="black"/>
<path d="M38.9883 64.5846C38.8423 64.5846 38.6955 64.5769 38.5483 64.5613C37.4585 64.4459 36.4788 63.913 35.7898 63.0607C35.5904 62.8141 35.6287 62.4525 35.8753 62.2532C36.1219 62.0538 36.4835 62.0921 36.6828 62.3387C37.179 62.9524 37.8845 63.3362 38.6693 63.4193C39.4542 63.5024 40.2243 63.275 40.838 62.7788C41.0846 62.5794 41.4462 62.6177 41.6455 62.8643C41.8449 63.1109 41.8066 63.4725 41.56 63.6718C40.8229 64.2678 39.9231 64.5846 38.9883 64.5846Z" fill="black"/>
<path d="M19.6683 40.5684C19.5214 40.5684 19.3744 40.5124 19.2623 40.4003C18.4873 39.6253 18.0605 38.595 18.0605 37.499C18.0605 36.4031 18.4873 35.3727 19.2623 34.5978C19.4865 34.3736 19.8501 34.3736 20.0743 34.5978C20.2986 34.822 20.2986 35.1856 20.0743 35.4098C19.5163 35.9679 19.2089 36.7098 19.2089 37.499C19.2089 38.2882 19.5163 39.0302 20.0743 39.5883C20.2986 39.8125 20.2986 40.176 20.0743 40.4003C19.9622 40.5124 19.8153 40.5684 19.6683 40.5684Z" fill="black"/>
<path d="M22.8495 51.2158C22.7827 51.2158 22.7147 51.2041 22.6485 51.1793C21.622 50.7954 20.8064 50.0348 20.352 49.0375C19.8976 48.0402 19.8587 46.9256 20.2426 45.8991C20.3537 45.6021 20.6845 45.4513 20.9815 45.5624C21.2786 45.6735 21.4293 46.0043 21.3182 46.3013C21.0418 47.0405 21.0697 47.8432 21.397 48.5613C21.7242 49.2795 22.3115 49.8272 23.0507 50.1037C23.3477 50.2148 23.4985 50.5456 23.3874 50.8426C23.3011 51.0734 23.0822 51.2158 22.8495 51.2158Z" fill="black"/>
<path d="M30.0058 59.5339C28.9992 59.5339 28.0399 59.1696 27.282 58.4945C26.4637 57.7655 25.9782 56.7615 25.915 55.6673C25.8968 55.3508 26.1386 55.0793 26.4552 55.061C26.7718 55.0429 27.0432 55.2846 27.0615 55.6012C27.107 56.3891 27.4566 57.1121 28.0459 57.637C28.6352 58.162 29.3936 58.426 30.1815 58.3805C30.4981 58.3626 30.7696 58.6041 30.7879 58.9206C30.8061 59.2372 30.5643 59.5087 30.2477 59.527C30.1669 59.5316 30.0862 59.5339 30.0058 59.5339Z" fill="black"/>
<path d="M69.332 30.0889C69.1851 30.0889 69.0381 30.0328 68.926 29.9207C68.7018 29.6965 68.7018 29.3329 68.926 29.1087C70.078 27.9567 70.078 26.0823 68.926 24.9303C68.7018 24.706 68.7018 24.3425 68.926 24.1182C69.1502 23.894 69.5138 23.894 69.738 24.1182C70.513 24.8932 70.9397 25.9235 70.9397 27.0195C70.9397 28.1154 70.513 29.1458 69.738 29.9207C69.6259 30.0328 69.479 30.0889 69.332 30.0889Z" fill="black"/>
<path d="M50.0115 64.5846C49.0767 64.5846 48.177 64.2678 47.4398 63.6718C47.1932 63.4725 47.1549 63.1109 47.3543 62.8643C47.5536 62.6177 47.9152 62.5794 48.1617 62.7788C49.4287 63.8031 51.2927 63.6056 52.3169 62.3387C52.5163 62.0921 52.8779 62.0538 53.1244 62.2532C53.371 62.4525 53.4094 62.8141 53.21 63.0607C52.521 63.9129 51.5413 64.4459 50.4514 64.5613C50.3043 64.5769 50.1574 64.5846 50.0115 64.5846Z" fill="black"/>
<path d="M69.332 40.5684C69.1851 40.5684 69.0381 40.5123 68.926 40.4002C68.7018 40.176 68.7018 39.8124 68.926 39.5882C70.078 38.4362 70.078 36.5618 68.926 35.4098C68.7018 35.1855 68.7018 34.822 68.926 34.5977C69.1502 34.3735 69.5138 34.3735 69.738 34.5977C70.513 35.3727 70.9397 36.403 70.9397 37.499C70.9397 38.5949 70.513 39.6253 69.738 40.4002C69.6259 40.5123 69.479 40.5684 69.332 40.5684Z" fill="black"/>
<path d="M66.1486 51.2158C65.916 51.2158 65.697 51.0734 65.6107 50.8426C65.4997 50.5456 65.6504 50.2147 65.9474 50.1037C67.4734 49.533 68.2506 47.8273 67.6799 46.3013C67.5688 46.0043 67.7196 45.6735 68.0166 45.5624C68.3136 45.4513 68.6445 45.6021 68.7555 45.8991C69.1394 46.9256 69.1006 48.0402 68.6462 49.0375C68.1918 50.0348 67.3762 50.7954 66.3497 51.1793C66.2834 51.2041 66.2155 51.2158 66.1486 51.2158Z" fill="black"/>
<path d="M58.992 59.5339C58.9116 59.5339 58.831 59.5316 58.7501 59.5269C58.4335 59.5087 58.1917 59.2372 58.21 58.9206C58.2282 58.6041 58.5 58.3625 58.8163 58.3805C59.6042 58.4261 60.3626 58.162 60.9519 57.637C61.5412 57.112 61.8908 56.389 61.9363 55.6011C61.9546 55.2846 62.2265 55.043 62.5426 55.061C62.8592 55.0793 63.1011 55.3507 63.0828 55.6673C63.0196 56.7615 62.5341 57.7655 61.7158 58.4945C60.958 59.1696 59.9986 59.5339 58.992 59.5339Z" fill="black"/>
<path d="M49.9144 69.9417C47.8785 69.9417 45.9387 69.14 44.5002 67.7225C43.0617 69.1399 41.1218 69.9417 39.086 69.9417C37.4685 69.9417 35.9199 69.4464 34.6077 68.5093C33.9761 68.0583 33.4174 67.5166 32.9468 66.8992C32.4713 66.2751 32.0954 65.5859 31.8296 64.8508L31.5346 64.0307C30.8704 64.2133 30.1839 64.3055 29.4868 64.3055C28.4456 64.3055 27.4353 64.1015 26.4839 63.6991C25.5653 63.3105 24.7403 62.7544 24.0321 62.0461C23.3238 61.3379 22.7677 60.513 22.3791 59.5943C21.9767 58.6429 21.7727 57.6326 21.7727 56.5914C21.7727 56.2429 21.7961 55.8947 21.8424 55.5507C20.3236 55.2631 18.9087 54.5162 17.8079 53.4114C17.189 52.7902 16.6848 52.0756 16.3093 51.2874C15.9206 50.4716 15.6804 49.5978 15.5952 48.6904C15.4334 46.9674 15.8504 45.2594 16.775 43.8152C14.6183 42.3944 13.3027 39.9799 13.3027 37.3709C13.3027 36.2606 13.5337 35.1889 13.9892 34.1855C14.345 33.4017 14.8218 32.6929 15.4104 32.0716C14.8218 31.4504 14.345 30.7416 13.9892 29.9579C13.5337 28.9544 13.3027 27.8826 13.3027 26.7724C13.3027 25.7312 13.5068 24.7209 13.9092 23.7695C14.2977 22.8509 14.8539 22.026 15.5621 21.3177C16.2704 20.6094 17.0953 20.0533 18.014 19.6647C18.9654 19.2623 19.9757 19.0583 21.0168 19.0583C22.0674 19.0583 23.0868 19.2642 24.0468 19.6702C24.9737 20.0623 25.806 20.6234 26.5207 21.3381C27.2353 22.0527 27.7965 22.8851 28.1885 23.812C28.5946 24.772 28.8004 25.7914 28.8004 26.8419V31.7425C28.8004 37.7127 30.6444 43.5237 33.9926 48.105C37.0507 52.2894 40.9788 54.7875 44.5002 54.7875C48.0217 54.7875 51.9498 52.2894 55.0078 48.105C58.3561 43.5237 60.2 37.7127 60.2 31.7425V26.8419C60.2 25.7914 60.4059 24.772 60.8119 23.812C61.204 22.8851 61.7651 22.0527 62.4798 21.3381C63.1944 20.6234 64.0268 20.0623 64.9537 19.6702C65.9137 19.2642 66.9331 19.0583 67.9836 19.0583C69.0247 19.0583 70.0351 19.2623 70.9865 19.6647C71.9051 20.0533 72.73 20.6094 73.4383 21.3177C74.1466 22.026 74.7027 22.8509 75.0913 23.7695C75.4937 24.7209 75.6977 25.7312 75.6977 26.7724C75.6977 27.8827 75.4667 28.9544 75.0112 29.9579C74.6554 30.7416 74.1786 31.4503 73.59 32.0716C74.1786 32.6929 74.6554 33.4016 75.0112 34.1853C75.4667 35.1888 75.6977 36.2606 75.6977 37.3708C75.6977 39.9798 74.382 42.3944 72.2255 43.8152C73.15 45.2593 73.5671 46.9675 73.4053 48.6904C73.32 49.599 73.0792 50.4738 72.6897 51.2905C72.3133 52.0796 71.808 52.7947 71.1878 53.4161C70.0875 54.5185 68.6746 55.2635 67.158 55.5507C67.2044 55.8947 67.2278 56.2429 67.2278 56.5915C67.2278 57.6326 67.0237 58.6429 66.6213 59.5943C66.2328 60.513 65.6766 61.3379 64.9684 62.0461C64.2601 62.7544 63.4352 63.3106 62.5165 63.6991C61.5651 64.1015 60.5548 64.3055 59.5137 64.3055C58.8165 64.3055 58.1302 64.2133 57.466 64.0308L57.1707 64.8514C56.9045 65.5872 56.5285 66.2761 56.0529 66.9001C55.5824 67.5173 55.0237 68.0589 54.3922 68.5098C53.0801 69.4465 51.5317 69.9417 49.9144 69.9417ZM44.4999 66.3078C44.6617 66.3078 44.822 66.376 44.9351 66.5074C46.185 67.9601 47.9999 68.7933 49.9144 68.7933C52.6711 68.7933 55.1531 67.0525 56.0905 64.4616L56.5722 63.1231C56.6793 62.8252 57.0074 62.6704 57.3055 62.7768C58.0125 63.0292 58.7554 63.1572 59.5136 63.1572C63.134 63.1572 66.0794 60.2118 66.0794 56.5915C66.0794 56.1227 66.0298 55.6551 65.932 55.2012C65.9284 55.1858 65.9254 55.1701 65.923 55.1542C65.8773 54.8478 66.0827 54.5598 66.3874 54.504C66.4104 54.4998 66.4332 54.4971 66.456 54.4956C69.5322 54.1546 71.9719 51.6721 72.2619 48.5831C72.4163 46.939 71.9515 45.3109 70.9531 43.9975C70.8795 43.9046 70.8348 43.7894 70.8293 43.6665C70.8195 43.4475 70.9347 43.2418 71.1271 43.1367C73.238 41.9832 74.5493 39.7738 74.5493 37.3708C74.5493 35.5241 73.7657 33.7541 72.3988 32.5112C72.2712 32.4038 72.1943 32.244 72.1943 32.0719C72.1943 31.902 72.2692 31.7439 72.3938 31.6365C73.7638 30.3935 74.5493 28.6213 74.5493 26.7724C74.5493 23.152 71.604 20.2066 67.9836 20.2066C64.325 20.2066 61.3484 23.1832 61.3484 26.8419V31.7425C61.3484 34.9372 60.8407 38.091 59.8393 41.1166C59.3715 42.5302 58.796 43.9075 58.1289 45.21C57.4806 46.4758 56.7425 47.6777 55.935 48.7826C54.3477 50.9545 52.482 52.7552 50.5396 53.9901C49.5533 54.6172 48.5468 55.1008 47.548 55.4276C46.5171 55.7649 45.4917 55.9359 44.5002 55.9359C43.5088 55.9359 42.4834 55.7649 41.4525 55.4276C40.4537 55.1008 39.4471 54.6172 38.4609 53.9901C36.5185 52.7552 34.6528 50.9545 33.0655 48.7826C32.258 47.6777 31.5199 46.4757 30.8716 45.21C30.2045 43.9075 29.629 42.5302 29.1611 41.1166C28.1598 38.091 27.6521 34.9372 27.6521 31.7425V26.8419C27.6521 23.1832 24.6755 20.2066 21.0168 20.2066C17.3965 20.2066 14.4511 23.152 14.4511 26.7724C14.4511 28.626 15.2404 30.4022 16.6167 31.6455C16.7372 31.7544 16.8059 31.9092 16.8059 32.0715C16.8059 32.2339 16.7372 32.3887 16.6167 32.4976C15.2404 33.7411 14.4511 35.5173 14.4511 37.3708C14.4511 39.7658 15.7537 41.9684 17.8522 43.1251C17.9869 43.1917 18.0925 43.3097 18.1419 43.4563C18.2058 43.6456 18.1662 43.8519 18.0431 44.0029C17.0476 45.3154 16.5843 46.9411 16.7385 48.583C17.0288 51.675 19.4766 54.1623 22.5587 54.4972C22.5615 54.4975 22.5643 54.4978 22.567 54.4981L22.5797 54.4997C22.7398 54.5194 22.8843 54.6057 22.9777 54.7373C23.071 54.8689 23.1047 55.0337 23.0705 55.1914C22.9713 55.6482 22.921 56.1193 22.921 56.5914C22.921 60.2118 25.8664 63.1571 29.4868 63.1571C30.2451 63.1571 30.9881 63.0291 31.6951 62.7767C31.9933 62.6702 32.3213 62.8252 32.4285 63.1231L32.9098 64.4612C33.8466 67.052 36.3287 68.7933 39.086 68.7933C40.9937 68.7933 42.8024 67.966 44.0519 66.523C44.0812 66.4864 44.1156 66.4528 44.1547 66.4234C44.2579 66.3457 44.3793 66.3078 44.4999 66.3078Z" fill="black"/>
</svg>
