<svg width="64" height="64" viewBox="0 0 64 64" fill="none" xmlns="http://www.w3.org/2000/svg">
<path d="M12.0139 42.55C11.8989 42.815 11.8964 43.115 12.0064 43.3825C14.3089 48.9225 18.6639 55.35 23.9839 56.775C24.7127 56.97 25.4339 57.0675 26.1477 57.0675C27.7789 57.0675 29.3677 56.5587 30.8952 55.545C33.3577 57.17 36.0452 57.495 38.7139 56.48C42.4627 55.055 45.3515 51.3913 47.1152 48.57C49.2352 45.1787 50.8964 41.095 51.5614 37.6425C52.3702 33.4425 52.2252 29.6737 51.1314 26.44C50.1314 23.485 48.3377 21.0687 45.9464 19.4525C43.7427 17.9637 41.1202 17.2025 38.3615 17.255C36.2927 17.2925 34.2215 17.7887 32.2715 18.7013C33.3177 13.2375 38.7152 9.0625 45.1989 9.0625C45.7852 9.0625 46.2614 8.58625 46.2614 8C46.2614 7.41375 45.7852 6.9375 45.1989 6.9375C37.4227 6.9375 30.9889 12.2025 30.0752 18.975C26.0364 16.8925 21.4902 16.675 17.6439 18.44C17.2827 18.6063 17.0439 18.96 17.0252 19.3563C17.0064 19.7538 17.2114 20.1275 17.5564 20.3263C23.0227 23.4775 17.9302 34.6325 17.8777 34.7438C17.8277 34.8513 17.7964 34.9663 17.7839 35.0838C17.4314 38.52 15.6939 40.84 12.6189 41.9775C12.3477 42.0775 12.1289 42.285 12.0139 42.55ZM19.8789 35.4762C20.5189 34.0413 24.5477 24.4525 20.2239 19.76C23.4802 18.8837 27.1377 19.5163 30.3189 21.5688C30.6027 21.7513 30.9502 21.7837 31.2589 21.6712C31.4677 21.625 31.6527 21.5163 31.7939 21.3675C36.0227 18.7963 41.0727 18.7238 44.7577 21.2138C49.1477 24.1788 50.8664 30.0212 49.4764 37.2412C48.3539 43.065 43.7277 52.3 37.9602 54.4938C35.7177 55.3463 33.6177 54.9875 31.5414 53.3963C31.3514 53.25 31.1227 53.1775 30.8952 53.1775C30.6677 53.1775 30.4402 53.25 30.2489 53.3963C28.3902 54.82 26.5214 55.2537 24.5339 54.7212C20.2539 53.575 16.5039 48.1838 14.3889 43.5312C16.7939 42.365 19.3514 40.0537 19.8789 35.4762Z" fill="black"/>
</svg>
