<svg width="64" height="64" viewBox="0 0 64 64" fill="none" xmlns="http://www.w3.org/2000/svg">
<g clip-path="url(#clip0_243_260)">
<path d="M30.3502 37.028C30.1976 37.0282 30.0487 36.9817 29.9231 36.895C29.7976 36.8082 29.7016 36.6852 29.6478 36.5424C29.594 36.3996 29.585 36.2438 29.6221 36.0958C29.6592 35.9478 29.7405 35.8146 29.8552 35.714L30.6742 34.996C31.0459 34.6707 31.5237 34.4925 32.0176 34.4951C32.5116 34.4977 32.9875 34.6808 33.3557 35.01L34.1502 35.719C34.2932 35.853 34.378 36.0376 34.3866 36.2333C34.3952 36.4291 34.3269 36.6204 34.1963 36.7664C34.0656 36.9124 33.883 37.0015 33.6875 37.0146C33.4921 37.0277 33.2992 36.9638 33.1502 36.8365L32.3587 36.127C32.2638 36.0421 32.141 35.9948 32.0136 35.9942C31.8863 35.9935 31.763 36.0395 31.6672 36.1235L30.8482 36.8415C30.7108 36.9627 30.5335 37.0291 30.3502 37.028Z" fill="black"/>
<path d="M32 41.7855C31.8011 41.7855 31.6103 41.7065 31.4697 41.5658C31.329 41.4252 31.25 41.2344 31.25 41.0355V37.8275C31.25 37.6286 31.329 37.4378 31.4697 37.2972C31.6103 37.1565 31.8011 37.0775 32 37.0775C32.1989 37.0775 32.3897 37.1565 32.5303 37.2972C32.671 37.4378 32.75 37.6286 32.75 37.8275V41.0355C32.75 41.2344 32.671 41.4252 32.5303 41.5658C32.3897 41.7065 32.1989 41.7855 32 41.7855Z" fill="black"/>
<path d="M60.7964 2.92451C56.4464 -1.67199 43.0094 1.73851 35.5629 4.96801C34.4384 5.45364 33.2264 5.70415 32.0014 5.70415C30.7765 5.70415 29.5645 5.45364 28.4399 4.96801C20.9934 1.73851 7.55743 -1.67199 3.20643 2.92451C-0.0280693 6.34301 -0.240069 12.4775 2.66693 17.5925C2.57643 20.004 2.90643 22.6515 3.21693 23.3925C3.84443 24.9035 7.32943 25.6395 9.47443 25.6395C9.68443 25.6395 9.88243 25.6325 10.0629 25.6185C10.4793 25.595 10.8896 25.5083 11.2799 25.3615C12.5299 26.6645 15.9154 27.2155 18.1799 27.2155C18.4879 27.2155 18.7749 27.205 19.0334 27.1855C19.6371 27.1578 20.2316 27.0274 20.7914 26.8C21.2271 27.3917 21.8745 27.7922 22.5984 27.918C24.3183 28.2268 26.0626 28.3786 27.8099 28.3715C28.5849 28.3715 29.3479 28.342 30.0689 28.2825C30.7783 28.2393 31.4553 27.9708 32.0014 27.516C32.5472 27.9713 33.224 28.2406 33.9334 28.2845C34.6549 28.344 35.4174 28.373 36.1929 28.373C37.9402 28.3803 39.6846 28.2287 41.4044 27.92C42.1287 27.7937 42.7761 27.3924 43.2114 26.8C43.7716 27.0275 44.3665 27.1579 44.9704 27.1855C45.2289 27.205 45.5159 27.2155 45.8239 27.2155C48.0894 27.2155 51.4739 26.6655 52.7239 25.3615C53.1142 25.5083 53.5246 25.595 53.9409 25.6185C54.1214 25.6325 54.3189 25.6395 54.5294 25.6395C56.6744 25.6395 60.1594 24.9035 60.7869 23.3925C61.0954 22.6495 61.4254 20.002 61.3369 17.5925C64.2429 12.4775 64.0309 6.34301 60.7964 2.92451ZM6.84643 23.8245C5.31443 23.464 4.67043 22.9905 4.59893 22.818C4.16343 21.768 3.82043 16.1785 4.69893 14.672C5.29193 13.6585 6.47843 13.763 6.96143 13.855C7.82343 14.0535 8.61439 14.4849 9.24806 15.102C9.88173 15.7192 10.3338 16.4985 10.5549 17.355C10.614 17.6089 10.628 17.8712 10.5964 18.13C10.3853 20.0795 10.4116 22.0474 10.6749 23.9905C10.1849 24.175 8.69143 24.2595 6.84793 23.8255L6.84643 23.8245ZM15.6904 25.5125C13.3689 25.136 12.3904 24.4865 12.2809 24.2315C11.7764 23.0595 11.8189 16.7155 12.8809 14.6995C13.2809 13.943 14.5014 13.637 15.9224 13.9385C17.8484 14.347 19.8599 15.824 20.1499 18.2215C20.1664 18.374 20.1679 18.5277 20.1544 18.6805C20.0171 20.8074 20.026 22.9413 20.1809 25.067C20.1899 25.188 20.2124 25.3015 20.2309 25.417C19.7594 25.6735 18.0439 25.895 15.6919 25.5135L15.6904 25.5125ZM30.9904 26.405C30.6995 26.6576 30.3257 26.7941 29.9404 26.7885C27.5802 26.9721 25.2063 26.857 22.8749 26.446C22.5299 26.3817 22.2191 26.1963 21.9985 25.9233C21.778 25.6502 21.6622 25.3074 21.6719 24.9565C21.5864 23.8065 21.3509 19.8025 21.9024 16.6065C22.0019 15.8255 22.3881 15.1094 22.9859 14.5971C23.5836 14.0848 24.3504 13.8128 25.1374 13.834C26.3866 13.8211 27.6044 14.2251 28.598 14.9822C29.5917 15.7393 30.3044 16.8062 30.6234 18.014C31.4629 21.588 31.3649 25.594 30.9939 26.406L30.9904 26.405ZM42.3224 24.955C42.3322 25.3058 42.2163 25.6486 41.9958 25.9216C41.7752 26.1946 41.4645 26.3798 41.1194 26.444C38.7879 26.8555 36.4138 26.9706 34.0534 26.7865C33.6681 26.792 33.2943 26.6553 33.0034 26.4025C32.6329 25.591 32.5349 21.585 33.3694 18.0135C33.6828 16.8282 34.3752 15.7779 35.3412 15.0228C36.3071 14.2678 37.4935 13.8494 38.7194 13.8315H38.8529C39.6399 13.8103 40.4067 14.0823 41.0045 14.5946C41.6023 15.1069 41.9884 15.823 42.0879 16.604C42.6469 19.8035 42.4114 23.8065 42.3259 24.958L42.3224 24.955ZM51.7164 24.229C51.6069 24.4845 50.6289 25.134 48.3074 25.5105C45.9574 25.8925 44.2404 25.67 43.7689 25.4145C43.9298 23.1706 43.955 20.919 43.8444 18.672C43.8318 18.5222 43.8335 18.3715 43.8494 18.222C44.1379 15.822 46.1494 14.3445 48.0774 13.9355C49.5004 13.6355 50.7219 13.94 51.1189 14.6965C52.1824 16.7165 52.2249 23.0605 51.7199 24.232L51.7164 24.229ZM59.4014 22.819C59.3299 22.9915 58.6859 23.465 57.1514 23.8255C55.3064 24.2605 53.8139 24.1755 53.3209 23.9935C53.5842 22.0504 53.6106 20.0825 53.3994 18.133C53.3678 17.8742 53.3819 17.6119 53.4409 17.358C53.6621 16.5015 54.1141 15.7222 54.7478 15.105C55.3815 14.4879 56.1724 14.0565 57.0344 13.858C57.5164 13.7665 58.7039 13.661 59.2969 14.6745C60.1809 16.1795 59.8379 21.7705 59.4014 22.819ZM60.5939 13.9155C59.8484 12.6405 58.4154 12.0655 56.7564 12.3825C55.1584 12.7259 53.7579 13.6801 52.8534 15.0415C52.7531 14.6823 52.6185 14.3335 52.4514 14C51.7264 12.6215 49.8879 12.02 47.7704 12.4705C45.9653 12.8443 44.3739 13.8999 43.3274 15.4175C43.0051 14.506 42.4053 13.7184 41.6122 13.1655C40.8191 12.6126 39.8727 12.3222 38.9059 12.335C37.3648 12.3107 35.8576 12.7886 34.612 13.6965C33.3664 14.6044 32.4501 15.8929 32.0014 17.3675C31.5552 15.8918 30.6395 14.6021 29.3935 13.6942C28.1476 12.7863 26.6394 12.3098 25.0979 12.337C24.1312 12.3242 23.1848 12.6146 22.3917 13.1675C21.5986 13.7204 20.9987 14.508 20.6764 15.4195C19.63 13.9019 18.0386 12.8463 16.2334 12.4725C14.1154 12.0225 12.2774 12.6225 11.5524 14.002C11.3848 14.3348 11.2495 14.6829 11.1484 15.0415C10.244 13.6801 8.84341 12.7259 7.24543 12.3825C5.58843 12.067 4.15343 12.6405 3.40743 13.916C3.24468 14.2091 3.11905 14.5214 3.03343 14.8455C1.52093 10.8225 1.95143 6.43601 4.29643 3.95601C7.53793 0.529015 19.0434 2.52801 27.8434 6.34401C29.1563 6.91101 30.5713 7.2035 32.0014 7.2035C33.4315 7.2035 34.8465 6.91101 36.1594 6.34401C44.9594 2.52801 56.4654 0.529515 59.7064 3.95601C62.0534 6.43601 62.4819 10.8225 60.9694 14.8455C60.8838 14.5211 60.758 14.2087 60.5949 13.9155H60.5939Z" fill="black"/>
<path d="M61.2385 47.6C60.8688 46.9763 60.3387 46.4631 59.7034 46.1138C59.068 45.7646 58.3507 45.592 57.626 45.614C56.7714 45.6397 55.9303 45.8335 55.1506 46.1843C54.3709 46.5351 53.668 47.036 53.082 47.6585C52.3885 46.398 50.935 45.6755 49.082 45.6755C47.423 45.6903 45.8109 46.2274 44.4745 47.2105C44.114 47.4801 43.7906 47.796 43.5125 48.15C42.9991 47.3537 42.2879 46.7042 41.4484 46.265C40.6089 45.8258 39.6699 45.6118 38.723 45.644C37.367 45.6713 36.0398 46.0405 34.8645 46.7175C33.6893 47.3945 32.704 48.3572 32 49.5165C31.2957 48.3575 30.3102 47.3951 29.1349 46.7184C27.9595 46.0417 26.6324 45.6727 25.2765 45.6455C24.33 45.6132 23.3914 45.827 22.5522 46.266C21.7131 46.705 21.0022 47.3541 20.489 48.15C20.2103 47.7953 19.8864 47.4787 19.5255 47.208C18.1888 46.2247 16.5763 45.6874 14.917 45.6725C13.067 45.6725 11.613 46.3945 10.917 47.656C10.3312 47.0333 9.62838 46.5322 8.84877 46.1813C8.06916 45.8304 7.22803 45.6366 6.37348 45.611C5.64836 45.5892 4.93067 45.7623 4.29514 46.1121C3.65961 46.4619 3.12948 46.9757 2.75998 47.6C1.35648 49.99 1.95698 56.386 2.51948 57.742C3.44348 59.957 7.92998 60.455 9.42898 60.455C9.98727 60.4638 10.5445 60.4035 11.088 60.2755C13.276 62.006 18.078 62.0295 18.135 62.0295C18.9539 62.0522 19.7718 61.9588 20.5645 61.752C21.085 62.2535 21.7419 62.59 22.453 62.7195C24.2145 63.0352 26.0009 63.191 27.7905 63.185C28.6035 63.185 29.3905 63.1535 30.1295 63.092C30.7865 63.0395 31.4245 62.8459 32 62.5245C32.5753 62.8459 33.2131 63.0396 33.87 63.0925C34.6105 63.154 35.3975 63.1855 36.2105 63.1855C37.9973 63.1916 39.7811 63.0363 41.54 62.7215C42.2556 62.5919 42.9168 62.2532 43.44 61.748C43.5913 61.793 43.7513 61.8329 43.92 61.8675C44.5593 61.9848 45.2085 62.0402 45.8585 62.033C47.388 62.033 51.0715 61.688 52.899 60.2725C53.4466 60.4032 54.0085 60.4647 54.5715 60.4555C56.0715 60.4555 60.557 59.9555 61.48 57.745C62.043 56.3865 62.6435 49.9905 61.2385 47.6ZM60.095 57.1695C59.44 58.7395 52.85 59.6695 52.515 58.2745C52.486 58.3831 52.4509 58.4899 52.41 58.5945C51.785 60.0345 46.645 60.8795 44.22 60.3995C43.535 60.2595 43.065 60.0195 42.975 59.6595V59.6345C42.8817 60.0435 42.6688 60.4155 42.3634 60.7031C42.0579 60.9907 41.6738 61.1809 41.26 61.2495C38.8627 61.6715 36.4217 61.7891 33.995 61.5995C33.46 61.5545 32.58 61.3395 32.325 60.7795C32.15 60.3995 31.85 60.3995 31.675 60.7795C31.42 61.3395 30.54 61.5545 30.005 61.5995C27.5782 61.7891 25.1373 61.6715 22.74 61.2495C22.3261 61.1809 21.942 60.9907 21.6366 60.7031C21.3312 60.4155 21.1183 60.0435 21.025 59.6345V59.6595C20.6 61.3045 12.39 60.4395 11.59 58.5945C11.549 58.4899 11.514 58.3831 11.485 58.2745C11.15 59.6695 4.55998 58.7395 3.90498 57.1695C3.42998 56.0245 2.99498 50.1645 4.05498 48.3595C5.48498 45.9145 9.85498 47.2645 11.12 50.7045C11.1357 50.7524 11.1671 50.7935 11.209 50.8214C11.251 50.8493 11.3011 50.8622 11.3513 50.8582C11.4014 50.8541 11.4488 50.8333 11.4858 50.7991C11.5227 50.7649 11.5471 50.7193 11.555 50.6695C11.6645 49.8898 11.8869 49.1302 12.215 48.4145C13.08 46.7695 16.395 46.7545 18.63 48.4145C19.665 49.1845 20.19 50.5495 20.635 51.8545C20.6495 51.9001 20.6795 51.9393 20.7198 51.9651C20.7602 51.9909 20.8083 52.0017 20.8558 51.9958C20.9033 51.9899 20.9472 51.9675 20.9799 51.9325C21.0127 51.8976 21.0321 51.8523 21.035 51.8045C21.07 51.3145 21.115 50.8395 21.165 50.5445C22.095 45.1695 30.115 46.5845 31.355 51.9095C31.46 52.3495 31.55 52.8045 31.63 53.2595C31.6444 53.3472 31.6896 53.4269 31.7574 53.4844C31.8251 53.5419 31.9111 53.5735 32 53.5735C32.0889 53.5735 32.1748 53.5419 32.2426 53.4844C32.3104 53.4269 32.3555 53.3472 32.37 53.2595C32.45 52.8045 32.54 52.3495 32.645 51.9095C33.885 46.5845 41.905 45.1695 42.835 50.5445C42.86 50.6845 42.88 50.8695 42.905 51.0745V51.1295C42.93 51.3395 42.95 51.5695 42.965 51.8045C42.9678 51.8523 42.9873 51.8976 43.02 51.9325C43.0528 51.9675 43.0967 51.9899 43.1442 51.9958C43.1917 52.0017 43.2398 51.9909 43.2801 51.9651C43.3204 51.9393 43.3505 51.9001 43.365 51.8545C43.48 51.5245 43.595 51.1895 43.725 50.8645C44.0381 49.9124 44.6072 49.0648 45.37 48.4145C47.605 46.7545 50.92 46.7695 51.785 48.4145C52.1131 49.1302 52.3354 49.8898 52.445 50.6695C52.4529 50.7193 52.4772 50.7649 52.5142 50.7991C52.5511 50.8333 52.5985 50.8541 52.6487 50.8582C52.6989 50.8622 52.749 50.8493 52.7909 50.8214C52.8329 50.7935 52.8643 50.7524 52.88 50.7045C54.145 47.2645 58.515 45.9145 59.945 48.3595C61.005 50.1625 60.57 56.0225 60.095 57.1675V57.1695Z" fill="black"/>
</g>
<defs>
<clipPath id="clip0_243_260">
<rect width="64" height="64" fill="white"/>
</clipPath>
</defs>
</svg>
