<?xml version="1.0" encoding="UTF-8"?> <svg xmlns="http://www.w3.org/2000/svg" width="200" height="200" viewBox="0 0 200 200" fill="none"><path d="M55.2778 36.6111C54.5556 35.1111 52.8334 34.4445 51.3334 35.1111C51.3334 35.1111 46.6667 37.5556 43 43.2778C39.3334 49 36.6112 58.0556 40.1112 71.3889C40.4445 72.7222 41.6112 73.6667 43 73.6667C43.9445 73.6667 44.8334 73.2222 45.3889 72.4445L45.1667 72.2778H45.0556L45.3334 72.4445C45.8889 71.6667 46.0556 70.6667 45.8334 69.7778C43 58.8889 44.8889 51.7222 47.5556 47.2222C50.2223 42.7222 53.6667 40.8889 53.9445 40.7222C55.3889 39.9445 55.9445 38.1111 55.2778 36.6111Z" fill="#0F5E67"></path><path d="M166.778 54.8333C165.389 44.0556 161.944 34.2778 155.833 28.2222C140.889 13.2778 114.333 12.8889 97.6112 26.8334C80.9445 12.8889 54.3889 13.2778 39.4445 28.2222C33.3334 34.3334 29.8889 44.1111 28.5 54.8889C27.1112 65.6667 27.7778 77.4445 30 87.6667C30.9445 92.1111 33.2223 96.1667 36.5 99.1667C41.6667 103.833 51.9445 109.778 71.7778 112.556L75.5 131.333L71.8334 132.611C69 133.5 66.8334 135.889 66.1667 138.889C65.5 141.889 66.5 145.056 68.7223 147.056C70.9445 149.111 74.0556 149.722 76.8334 148.667L78.7778 148L79.7223 152.778L76.4445 153.889C72.3334 155.444 70.1112 160.167 71.5 164.5C72.8334 168.833 77.2778 171.278 81.5 170L83.4445 169.333C86.2778 175.556 92.6112 179.278 99.2223 178.5C105.944 177.722 111.444 172.5 112.833 165.611L114.167 158.833L120.444 156.722C124.389 155.389 126.722 151.222 125.944 147.056C125.167 143.056 121.778 140.278 117.889 140.333L119.111 134.278L125.833 132C129.778 130.611 132.111 126.333 131.167 122.111C130.278 118.056 126.722 115.333 122.778 115.556L123.333 112.611C143.167 109.778 153.444 103.833 158.611 99.2222L158.333 98.9445L158.556 99.2222C161.833 96.2222 164.167 92.1667 165.056 87.7222C167.278 77.5556 167.944 65.7222 166.556 54.9445L166.778 54.8333ZM107.056 164.333C106.111 169 102.167 172.389 97.6112 172.389C94.1667 172.389 91.0556 170.444 89.3334 167.333L107.667 161.056L107 164.333H107.056ZM111.5 141.944L85.5 150.833L84.5556 146.056L112.611 136.5L111.556 142L111.5 141.944ZM119.167 146.278L118.944 146.667C119.722 147.056 120.167 147.944 120.111 148.889C120.056 149.833 119.444 150.611 118.611 150.889L79.6667 164.167C78.9445 164.444 78.1112 164.278 77.5 163.722C76.8889 163.167 76.6667 162.333 76.8334 161.5H76.7223L76.4445 161.389L76.8334 161.5C77 160.667 77.6112 160.056 78.3334 159.833L117.278 146.556C117.278 146.556 117.722 146.444 117.944 146.444C118.278 146.444 118.611 146.556 118.889 146.667L119.056 146.333L119.167 146.278ZM159.833 86.3333L159.444 86.2222C158.778 89.3889 157.167 92.2778 154.833 94.3889C150.222 98.5556 140.5 104.111 120.611 106.611C113 107.5 105.333 107.944 97.6667 107.889C90 107.889 82.3334 107.5 74.7223 106.611C54.8334 104.111 45.1112 98.5556 40.5 94.3889C38.1667 92.2778 36.5556 89.3889 35.8889 86.2222H35.5V86.3333L35.8889 86.2222C33.8889 77.1111 33.2223 66.2778 34.3889 56.4445C35.5556 46.6111 38.5 37.7778 43.6112 32.6667C50.5556 26.1667 59.6112 22.6667 68.8889 22.9445C78.7223 22.7778 88.2223 26.4445 95.6112 33.1667C96.2223 33.7778 100.333 37.8889 106 41.8889C111.667 45.8889 119 49.7778 125.944 49.7778C127.611 49.7778 128.944 48.3889 128.944 46.6667C128.944 44.9445 127.611 43.5556 125.944 43.5556C121.556 43.5556 116.667 41.3889 112.278 38.6667C108.111 36.1111 104.556 33.0556 102.278 31.0556C116.667 19.8334 139.333 20.3334 151.722 32.7222C156.889 37.8334 159.833 46.6667 160.944 56.5C162.111 66.3333 161.444 77.1667 159.444 86.2778L159.833 86.3889V86.3333ZM116.389 117.389L81.2223 129.389L78.0556 113.278C84.0556 113.889 90.6112 114.222 97.6112 114.222C104.611 114.222 111.167 113.889 117.167 113.278L116.389 117.389ZM122.667 121.722C122.667 121.722 123.111 121.611 123.333 121.611C124.056 121.611 124.778 122 125.167 122.667C125.556 123.333 125.611 124.167 125.278 124.889C125 125.444 124.556 125.833 124 126L75 142.722C73.8889 143.056 72.7223 142.444 72.3334 141.278C71.9445 140.111 72.5556 138.833 73.6667 138.444L122.667 121.722Z" fill="#0F5E67"></path><path d="M61.6112 30.1667C59.9445 30.1667 58.6112 31.5556 58.6112 33.2778C58.6112 35 59.9445 36.3889 61.6112 36.3889C63.2778 36.3889 64.6112 35 64.6112 33.2778C64.6112 31.5556 63.2778 30.1667 61.6112 30.1667Z" fill="#0F5E67"></path></svg> 