<?xml version="1.0" encoding="UTF-8"?> <svg xmlns="http://www.w3.org/2000/svg" width="200" height="200" viewBox="0 0 200 200" fill="none"><path d="M179.043 138.042C178.154 137.764 177.265 137.708 176.32 137.819C175.432 137.931 174.543 138.264 173.765 138.764C172.987 139.264 172.32 139.986 171.876 140.764C171.376 141.597 171.098 142.486 171.043 143.431C169.654 159.431 156.598 166.931 144.154 167.264C131.598 167.542 117.932 160.819 115.709 145.042C115.376 142.875 114.265 140.931 112.598 139.486C110.932 138.042 108.82 137.319 106.654 137.319H94.376C94.8204 136.597 95.2649 135.931 95.7093 135.208C97.9871 131.986 99.876 128.542 101.32 124.931C103.654 118.931 103.82 112.319 101.765 106.208C99.7093 100.097 95.5982 94.9305 90.0982 91.5417C81.6538 86.5417 68.876 85.7083 57.1538 97.2639C45.4316 85.7083 32.5982 86.5417 24.2093 91.5417C18.7093 94.875 14.5982 100.097 12.5427 106.208C10.4871 112.319 10.6538 118.931 12.9871 124.931L13.2093 124.819L12.9316 124.931C14.4316 128.542 16.3204 131.986 18.5982 135.208C19.3204 136.319 19.9871 137.375 20.6538 138.486C17.876 139.542 15.4871 141.375 13.8204 143.819C12.6538 145.486 11.8204 147.431 11.376 149.431C10.9871 151.264 12.5427 152.708 14.3204 152.708C16.0982 152.708 17.4871 151.208 18.0427 149.653C18.3204 148.819 18.7649 148.042 19.3204 147.319C20.376 145.931 21.876 144.931 23.5982 144.375C23.876 145.153 24.1538 145.931 24.3204 146.764C24.6538 148.542 24.8204 150.375 24.8204 152.208C24.8204 154.653 25.0982 157.097 25.6538 159.486C26.7649 163.653 28.5427 166.931 30.9316 169.153C33.3204 171.375 36.2649 172.542 39.6538 172.431C44.9316 172.319 48.2093 169.708 50.4316 166.208C52.5982 162.708 53.7093 158.375 54.6538 154.764C54.8204 154.097 54.9871 153.319 55.1538 152.486C55.3204 151.653 55.5427 150.819 55.7649 150.042C55.9871 149.264 56.2093 148.597 56.4871 148.097C56.5982 147.875 56.7649 147.708 56.876 147.597C56.9871 147.486 57.0982 147.431 57.1538 147.431C57.2093 147.431 57.3204 147.431 57.4316 147.597C57.5427 147.708 57.6538 147.875 57.8204 148.097C58.0982 148.597 58.3204 149.264 58.5427 150.042C58.7649 150.819 58.9316 151.653 59.1538 152.486C59.3204 153.319 59.4871 154.097 59.6538 154.764C60.5982 158.375 61.7093 162.764 63.876 166.208C66.0982 169.708 69.376 172.319 74.6538 172.431C78.0427 172.542 80.9871 171.375 83.376 169.153C85.7649 166.931 87.5427 163.597 88.6538 159.431C89.2093 157.042 89.4871 154.597 89.4871 152.153C89.4871 150.319 89.6538 148.486 89.9871 146.708C90.2093 145.708 90.5427 144.764 90.876 143.819H106.598C107.209 143.819 107.82 143.986 108.32 144.431C108.82 144.819 109.098 145.375 109.209 145.986C111.987 165.653 129.265 174.097 144.209 173.764C159.32 173.375 175.376 164.153 177.209 144.431C178.82 145.042 180.209 146.042 181.209 147.375C181.709 148.042 182.098 148.819 182.376 149.597C182.932 151.208 184.265 152.708 186.098 152.708C187.932 152.708 189.376 151.264 189.043 149.431C188.598 147.319 187.765 145.319 186.432 143.542C184.543 140.986 181.876 139.042 178.876 138.042H179.043ZM84.0427 145.319H83.7649C83.3204 147.431 83.0982 149.653 83.0982 151.875C83.0982 153.819 82.876 155.819 82.4871 157.708C81.9871 159.597 81.2093 161.708 79.9316 163.264C78.7093 164.819 77.0982 165.875 74.876 165.819C73.5427 165.819 72.4871 165.431 71.5982 164.875C70.7093 164.264 69.9316 163.431 69.2649 162.319C67.9316 160.097 67.0427 156.931 66.0427 153.042V152.931C65.2649 150.042 64.4871 146.875 63.1538 144.542C62.4871 143.375 61.6538 142.375 60.6538 141.653C59.5982 140.986 58.376 140.597 56.9316 140.708C54.1538 140.875 52.4316 142.597 51.2093 144.931C49.9871 147.264 49.2649 150.264 48.5427 153.042C47.5427 156.931 46.6538 160.097 45.3204 162.319C44.6538 163.431 43.876 164.264 42.9871 164.875C42.0982 165.486 40.9871 165.819 39.7093 165.819C37.4871 165.931 35.8204 164.875 34.6538 163.264C33.4316 161.708 32.6538 159.597 32.1538 157.653C31.7093 155.708 31.5427 153.764 31.5427 151.819C31.5427 149.597 31.3204 147.375 30.876 145.208C29.5427 140.319 27.2649 135.708 24.2649 131.597C22.2649 128.764 20.5982 125.764 19.2649 122.597C17.4316 118.042 17.2649 112.986 18.8204 108.264C20.376 103.597 23.5427 99.6528 27.7093 97.0417C32.4871 94.2639 37.2093 93.7083 41.7649 94.9861C46.3204 96.2639 50.6538 99.3194 54.6538 103.764C55.5982 106.375 57.3204 108.597 59.6538 110.097C61.9871 111.597 64.7649 112.319 67.4871 112.097C68.3204 112.097 69.1538 111.764 69.7649 111.153C70.376 110.542 70.7093 109.708 70.7093 108.875C70.7093 108.042 70.376 107.208 69.7649 106.597C69.1538 105.986 68.3204 105.653 67.4871 105.653C66.2093 105.875 64.9316 105.653 63.8204 105.042C62.7649 104.486 61.876 103.597 61.3204 102.486C65.3204 98.375 69.6538 95.8194 74.0427 94.875C78.4871 93.9306 82.9316 94.6528 87.0427 97.0972C91.2093 99.6528 94.376 103.653 95.9316 108.319C97.4871 112.986 97.3204 118.042 95.5427 122.597C94.2093 125.764 92.5427 128.819 90.5427 131.597C87.5427 135.708 85.3204 140.264 83.9316 145.153H84.2093L84.0427 145.319Z" fill="#0F5E67"></path><path d="M143.265 152.153C141.487 152.153 140.043 153.597 140.043 155.375C140.043 157.153 141.487 158.597 143.265 158.597C145.043 158.597 146.487 157.153 146.487 155.375C146.487 153.597 145.043 152.153 143.265 152.153Z" fill="#0F5E67"></path><path d="M146.487 127.653L149.82 130.986L149.987 130.819L149.82 131.042C150.432 131.653 151.265 131.931 152.098 131.931C152.932 131.931 153.765 131.597 154.376 130.986C154.987 130.375 155.32 129.597 155.32 128.708C155.32 127.875 154.987 127.042 154.432 126.431L145.543 117.542C144.932 116.931 144.098 116.597 143.265 116.597C142.432 116.597 141.598 116.931 140.987 117.542L132.098 126.431C131.487 127.042 131.209 127.875 131.209 128.708C131.209 129.542 131.543 130.375 132.154 130.986C132.765 131.597 133.543 131.931 134.432 131.931C135.265 131.931 136.098 131.597 136.709 131.042L140.043 127.708V143.597C140.043 144.431 140.376 145.264 140.987 145.875C141.598 146.486 142.432 146.819 143.265 146.819C144.098 146.819 144.932 146.486 145.543 145.875C146.154 145.264 146.487 144.431 146.487 143.597V127.653Z" fill="#0F5E67"></path><path d="M99.4871 65.5972L99.2093 65.7083C100.709 69.3194 102.598 72.7639 104.876 75.9861C107.432 79.4305 109.376 83.3194 110.598 87.4306C110.932 89.2083 111.098 91.0417 111.098 92.875C111.098 95.3194 111.376 97.7639 111.932 100.153C113.043 104.319 114.82 107.597 117.154 109.819C119.543 112.042 122.487 113.208 125.932 113.153C131.209 113.042 134.487 110.431 136.709 106.931C138.876 103.431 139.987 99.0972 140.932 95.4861C141.098 94.8194 141.265 94.0417 141.432 93.2083C141.598 92.375 141.82 91.5417 142.043 90.7639C142.265 89.9861 142.487 89.3194 142.765 88.8194C142.876 88.5972 143.043 88.4305 143.154 88.3194C143.265 88.2083 143.376 88.1528 143.432 88.1528C143.487 88.1528 143.598 88.1528 143.709 88.3194C143.82 88.4305 143.932 88.5972 144.098 88.8194C144.376 89.3194 144.598 89.9861 144.82 90.7639C145.043 91.5417 145.209 92.375 145.432 93.2083C145.598 94.0417 145.765 94.8194 145.932 95.4861C146.876 99.0972 147.987 103.486 150.154 106.931C152.376 110.431 155.654 113.042 160.932 113.153C164.32 113.208 167.265 112.097 169.654 109.875C172.043 107.653 173.82 104.375 174.932 100.208C175.487 97.8194 175.765 95.375 175.765 92.9305C175.765 91.0972 175.932 89.3194 176.265 87.4861C177.487 83.375 179.376 79.4861 181.987 76.0417C184.265 72.8194 186.154 69.375 187.654 65.7639C189.987 59.7639 190.154 53.1528 188.098 47.0417C186.043 40.9305 181.932 35.7639 176.432 32.375C167.987 27.375 155.209 26.5417 143.487 38.0972C131.765 26.5417 118.932 27.375 110.543 32.375C105.043 35.7083 100.932 40.9305 98.876 47.0417C96.8204 53.1528 96.9871 59.7639 99.3204 65.7639L99.5982 65.6528L99.4871 65.5972ZM169.543 92.6528H169.265C169.265 94.5972 169.043 96.5972 168.654 98.4861C168.154 100.375 167.376 102.486 166.098 104.042C164.876 105.597 163.265 106.653 161.043 106.597C159.709 106.597 158.654 106.208 157.765 105.653C156.876 105.042 156.098 104.208 155.432 103.097C154.098 100.875 153.209 97.7083 152.209 93.8194C151.487 90.9305 150.709 87.875 149.432 85.5417C148.154 83.1528 146.32 81.4861 143.432 81.4861C140.543 81.4861 138.709 83.1528 137.432 85.5417C136.154 87.875 135.376 90.9861 134.654 93.8194C133.654 97.7083 132.765 100.875 131.432 103.097C130.765 104.208 129.987 105.042 129.098 105.653C128.209 106.264 127.098 106.597 125.82 106.653C123.598 106.708 121.987 105.653 120.765 104.097C119.543 102.542 118.765 100.431 118.265 98.5417C117.876 96.5972 117.654 94.6528 117.654 92.7083C117.654 90.4861 117.432 88.2639 116.987 86.0972C115.654 81.2083 113.376 76.5972 110.376 72.4861C108.376 69.6528 106.709 66.6528 105.376 63.4861C103.543 58.9305 103.432 53.875 104.987 49.2083C106.543 44.5417 109.709 40.5972 113.876 37.9861C118.209 35.4305 122.876 34.7639 127.487 35.875C132.098 37.0417 136.654 39.9861 140.82 44.6528C141.765 47.2639 143.487 49.4861 145.82 50.9861C148.154 52.4861 150.932 53.2083 153.654 52.9861C154.487 52.9861 155.32 52.6528 155.932 52.0417C156.543 51.4305 156.876 50.5972 156.876 49.7639C156.876 48.9305 156.543 48.0972 155.932 47.4861C155.32 46.875 154.487 46.5417 153.654 46.5417C152.376 46.7639 151.098 46.5417 149.987 45.9305C148.932 45.375 148.043 44.4861 147.487 43.375C151.487 39.2639 155.82 36.7083 160.209 35.7639C164.654 34.8194 169.098 35.5417 173.209 37.9861C177.376 40.5417 180.543 44.5417 182.098 49.2083C183.654 53.875 183.487 58.9305 181.709 63.4861C180.376 66.6528 178.709 69.7083 176.709 72.4861C173.709 76.5972 171.432 81.1528 170.098 86.0417C169.654 88.2639 169.432 90.4861 169.432 92.7083H169.709L169.543 92.6528Z" fill="#0F5E67"></path></svg> 