<svg id="Icons" height="512" viewBox="0 0 60 60" width="512" xmlns="http://www.w3.org/2000/svg"><path d="m47.221 23.34-.35 1.13a46.4 46.4 0 0 1 -1.871 4.53s-.79 1.6-1.52 2.8a6.935 6.935 0 0 0 -1.15 3.49c0 2.85-.47 23.71-6.12 23.71-3.619 0-5.21-5.69-5.21-11.38v-4.74c0-.05-.01-3.88-3-3.88s-3 3.83-3 3.88v4.74c0 5.69-1.589 11.38-5.209 11.38-5.65 0-6.12-20.86-6.12-23.71a6.935 6.935 0 0 0 -1.15-3.49c-.73-1.2-1.521-2.8-1.521-2.8a46.4 46.4 0 0 1 -1.87-4.53l-.48-1.55c-3.3-10.5 6.5-20.6 16.9-17.22a.142.142 0 0 0 .06.02 7.518 7.518 0 0 0 4.78 0 .142.142 0 0 0 .06-.02 13.5 13.5 0 0 1 2.66-.58c-.69 3.43-.99 9 2.89 12.88 3.141 3.14 7.641 4.63 11.221 5.34z" fill="#f5f5f5"/><path d="m25 39c-2.99 0-3 3.83-3 3.88v4.74c0 4.742-1.109 9.472-3.573 10.92a2.35 2.35 0 0 0 1.363.46c3.621 0 5.21-5.69 5.21-11.38v-4.74c0-.04.012-2.444 1.5-3.445a2.6 2.6 0 0 0 -1.5-.435z" fill="#cfd8dc"/><path d="m36 18c-3.88-3.88-3.58-9.45-2.89-12.88a13.5 13.5 0 0 0 -2.66.58.142.142 0 0 1 -.06.02c-.135.045-.273.064-.409.1-.581 3.453-.606 8.554 3.019 12.18 3.14 3.14 7.64 4.63 11.22 5.34l-.35 1.13a46.4 46.4 0 0 1 -1.87 4.53s-.79 1.6-1.52 2.8a6.935 6.935 0 0 0 -1.15 3.49c0 2.6-.394 20.2-4.757 23.25a3.174 3.174 0 0 0 1.637.46c5.65 0 6.12-20.86 6.12-23.71a6.935 6.935 0 0 1 1.15-3.49c.731-1.2 1.52-2.8 1.52-2.8a46.4 46.4 0 0 0 1.87-4.53l.35-1.13c-3.579-.71-8.079-2.2-11.22-5.34z" fill="#cfd8dc"/><path d="m51.661 19.883-.13.42c-3.58-.71-8.08-2.2-11.22-5.34-3.88-3.88-3.58-9.45-2.89-12.88 9.33-1.06 17.26 8.2 14.24 17.8z" fill="#f5f5f5"/><path d="m37.421 2.083v.016a13.756 13.756 0 0 1 11.314 17.519c.965.285 1.909.509 2.8.685l.13-.42c3.016-9.6-4.914-18.86-14.244-17.8z" fill="#cfd8dc"/><path d="m48.08 22.828a1 1 0 0 0 -.664-.469c-3.21-.637-7.674-2.032-10.708-5.066-3.458-3.459-3.332-8.421-2.617-11.976a1 1 0 0 0 -1.091-1.191 14.483 14.483 0 0 0 -2.858.624l-.028.009-.038.012a6.5 6.5 0 0 1 -4.148 0l-.037-.012-.03-.01a14.04 14.04 0 0 0 -14.44 3.482 14.782 14.782 0 0 0 -3.721 14.985l.481 1.554a32.011 32.011 0 0 0 1.428 3.551c.164.365.326.723.5 1.122.033.067.818 1.653 1.565 2.88a6.061 6.061 0 0 1 1 2.967c0 2.529.2 24.71 7.12 24.71 4.581 0 6.206-6.669 6.206-12.38v-4.739c0-.3.069-2.881 2-2.881s2 2.586 2 2.88v4.74c0 5.711 1.627 12.38 6.211 12.38 6.92 0 7.12-22.181 7.12-24.71a6.064 6.064 0 0 1 1-2.97c.745-1.224 1.53-2.81 1.584-2.923.152-.353.314-.711.478-1.076a31.963 31.963 0 0 0 1.429-3.555l.35-1.13a1 1 0 0 0 -.092-.808zm-2.163 1.341a30.16 30.16 0 0 1 -1.344 3.331c-.168.374-.333.741-.469 1.057-.007.016-.778 1.574-1.475 2.72a7.757 7.757 0 0 0 -1.3 4.013c0 9.159-1.627 22.71-5.12 22.71-2.891 0-4.209-5.381-4.209-10.38v-4.74c0-1.688-.836-4.88-4-4.88s-4 3.192-4 4.88v4.74c0 5-1.317 10.38-4.21 10.38-3.493 0-5.12-13.551-5.12-22.71a7.754 7.754 0 0 0 -1.3-4.01c-.691-1.136-1.455-2.677-1.457-2.677-.156-.362-.321-.729-.489-1.1a30.275 30.275 0 0 1 -1.343-3.326l-.476-1.557a12.788 12.788 0 0 1 3.224-12.967 12.062 12.062 0 0 1 12.413-3l.052.017a8.488 8.488 0 0 0 5.414 0l.053-.017c.373-.122.751-.226 1.131-.312-.468 3.455-.342 8.624 3.4 12.368 3.05 3.05 7.292 4.6 10.649 5.38z"/><path d="m21.431 8.036a10.444 10.444 0 0 0 -8.331 4.353 10.714 10.714 0 0 0 -1.585 9.644l.474 1.531a1 1 0 0 0 .955.706 1.013 1.013 0 0 0 .3-.045 1 1 0 0 0 .66-1.251l-.475-1.536a8.733 8.733 0 0 1 1.287-7.865 8.437 8.437 0 0 1 6.716-3.537 1 1 0 0 0 0-2z"/><path d="m55.768 1.36a1 1 0 0 0 -1.408-.128l-5.15 4.292a14.209 14.209 0 0 0 -11.9-4.435 1 1 0 0 0 -.868.8c-.666 3.299-1.142 9.481 3.158 13.781 3.389 3.389 8.25 4.924 11.732 5.614a1 1 0 0 0 1.15-.685 14.8 14.8 0 0 0 -1.995-13.54l5.153-4.291a1 1 0 0 0 .128-1.408zm-4.929 17.773c-3.108-.709-7.057-2.113-9.821-4.877-3.226-3.226-3.333-7.756-2.752-11.239a12.206 12.206 0 0 1 9.393 3.8l-3.659 3.048v-2.865a1 1 0 0 0 -2 0v5a1.009 1.009 0 0 0 1 1h5a1 1 0 0 0 0-2h-2.238l3.171-2.643a12.741 12.741 0 0 1 1.906 10.776z"/></svg>