<svg height="512pt" viewBox="0 -116 512.0558 512" width="512pt" xmlns="http://www.w3.org/2000/svg"><path d="m503.496094 62.085938v98.558593l-25.601563-.425781-469.332031-8.109375v-90.023437c.054688-21.914063 16.679688-40.234376 38.484375-42.414063 19.796875-2.132813 39.621094-3.921875 59.476563-5.375 7.765624-.683594 15.53125-1.195313 23.296874-1.621094 37.71875-2.472656 75.605469-3.839843 113.40625-3.925781 1.453126-.085938 2.816407-.085938 4.269532-.085938 5.714844-.167968 11.347656-.167968 17.066406 0 39.253906.085938 78.476562 1.421876 117.671875 4.011719 7.765625.425781 15.53125.9375 23.296875 1.621094h.085938c19.796874 1.453125 39.59375 3.242187 59.390624 5.375 21.804688 2.179687 38.429688 20.5 38.488282 42.414063zm0 0" fill="#bb193b"/><path d="m477.894531 62.085938v98.132812l-469.332031-8.109375v-90.023437c.054688-21.914063 16.679688-40.234376 38.484375-42.414063 19.796875-2.132813 39.621094-3.921875 59.476563-5.375 7.765624-.683594 15.53125-1.195313 23.296874-1.621094 37.71875-2.472656 75.605469-3.839843 113.40625-3.925781 37.804688.085938 75.691407 1.453125 113.410157 3.925781 7.765625.425781 15.53125.9375 23.296875 1.621094h.082031c19.800781 1.453125 39.597656 3.242187 59.394531 5.375 21.804688 2.179687 38.425782 20.5 38.484375 42.414063zm0 0" fill="#ef314c"/><g fill="#cfd8dc"><path d="m256.027344 154.414062v88.917969c-.015625 7.515625-3.023438 14.714844-8.351563 20.011719-5.332031 5.300781-12.546875 8.261719-20.0625 8.234375h-71.167969c-7.515624.027344-14.734374-2.933594-20.0625-8.234375-5.332031-5.296875-8.335937-12.496094-8.355468-20.011719v-101.71875c-1.320313-27.175781 17.4375-51.230469 44.117187-56.574219 4.21875-.808593 8.503907-1.210937 12.800781-1.195312 18.828126-.050781 36.90625 7.375 50.261719 20.652344 13.351563 13.175781 20.851563 31.160156 20.820313 49.917968zm0 0"/><path d="m128.027344 151.941406v73.8125c-.023438 7.695313-3.101563 15.066406-8.558594 20.492188-5.457031 5.421875-12.84375 8.457031-20.539062 8.433594h-61.269532c-7.695312.023437-15.082031-3.011719-20.539062-8.433594-5.457032-5.425782-8.539063-12.796875-8.558594-20.492188v-86.613281c-.820312-24.605469 16.621094-46.046875 40.875-50.261719 4.019531-.78125 8.105469-1.152344 12.199219-1.109375h1.707031c17.089844-.066406 33.503906 6.65625 45.632812 18.6875 12.128907 12.035157 18.984376 28.394531 19.050782 45.484375zm0 0"/><path d="m384.027344 141.613281v101.71875c-.015625 7.515625-3.023438 14.714844-8.351563 20.011719-5.332031 5.300781-12.546875 8.261719-20.0625 8.234375h-71.167969c-7.515624.027344-14.734374-2.933594-20.0625-8.234375-5.332031-5.296875-8.335937-12.496094-8.355468-20.011719v-88.917969c.070312-34.183593 24.621094-63.410156 58.285156-69.375 4.21875-.785156 8.503906-1.1875 12.796875-1.195312 42.667969 0 56.917969 33.878906 56.917969 57.769531zm0 0"/><path d="m503.496094 139.140625v86.613281c-.023438 7.695313-3.101563 15.066406-8.558594 20.492188-5.457031 5.421875-12.847656 8.457031-20.542969 8.433594h-61.269531c-7.691406.023437-15.082031-3.011719-20.539062-8.433594-5.457032-5.425782-8.535157-12.796875-8.558594-20.492188v-73.8125c.078125-31.074218 22.398437-57.632812 52.992187-63.0625 3.851563-.761718 7.765625-1.132812 11.691407-1.109375h1.707031c14.039062-.914062 27.808593 4.144531 37.917969 13.925781 10.109374 9.785157 15.613281 23.382813 15.160156 37.445313zm0 0"/></g><path d="m230.429688 154.414062v88.917969c-.019532 7.515625-3.023438 14.714844-8.355469 20.011719-5.328125 5.300781-12.546875 8.261719-20.0625 8.234375h-45.566407c-7.515624.027344-14.734374-2.933594-20.0625-8.234375-5.332031-5.296875-8.335937-12.496094-8.355468-20.011719v-101.71875c-1.320313-27.175781 17.4375-51.230469 44.117187-56.574219 33.660157 5.964844 58.214844 35.191407 58.285157 69.375zm0 0" fill="#f5f5f5"/><path d="m102.429688 151.941406v73.8125c-.023438 7.695313-3.101563 15.066406-8.558594 20.492188-5.457032 5.421875-12.847656 8.457031-20.542969 8.433594h-35.667969c-7.695312.023437-15.082031-3.011719-20.539062-8.433594-5.457032-5.425782-8.539063-12.796875-8.558594-20.492188v-86.613281c-.820312-24.605469 16.621094-46.046875 40.875-50.261719 30.59375 5.429688 52.910156 31.988282 52.992188 63.0625zm0 0" fill="#f5f5f5"/><path d="m358.429688 141.613281v101.71875c-.019532 7.515625-3.023438 14.714844-8.355469 20.011719-5.328125 5.300781-12.546875 8.261719-20.0625 8.234375h-45.566407c-7.515624.027344-14.734374-2.933594-20.0625-8.234375-5.332031-5.296875-8.335937-12.496094-8.355468-20.011719v-88.917969c.070312-34.183593 24.621094-63.410156 58.285156-69.375 26.675781 5.34375 45.433594 29.398438 44.117188 56.574219zm0 0" fill="#f5f5f5"/><path d="m477.894531 139.140625v86.613281c-.023437 7.695313-3.101562 15.066406-8.558593 20.492188-5.457032 5.421875-12.84375 8.457031-20.539063 8.433594h-35.671875c-7.691406.023437-15.082031-3.011719-20.539062-8.433594-5.457032-5.425782-8.535157-12.796875-8.558594-20.492188v-73.8125c.078125-31.074218 22.398437-57.632812 52.992187-63.0625 24.253907 4.214844 41.695313 25.65625 40.875 50.261719zm0 0" fill="#f5f5f5"/><path d="m227.585938 280.109375h-71.117188c-20.347656.039063-36.890625-16.402344-36.972656-36.75v-101.753906c0-31.929688 20.476562-66.292969 65.421875-66.292969 43.808593-.105469 79.4375 35.269531 79.644531 79.078125v88.96875c-.085938 20.347656-16.625 36.789063-36.976562 36.75zm-42.667969-187.730469c-38.175781 0-48.355469 30.941406-48.355469 49.226563v101.753906c.074219 10.925781 8.980469 19.730469 19.90625 19.683594h71.117188c10.929687.046875 19.832031-8.757813 19.910156-19.683594v-88.96875c-.199219-34.386719-28.191406-62.125-62.578125-62.011719zm0 0"/><path d="m98.914062 263.179688h-61.238281c-20.726562.058593-37.5781248-16.691407-37.6484372-37.417969v-86.636719c-.5039058-16.34375 5.8867182-32.140625 17.6093752-43.535156 11.722656-11.390625 27.699219-17.328125 44.019531-16.355469h1.707031c40.269531-.074219 73.011719 32.453125 73.199219 72.722656v73.804688c-.070312 20.726562-16.921875 37.476562-37.648438 37.417969zm-37.257812-166.875c-11.757812-.875-23.335938 3.296874-31.835938 11.464843-8.503906 8.171875-13.128906 19.570313-12.726562 31.355469v86.636719c.070312 11.300781 9.28125 20.410156 20.582031 20.351562h61.238281c11.300782.058594 20.511719-9.050781 20.582032-20.351562v-73.804688c-.179688-30.863281-25.304688-55.757812-56.167969-55.652343zm0 0"/><path d="m355.585938 280.109375h-71.117188c-20.347656.039063-36.890625-16.402344-36.972656-36.75v-88.96875c.207031-43.808594 35.832031-79.183594 79.640625-79.078125 44.945312 0 65.425781 34.363281 65.425781 66.292969v101.753906c-.085938 20.347656-16.625 36.789063-36.976562 36.75zm-28.449219-187.730469c-34.386719-.113281-62.378907 27.625-62.574219 62.011719v88.96875c.074219 10.925781 8.980469 19.730469 19.90625 19.683594h71.117188c10.929687.046875 19.832031-8.757813 19.910156-19.683594v-101.753906c0-18.285157-10.183594-49.226563-48.359375-49.226563zm0 0"/><path d="m474.378906 263.179688h-61.234375c-20.726562.058593-37.578125-16.691407-37.648437-37.417969v-73.804688c.1875-40.285156 32.945312-72.816406 73.230468-72.722656h1.707032c16.3125-.960937 32.28125 4.976563 43.996094 16.371094 11.71875 11.390625 18.105468 27.183593 17.597656 43.519531v86.636719c-.070313 20.726562-16.921875 37.476562-37.648438 37.417969zm-25.652344-166.875c-30.863281-.105469-55.988281 24.789062-56.164062 55.652343v73.804688c.070312 11.300781 9.28125 20.410156 20.582031 20.351562h61.234375c11.300782.058594 20.511719-9.050781 20.582032-20.351562v-86.636719c.402343-11.789062-4.222657-23.1875-12.726563-31.359375-8.503906-8.167969-20.082031-12.335937-31.84375-11.460937zm0 0"/><path d="m204.828125 228.910156h-25.601563c-9.425781 0-17.066406-7.640625-17.066406-17.066406v-51.199219c0-9.425781 7.640625-17.066406 17.066406-17.066406h25.601563c9.425781 0 17.066406 7.640625 17.066406 17.066406v51.199219c0 9.425781-7.640625 17.066406-17.066406 17.066406zm-25.601563-68.265625v51.199219h25.601563v-51.199219zm0 0"/><path d="m76.828125 220.378906h-25.601563c-9.425781 0-17.066406-7.640625-17.066406-17.066406v-51.203125c0-9.425781 7.640625-17.066406 17.066406-17.066406h25.601563c9.425781 0 17.066406 7.640625 17.066406 17.066406v51.203125c0 9.425781-7.640625 17.066406-17.066406 17.066406zm-25.601563-68.269531v51.203125h25.601563v-51.203125zm0 0"/><path d="m460.828125 220.378906h-25.601563c-9.425781 0-17.066406-7.640625-17.066406-17.066406v-51.203125c0-9.425781 7.640625-17.066406 17.066406-17.066406h25.601563c9.425781 0 17.066406 7.640625 17.066406 17.066406v51.203125c0 9.425781-7.640625 17.066406-17.066406 17.066406zm-25.601563-68.269531v51.203125h25.601563v-51.203125zm0 0"/><path d="m332.828125 228.910156h-25.601563c-9.425781 0-17.066406-7.640625-17.066406-17.066406v-51.199219c0-9.425781 7.640625-17.066406 17.066406-17.066406h25.601563c9.425781 0 17.066406 7.640625 17.066406 17.066406v51.199219c0 9.425781-7.640625 17.066406-17.066406 17.066406zm-25.601563-68.265625v51.199219h25.601563v-51.199219zm0 0"/><path d="m256.027344 194.777344c-178.199219 0-246.707032-16.613282-249.539063-17.324219-4.496093-1.203125-7.195312-5.792969-6.066406-10.308594 1.128906-4.519531 5.667969-7.296875 10.203125-6.246093.675781.164062 69.839844 16.8125 245.402344 16.8125 175.566406 0 244.726562-16.648438 245.410156-16.8125 4.511719-.988282 8.996094 1.792968 10.109375 6.273437 1.117187 4.484375-1.535156 9.042969-5.988281 10.28125-2.824219.710937-71.328125 17.324219-249.53125 17.324219zm0 0"/><path d="m128.027344 66.777344c-4.710938 0-8.53125-3.820313-8.53125-8.53125 0-17.582032-4.832032-34.136719-8.535156-34.136719-4.710938 0-8.53125-3.820313-8.53125-8.53125 0-4.714844 3.820312-8.535156 8.53125-8.535156 24.363281 0 25.601562 42.667969 25.601562 51.203125 0 4.710937-3.820312 8.53125-8.535156 8.53125zm0 0"/><path d="m384.027344 66.777344c-4.710938 0-8.53125-3.820313-8.53125-8.53125 0-8.535156 1.234375-51.203125 25.597656-51.203125 4.714844 0 8.535156 3.820312 8.535156 8.535156 0 4.710937-3.820312 8.53125-8.535156 8.53125-3.703125 0-8.53125 16.554687-8.53125 34.136719 0 4.710937-3.820312 8.53125-8.535156 8.53125zm0 0"/><path d="m256.027344 75.3125c-4.710938 0-8.53125-3.820312-8.53125-8.535156v-51.199219c0-4.714844 3.820312-8.535156 8.53125-8.535156 4.714844 0 8.535156 3.820312 8.535156 8.535156v51.199219c0 4.714844-3.820312 8.535156-8.535156 8.535156zm0 0"/><path d="m503.496094 169.175781c-4.714844 0-8.535156-3.820312-8.535156-8.53125v-98.527343c-.042969-17.554688-13.351563-32.238282-30.820313-33.996094-138.351563-14.703125-277.867187-14.703125-416.214844 0-17.472656 1.753906-30.789062 16.4375-30.832031 33.996094v89.992187c0 4.714844-3.820312 8.535156-8.53125 8.535156-4.714844 0-8.5351562-3.820312-8.5351562-8.535156v-89.992187c.0273437-26.289063 19.9257812-48.300782 46.0820312-50.96875 139.550781-14.828126 280.285156-14.828126 419.839844 0 26.152343 2.667968 46.050781 24.679687 46.078125 50.96875v98.527343c0 4.710938-3.820313 8.53125-8.53125 8.53125zm0 0"/></svg>