<svg clip-rule="evenodd" fill-rule="evenodd" height="512" image-rendering="optimizeQuality" shape-rendering="geometricPrecision" text-rendering="geometricPrecision" viewBox="0 0 2833 2833" width="512" xmlns="http://www.w3.org/2000/svg"><g id="Layer_x0020_1"><circle cx="1417" cy="1417" fill="#ffbe00" r="1417"/><path d="m1177 2270h-1c-60-1-125-71-205-222v-1c-140-266-118-456-102-595 9-75 16-135-8-178-12-22-23-41-34-60-50-84-88-151-86-308 0-84 18-151 55-205 31-47 78-83 142-112 73-38 147-28 216-6l144 215-148 81c-6 3-10 9-11 15-2 6-1 13 3 18l74 113-60 81c-8 10-6 25 5 32 4 3 9 5 14 5 7 0 14-3 18-9l70-94c6-7 6-18 1-26l-69-106 127-69 39 78c2 6 8 10 14 12l103 31v113c0 13 10 23 23 23s23-10 24-23v-130c0-11-7-20-17-23l-110-33-46-91c-1-3-2-5-4-6l-121-181 3 1c36 13 70 26 103 34 110 25 176-1 252-30 38-15 77-30 124-40 126-27 233 6 302 90 47 57 74 134 80 223 6 86-10 176-45 258-26 63-46 95-61 116l-243-8c-2 0-5 0-7 1l-99 2-80-67c-7-6-17-8-25-4l-117 57c-11 6-16 20-10 31 5 12 19 17 31 11l103-50 75 63c4 4 9 6 15 6l90-2 3 120-128-8c-10-1-19 5-23 13l-43 94c-5 11 0 25 11 31 3 1 6 2 10 2 8 0 17-5 21-14l36-79 138 9c6 1 13-2 17-6 5-5 8-11 8-18l-3-145 196 7c-4 24 0 66 13 173 31 252-80 613-227 744-39 36-80 50-117 38-34-11-58-45-66-91-7-38-3-91 0-143 2-27 3-51 3-72 7-277-70-380-138-386-63-4-138 71-155 206-5 35-4 111-4 184 2 152 1 226-16 255-25 45-55 55-77 55z" fill="#fdfdfd"/></g></svg>