<svg height="496pt" viewBox="0 -32 496 496" width="496pt" xmlns="http://www.w3.org/2000/svg"><g fill="#f0bc5e"><path d="m168 248v5.625c0-1.960938.34375-3.816406.832031-5.625zm0 0"/><path d="m247.160156 248c.496094 1.808594.839844 3.664062.839844 5.625 0-1.960938.34375-3.816406.832031-5.625zm0 0"/><path d="m494.550781 347.265625-30.902343-99.265625h-7.648438v32c0 17.671875-14.328125 32-32 32s-32-14.328125-32-32c0 17.671875-14.328125 32-32 32s-32-14.328125-32-32v-26.375c0 1.574219-.175781 3.152344-.519531 4.695312l-10.28125 46.246094c-3.039063 13.691406-15.175781 23.433594-29.199219 23.433594s-26.167969-9.742188-29.199219-23.433594l-10.28125-46.246094c-.351562-1.542968-.519531-3.121093-.519531-4.695312 0 1.574219-.175781 3.152344-.519531 4.695312l-10.28125 46.246094c-3.039063 13.691406-15.175781 23.433594-29.199219 23.433594s-26.167969-9.742188-29.199219-23.433594l-10.28125-46.246094c-.351562-1.542968-.519531-3.121093-.519531-4.695312v26.375c0 17.671875-14.328125 32-32 32s-32-14.328125-32-32c0 17.671875-14.328125 32-32 32s-32-14.328125-32-32v-32h-7.648438l-30.902343 99.265625c-.96875 3.125-1.449219 5.773437-1.449219 9.039063 0 15.101562 10.441406 27.976562 25 31.519531 10.34375 5.671875 86.160156 44.320312 223 44.320312 136.824219 0 212.640625-38.871093 222.992188-44.542969 14.566406-3.539062 25.007812-16.152343 25.007812-31.257812 0-3.265625-.488281-5.953125-1.449219-9.078125zm0 0"/><path d="m327.160156 248c.496094 1.808594.839844 3.664062.839844 5.625v-5.625zm0 0"/><path d="m248.832031 184c-.488281-1.808594-.832031-3.664062-.832031-5.625 0 1.960938-.34375 3.824219-.839844 5.625zm0 0"/><path d="m328 184v-5.625c0 1.960938-.34375 3.824219-.839844 5.625zm0 0"/><path d="m470.992188 44.472656c-10.351563-5.671875-86.167969-44.472656-222.992188-44.472656-136.839844 0-212.65625 38.800781-223 44.472656-14.558594 3.542969-25 16.710938-25 31.808594 0 3.269531.480469 5.335938 1.449219 8.445312l30.902343 99.273438h7.648438v-32c0-17.671875 14.328125-32 32-32s32 14.328125 32 32c0-17.671875 14.328125-32 32-32s32 14.328125 32 32v26.375c0-1.574219.167969-3.152344.511719-4.695312l10.28125-46.253907c3.039062-13.691406 15.183593-23.425781 29.207031-23.425781s26.160156 9.734375 29.199219 23.433594l10.28125 46.253906c.34375 1.535156.519531 3.113281.519531 4.6875 0-1.574219.167969-3.152344.511719-4.695312l10.28125-46.253907c3.039062-13.691406 15.183593-23.425781 29.207031-23.425781s26.160156 9.734375 29.199219 23.433594l10.28125 46.253906c.34375 1.535156.519531 3.113281.519531 4.6875v-26.375c0-17.671875 14.328125-32 32-32s32 14.328125 32 32c0-17.671875 14.328125-32 32-32s32 14.328125 32 32v32h7.648438l30.902343-99.265625c.960938-3.117187 1.449219-5.765625 1.449219-9.039063 0-15.101562-10.441406-27.679687-25.007812-31.222656zm0 0"/><path d="m168.832031 184c-.488281-1.808594-.832031-3.664062-.832031-5.625v5.625zm0 0"/></g><path d="m440 224h-32c-6.167969 0-11.742188 2.40625-16 6.238281-4.257812-3.839843-9.832031-6.238281-16-6.238281h-32c-7.007812 0-13.273438 3.070312-17.664062 7.878906-5.273438-4.847656-12.246094-7.878906-19.960938-7.878906h-36.75c-8.554688 0-16.21875 3.703125-21.625 9.519531-5.414062-5.816406-13.070312-9.519531-21.625-9.519531h-36.75c-7.714844 0-14.6875 3.03125-19.96875 7.878906-4.382812-4.808594-10.648438-7.878906-17.65625-7.878906h-32c-6.167969 0-11.742188 2.40625-16 6.238281-4.257812-3.839843-9.832031-6.238281-16-6.238281h-32c-13.230469 0-24 10.769531-24 24v32c0 22.054688 17.945312 40 40 40 13.128906 0 24.703125-6.449219 32-16.246094 7.296875 9.796875 18.871094 16.246094 32 16.246094 14.289062 0 26.753906-7.59375 33.832031-18.886719l1.152344 5.191407c3.878906 17.488281 19.105469 29.695312 37.015625 29.695312s33.136719-12.207031 37.015625-29.695312l2.984375-13.425782 2.984375 13.425782c3.878906 17.488281 19.105469 29.695312 37.015625 29.695312s33.136719-12.207031 37.015625-29.695312l1.152344-5.191407c7.078125 11.292969 19.542969 18.886719 33.832031 18.886719 13.128906 0 24.703125-6.449219 32-16.246094 7.296875 9.796875 18.871094 16.246094 32 16.246094 22.054688 0 40-17.945312 40-40v-32c0-13.230469-10.769531-24-24-24zm-368 80c-13.230469 0-24-10.769531-24-24v-32c0-4.414062 3.585938-8 8-8h32c4.414062 0 8 3.585938 8 8v32c0 13.230469-10.769531 24-24 24zm88-24c0 13.230469-10.769531 24-24 24s-24-10.769531-24-24v-32c0-4.414062 3.585938-8 8-8h32c4.414062 0 8 3.585938 8 8zm79.671875-23.414062-10.28125 46.246093c-2.238281 10.113281-11.039063 17.167969-21.390625 17.167969s-19.152344-7.054688-21.390625-17.167969l-10.28125-46.246093c-.214844-.96875-.328125-1.96875-.328125-2.960938 0-7.511719 6.113281-13.625 13.625-13.625h36.75c7.511719 0 13.625 6.113281 13.625 13.625 0 .992188-.113281 1.992188-.328125 2.960938zm69.71875 46.246093c-2.238281 10.113281-11.039063 17.167969-21.390625 17.167969s-19.152344-7.054688-21.390625-17.167969l-10.28125-46.246093c-.214844-.96875-.328125-1.96875-.328125-2.960938 0-7.511719 6.113281-13.625 13.625-13.625h36.75c7.511719 0 13.625 6.113281 13.625 13.625 0 .992188-.113281 1.992188-.328125 2.960938zm50.609375 1.167969c-13.230469 0-24-10.769531-24-24v-32c0-4.414062 3.585938-8 8-8h32c4.414062 0 8 3.585938 8 8v32c0 13.230469-10.769531 24-24 24zm88-24c0 13.230469-10.769531 24-24 24s-24-10.769531-24-24v-32c0-4.414062 3.585938-8 8-8h32c4.414062 0 8 3.585938 8 8zm0 0"/><path d="m231.800781 399.808594c5.289063.128906 10.695313.191406 16.199219.191406v-16c-5.367188 0-10.632812-.0625-15.800781-.191406zm0 0"/><path d="m52.832031 365.34375c25.246094 10.871094 79.960938 29.734375 162.769531 33.855469l.796876-15.984375c-80.292969-3.992188-132.972657-22.117188-157.230469-32.558594zm0 0"/><path d="m424 112c-13.128906 0-24.703125 6.449219-32 16.246094-7.296875-9.796875-18.871094-16.246094-32-16.246094-14.289062 0-26.753906 7.59375-33.832031 18.886719l-1.152344-5.191407c-3.878906-17.488281-19.105469-29.695312-37.015625-29.695312s-33.136719 12.207031-37.015625 29.695312l-2.984375 13.433594-2.984375-13.433594c-3.878906-17.488281-19.105469-29.695312-37.015625-29.695312s-33.136719 12.207031-37.015625 29.695312l-1.152344 5.191407c-7.078125-11.292969-19.542969-18.886719-33.832031-18.886719-13.128906 0-24.703125 6.449219-32 16.246094-7.296875-9.796875-18.871094-16.246094-32-16.246094-22.054688 0-40 17.945312-40 40v32c0 13.230469 10.769531 24 24 24h32c6.167969 0 11.742188-2.40625 16-6.238281 4.257812 3.839843 9.832031 6.238281 16 6.238281h32c7.007812 0 13.273438-3.070312 17.664062-7.878906 5.273438 4.847656 12.246094 7.878906 19.960938 7.878906h36.75c8.554688 0 16.21875-3.703125 21.625-9.519531 5.414062 5.816406 13.070312 9.519531 21.625 9.519531h36.75c7.714844 0 14.6875-3.03125 19.96875-7.878906 4.382812 4.808594 10.648438 7.878906 17.65625 7.878906h32c6.167969 0 11.742188-2.40625 16-6.238281 4.257812 3.839843 9.832031 6.238281 16 6.238281h32c13.230469 0 24-10.769531 24-24v-32c0-22.054688-17.945312-40-40-40zm-336 80h-32c-4.414062 0-8-3.59375-8-8v-32c0-13.230469 10.769531-24 24-24s24 10.769531 24 24v32c0 4.40625-3.585938 8-8 8zm72-8c0 4.40625-3.585938 8-8 8h-32c-4.414062 0-8-3.59375-8-8v-32c0-13.230469 10.769531-24 24-24s24 10.769531 24 24zm66.375 8h-36.75c-7.511719 0-13.625-6.113281-13.625-13.625 0-1 .113281-1.992188.328125-2.960938l10.28125-46.253906c2.238281-10.105468 11.039063-17.160156 21.390625-17.160156s19.152344 7.054688 21.390625 17.167969l10.289063 46.265625c.207031.957031.320312 1.949218.320312 2.949218 0 7.503907-6.113281 13.617188-13.625 13.617188zm80 0h-36.75c-7.511719 0-13.625-6.113281-13.625-13.625 0-1 .113281-1.992188.328125-2.960938l10.28125-46.253906c2.238281-10.105468 11.039063-17.160156 21.390625-17.160156s19.152344 7.054688 21.390625 17.167969l10.289063 46.265625c.207031.957031.320312 1.949218.320312 2.949218 0 7.503907-6.113281 13.617188-13.625 13.617188zm69.625 0h-32c-4.414062 0-8-3.59375-8-8v-32c0-13.230469 10.769531-24 24-24s24 10.769531 24 24v32c0 4.40625-3.585938 8-8 8zm72-8c0 4.40625-3.585938 8-8 8h-32c-4.414062 0-8-3.59375-8-8v-32c0-13.230469 10.769531-24 24-24s24 10.769531 24 24zm0 0"/><path d="m264.191406 32.199219c-5.289062-.136719-10.6875-.199219-16.191406-.199219v16c5.367188 0 10.640625.0625 15.808594.191406zm0 0"/><path d="m443.167969 66.65625c-25.257813-10.878906-79.984375-29.746094-162.769531-33.855469l-.796876 15.976563c80.285157 4 132.972657 22.125 157.230469 32.574218zm0 0"/></svg>