<svg id="_x33_0" enable-background="new 0 0 62 62" height="512" viewBox="0 0 62 62" width="512" xmlns="http://www.w3.org/2000/svg"><g><g><path d="m20.823 26.632c.273.818 1.035 1.368 1.898 1.368h16.559c.862 0 1.625-.549 1.896-1.367l4.285-12.852c.357-1.074.539-2.193.539-3.325 0-3.129-1.379-6.073-3.783-8.077l-.484-.404c-1.529-1.274-3.466-1.975-5.456-1.975-1.688 0-3.322.495-4.727 1.431-.334.223-.768.223-1.102 0-1.403-.936-3.037-1.431-4.725-1.431-1.989 0-3.927.701-5.454 1.975l-.486.405c-2.404 2.003-3.783 4.947-3.783 8.076 0 1.132.182 2.25.54 3.325zm.239-22.716.486-.405c1.17-.974 2.652-1.511 4.175-1.511 1.292 0 2.543.379 3.617 1.095 1.01.672 2.313.672 3.32 0 2.341-1.561 5.63-1.385 7.792.417l.484.404c1.948 1.622 3.064 4.006 3.064 6.54 0 .917-.147 1.822-.437 2.692l-4.284 12.852h-16.558l-4.284-12.851c-.29-.871-.437-1.776-.437-2.693 0-2.534 1.116-4.918 3.062-6.54z"/><path d="m21 8.415c.535-.535 1.465-.535 2 0l.293.293c.834.833 1.942 1.292 3.121 1.292h.172c1.179 0 2.287-.459 3.121-1.292l-1.414-1.415c-.456.456-1.063.707-1.707.707h-.172c-.645 0-1.251-.251-1.707-.707l-.293-.293c-1.291-1.289-3.537-1.29-4.828 0l-.293.293 1.414 1.414z"/><path d="m30 7.415c.535-.535 1.465-.535 2 0l.293.293 1.414-1.414-.293-.294c-1.291-1.289-3.537-1.29-4.828 0l-.293.293 1.414 1.414z"/><path d="m36.414 10h.172c1.179 0 2.287-.459 3.121-1.293l1-1-1.414-1.414-1 1c-.456.456-1.063.707-1.707.707h-.172c-.645 0-1.251-.251-1.707-.708l-1.414 1.415c.834.834 1.942 1.293 3.121 1.293z"/><path d="m35.36 15.5h7.28v2.001h-7.28z" transform="matrix(.275 -.962 .962 .275 12.419 49.465)"/><path d="m30 44h2c1.103 0 2-.897 2-2v-2.082c1.145-.28 2-1.307 2-2.536 0-.404-.096-.809-.276-1.171l-2.382-4.764c-.447-.892-1.344-1.447-2.342-1.447s-1.895.555-2.342 1.447l-2.382 4.764c-.18.362-.276.767-.276 1.171 0 1.23.855 2.257 2 2.536v2.082c0 1.103.897 2 2 2zm0-2v-2h2v2zm-1.935-4.895 2.382-4.763c.106-.211.318-.342.553-.342s.447.131.553.342l2.382 4.764c.043.085.065.181.065.276 0 .341-.277.618-.618.618h-4.764c-.341 0-.618-.277-.618-.618 0-.095.022-.191.065-.277z"/><path d="m35 45h-8c-1.654 0-3 1.346-3 3v3.451c.152.251.274.525.349.822l.242.97c.112.445.511.757.971.757h.438v-1.586l1.586 1.586h2.828l-4.414-4.414v-1.586c0-.169.053-.32.127-.46l6.459 6.46h2.828l-7-7h2.171l5.415 5.414v1.586h.438c.46 0 .858-.312.971-.758l.242-.969c.074-.297.197-.57.349-.822v-3.451c0-1.654-1.346-3-3-3zm-1.586 2h1.586c.552 0 1 .449 1 1v1.586z"/><path d="m19 30h-13.302c-1.397 0-2.712.744-3.43 1.942l-.682 1.138c-1.037 1.729-1.586 3.709-1.586 5.726 0 1.6.336 3.15.998 4.605l3.251 7.154c.614-.263 1.273-.439 1.961-.517l-3.392-7.464c-.543-1.195-.818-2.466-.818-3.778 0-1.654.45-3.278 1.301-4.697l.683-1.138c.359-.599 1.016-.971 1.714-.971h13.302c1.103 0 2 .897 2 2v8c0 2.847-.899 5.665-2.525 8h2.364c1.395-2.423 2.161-5.198 2.161-8v-8c0-2.206-1.794-4-4-4z"/><path d="m60.414 33.08-.683-1.137c-.717-1.199-2.032-1.943-3.429-1.943h-13.302c-2.206 0-4 1.794-4 4v8c0 2.802.766 5.577 2.161 8h2.364c-1.626-2.335-2.525-5.153-2.525-8v-8c0-1.103.897-2 2-2h13.302c.698 0 1.355.372 1.715.971l.683 1.138c.85 1.418 1.3 3.042 1.3 4.697 0 1.313-.275 2.583-.818 3.778l-3.392 7.464c.689.078 1.347.254 1.961.517l3.251-7.153c.662-1.456.998-3.006.998-4.606 0-2.017-.549-3.997-1.586-5.726z"/></g><g><g><path d="m59 62h-56c-1.654 0-3-1.346-3-3v-2c0-3.86 3.141-7 7-7h14.438c1.379 0 2.576.935 2.91 2.272l.242.97c.113.446.512.758.972.758h10.877c.46 0 .858-.312.971-.758l.242-.969c.333-1.338 1.531-2.273 2.91-2.273h14.438c3.859 0 7 3.14 7 7v2c0 1.654-1.346 3-3 3z" fill="#f0bc5e"/></g></g></g></svg>