<svg height="512" viewBox="0 0 60 60" width="512" xmlns="http://www.w3.org/2000/svg"><g id="030---Clean-Vs-Rotten-Tooth" fill="none"><g id="Layer_3" transform="translate(1 1)"><path id="Shape" d="m57.41 3.41-15.64 15.64-13.65 13.65-24.71 24.71c-.50374448.5037445-1.23796806.7004791-1.92609582.5160958s-1.22561672-.7218722-1.41-1.41c-.18438328-.6881277.01235134-1.4223513.51609582-1.9260958l54-54c.7787215-.7787215 2.0412785-.7787215 2.82 0s.7787215 2.0412785 0 2.82z" fill="#f44335"/><path id="Shape" d="m58 31c.0156522 2.0255095-.4942818 4.0204539-1.48 5.79-1.5918368 2.6712088-2.4603549 5.7110222-2.52 8.82.0010357 2.2367263-.3603123 4.4588473-1.07 6.58l-1.4 4.22c-.3146723.9482726-1.2008814 1.58876-2.2 1.59h-.01c-1.2808436-.0011028-2.3188972-1.0391564-2.32-2.32v-9.51c.0332846-2.1023381-1.5233146-3.8917804-3.61-4.15-1.1231724-.1100336-2.2405646.259513-3.0766569 1.0175192-.8360922.7580062-1.3130773 1.8339315-1.3133431 2.9624808v9.68c-.0011028 1.2808436-1.0391564 2.3188972-2.32 2.32h-.01c-.9991186-.00124-1.8853277-.6417274-2.2-1.59l-1.4-4.22c-.7096877-2.1211527-1.0710357-4.3432737-1.07-6.58-.0036778-1.5449828-.2327573-3.0811629-.68-4.56-.4486-1.4856212-1.0659603-2.9149443-1.84-4.26-.7132815-1.2626802-1.1751275-2.6516141-1.36-4.09l10.94-10.94c.5031817.2604537.9760498.5756991 1.41.94 1.4624863 1.2298252 3.5975137 1.2298252 5.06 0 1.2419376-1.0776819 2.8257953-1.6800439 4.47-1.7 4.42 0 8 4.48 8 10z" fill="#ffeb3a"/><path id="Shape" d="m50 21c-.5054554.0018217-1.0089324.0632459-1.5.183 3.7.88 6.5 4.94 6.5 9.817.0156522 2.0255095-.4942818 4.0204539-1.48 5.79-1.5918368 2.6712088-2.4603549 5.7110222-2.52 8.82.0010357 2.2367263-.3603123 4.4588473-1.07 6.58l-1.4 4.22c-.135941.4005776-.3778382.7568575-.7 1.031.4140524.3581584.9425421.5564307 1.49.559h.01c.9991186-.00124 1.8853277-.6417274 2.2-1.59l1.4-4.22c.7096877-2.1211527 1.0710357-4.3432737 1.07-6.58.0596451-3.1089778.9281632-6.1487912 2.52-8.82.9857182-1.7695461 1.4956522-3.7644905 1.48-5.79 0-5.52-3.58-10-8-10z" fill="#fdd834"/><path id="Shape" d="m50 21c-1.6442047.0199561-3.2280624.6223181-4.47 1.7-1.4624863 1.2298252-3.5975137 1.2298252-5.06 0-.4339502-.3643009-.9068183-.6795463-1.41-.94l2.71-2.71c.4088913-.0374464.8194184-.0541345 1.23-.05 5 0 7 2 7 2z" fill="#fdd834"/><path id="Shape" d="m29.95 12.99c-.1125593 1.686654-.6011671 3.3267359-1.43 4.8-1.5918368 2.6712088-2.4603549 5.7110222-2.52 8.82.0021243.9233392-.0613689 1.8456621-.19 2.76l-6.81 6.81v-9.01c.0332846-2.1023381-1.5233146-3.8917804-3.61-4.15-1.1231724-.1100336-2.2405646.259513-3.0766569 1.0175192-.8360922.7580062-1.3130773 1.8339315-1.3133431 2.9624808v9.68c-.0011028 1.2808436-1.03915643 2.3188972-2.32 2.32h-.01c-.99911863-.00124-1.88532766-.6417274-2.2-1.59l-1.4-4.22c-.70968773-2.1211527-1.07103568-4.3432737-1.07-6.58-.0036778-1.5449828-.23275729-3.0811629-.68-4.56-.44860003-1.4856212-1.06596026-2.9149443-1.84-4.26-.9857182-1.7695461-1.49565219-3.7644905-1.48-5.79 0-5.52 3.58-10 8-10 1.64420468.01995613 3.2280624.62231812 4.47 1.7 1.4624863 1.22982522 3.5975137 1.22982522 5.06 0 1.2419376-1.07768188 2.8257953-1.68004387 4.47-1.7 2.8570364.12605852 5.4093706 1.82376497 6.63 4.41l-.28.52c-.0926499.1626399-.2273601.29735009-.39.39l-1.44.79c-.3183158.17611884-.5158771.51121049-.5158771.875s.1975613.69888116.5158771.875l1.44.79c.1626399.0926499.2973501.2273601.39.39l.79 1.44c.1593264.3026591.4682076.4971398.81.51z" fill="#f5f5f5"/><path id="Shape" d="m22 2c-1.6442047.01995613-3.2280624.62231812-4.47 1.7-1.4624863 1.22982522-3.5975137 1.22982522-5.06 0-1.2419376-1.07768188-2.82579532-1.68004387-4.47-1.7 0 0 2-2 7-2s7 2 7 2z" fill="#cfd8dc"/><path id="Shape" d="m33.51 9.86-1.44.79c-.1626399.0926499-.2973501.2273601-.39.39l-.79 1.44c-.1828579.3429736-.5527875.5436801-.94.51-.3417924-.0128602-.6506736-.2073409-.81-.51l-.79-1.44c-.0926499-.1626399-.2273601-.2973501-.39-.39l-1.44-.79c-.3183158-.17611884-.5158771-.51121049-.5158771-.875s.1975613-.69888116.5158771-.875l1.44-.79c.1626399-.09264991.2973501-.2273601.39-.39l.28-.52.51-.92c.1761188-.31831582.5112105-.51587708.875-.51587708s.6988812.19756126.875.51587708l.79 1.44c.0926499.1626399.2273601.29735009.39.39l1.44.79c.3183158.17611884.5158771.51121049.5158771.875s-.1975613.69888116-.5158771.875z" fill="#f3d55b"/><path id="Shape" d="m20.253 10.455.687 1.257c.0806314.1466692.2013308.2673686.348.348l1.257.687c.280941.1533785.4557137.4479175.4557137.768s-.1747727.6146215-.4557137.768l-1.257.687c-.1466692.0806314-.2673686.2013308-.348.348l-.687 1.257c-.1533785.280941-.4479175.4557137-.768.4557137s-.6146215-.1747727-.768-.4557137l-.687-1.257c-.0806314-.1466692-.2013308-.2673686-.348-.348l-1.257-.687c-.280941-.1533785-.4557137-.4479175-.4557137-.768s.1747727-.6146215.4557137-.768l1.257-.687c.1466692-.0806314.2673686-.2013308.348-.348l.687-1.257c.1533785-.280941.4479175-.4557137.768-.4557137s.6146215.1747727.768.4557137z" fill="#f3d55b"/><circle id="Oval" cx="49.5" cy="29.5" fill="#ffdc00" r="2.5"/></g><g id="Layer_2" fill="#000" transform="translate(-1 -1)"><path id="Shape" d="m60.121 6.122c.768259-.75566991 1.0721992-1.86533449.7962405-2.90701856-.2759588-1.04168408-1.0894153-1.85533239-2.1310343-2.13153668s-2.1513552.02747436-2.9072062.79555524l-26.879 26.884c.030915-2.987694.8568814-5.913265 2.393-8.476.7731487-1.3868664 1.2693504-2.9107932 1.461-4.487.777-.363.89-.791 1.7-2.273l1.434-.785c.6417129-.3507128 1.0408467-1.0237033 1.0408467-1.755s-.3991338-1.40428718-1.0408467-1.755l-1.434-.784-.784-1.438c-.302247-.54954945-.844781-.9254913-1.465474-1.01548097-.6206929-.08998966-1.2476542.11639572-1.693526.55748097-1.4404319-2.04267817-3.7185661-3.33451338-6.211-3.522-3.513-2.71-11.271-2.713-14.789-.006-7.111.376-11.017 10.222-7 17.261.73594342 1.2792902 1.32341464 2.6384255 1.751 4.051 1.218 4.075-.029 5.826 1.759 11.169l1.4 4.225c.51601464 1.5462262 2.07685352 2.4903762 3.6859174 2.229608 1.6090639-.2607682 2.7918229-1.6495512 2.7930826-3.279608v-9.68c.00044-.8465259.3585042-1.6534659.9858814-2.2218004.6273773-.5683345 1.4656674-.8451593 2.3081186-.7621996 1.573037.2098198 2.73774 1.5673487 2.706 3.154v8.588l-18.121 18.12c-.76825902.7556699-1.07219924 1.8653345-.79624047 2.9070186.27595876 1.041684 1.08941531 1.8553323 2.1310343 2.1315366 1.041619.2762043 2.15135519-.0274743 2.90720617-.7955552l23.417-23.416c.784 2.686 1.818 3.252 2.824 6.631 1.218 4.075-.029 5.826 1.759 11.169l1.4 4.225c.5160146 1.5462262 2.0768535 2.4903762 3.6859174 2.229608s2.7918229-1.6495512 2.7930826-3.279608v-9.68c.00044-.8465259.3585042-1.6534659.9858814-2.2218004.6273773-.5683345 1.4656674-.8451593 2.3081186-.7621996 1.573037.2098198 2.73774 1.5673487 2.706 3.154v9.51c.0036977 1.6291159 1.1872092 3.0156211 2.7955436 3.2750298 1.6083344.2594088 3.1677495-.6846888 3.6834564-2.2300298 1.476-4.449 2.521-6.925 2.521-11.115.0566346-2.9354136.8798639-5.8049951 2.388-8.324 4.02-7.041.113-16.887-7-17.262-1.8245391-1.2512993-3.9759837-1.9400536-6.188-1.981zm-25.092 4.863c-2.239 1.226-1.79.779-3.014 3.009-1.223-2.227-.773-1.783-3.015-3.009 2.244-1.227 1.794-.778 3.012-3.02 1.223 2.235.772 1.791 3.017 3.02zm-13.929-7.396c-.8026828.33432277-1.5496211.78923009-2.215 1.349-1.0931717.91157327-2.6822482.90946742-3.773-.005-.6643019-.55817037-1.4103154-1.01110715-2.212-1.343 2.676213-.78992299 5.5235944-.79027023 8.2-.001zm-3.615 20.436c-1.4035568-.1367901-2.7996161.3254826-3.844161 1.2729049-1.044545.9474222-1.640438 2.2918884-1.640839 3.7020951v9.68c-.0062838.6461644-.4774327 1.1937057-1.115433 1.29629-.6380004.1025844-1.25704269-.2696646-1.465567-.88129l-1.4-4.222c-1.7-5.072-.387-6.582-1.741-11.108-1.348-4.541-3.278-5.278-3.278-9.765 0-7.106 6.159-11.438 10.823-7.537 1.8383803 1.53393788 4.5106197 1.53393788 6.349 0 3.061-2.56 7.064-1.686 9.306 1.973l-1.437.79c-.6417129.35071282-1.0408467 1.0237033-1.0408467 1.755s.3991338 1.4042872 1.0408467 1.755l1.436.785c.811 1.484.863 1.719 1.388 2.093-.1659662 1.2949667-.5783942 2.5461681-1.215 3.686-3.138 5.526-2.446 8.8-2.8 11.608l-4.85 4.85v-6.588c.0246614-2.6144808-1.9194623-4.8298776-4.515-5.145zm-12.778 34.682c-.28599425.2859079-.71603662.3714219-1.08965456.216678s-.61725909-.5192821-.61734544-.923678c0-.592-3.63 3.216 54.293-54.707.2510745-.25995658.6228779-.3642126.9725073-.27269716.3496295.09151544.6226744.3645604.7141899.71418984.0915154.34962943-.0127406.72143285-.2726972.97250732zm54.293-25.707c.0174209 1.8538682-.44782 3.6803697-1.35 5.3-1.6801681 2.8191097-2.5937356 6.028662-2.65 9.31 0 3.937-1.033 6.3-2.417 10.48-.2060826.6138682-.8253975.98911-1.4649281.8875972s-1.1122082-.6500867-1.1180719-1.2975972v-9.51c.0246614-2.6144808-1.9194623-4.8298776-4.515-5.145-1.4035568-.1367901-2.7996161.3254826-3.844161 1.2729049-1.044545.9474222-1.640438 2.2918884-1.640839 3.7020951v9.68c-.0062838.6461644-.4774327 1.1937057-1.115433 1.29629-.6380004.1025844-1.2570427-.2696646-1.465567-.88129l-1.4-4.222c-1.7-5.072-.387-6.582-1.741-11.108-1.2-4.044-2.509-4.536-3.08-7.72l10.027-10.028c.784987.7206518 1.7396466 1.2308356 2.775 1.483v2.5c0 .5522847.4477153 1 1 1s1-.4477153 1-1v-2.5c.7998508-.1570152 1.5470097-.5137388 2.172-1.037 4.712-3.937 10.828.484 10.828 7.537zm-9.9-10.411c-.8026828.3343228-1.5496211.7892301-2.215 1.349-1.0915831.9109447-2.6784169.9109447-3.77 0-.146-.123-.306-.233-.461-.347l1.558-1.558c1.6495926-.1136838 3.3060812.0747384 4.888.556z"/><path id="Shape" d="m23.13 19.055.638-1.207 1.257-.688c.6007127-.3293366.9741403-.9599319.9741403-1.645s-.3734276-1.3156634-.9741403-1.645l-1.207-.638-.687-1.256c-.3293366-.6007127-.9599319-.9741403-1.645-.9741403s-1.3156634.3734276-1.645.9741403l-.641 1.207-1.255.687c-.6006492.3296279-.9739725.9603475-.9739725 1.6455s.3733233 1.3158721.9739725 1.6455l1.206.637.688 1.257c.3296279.6006492.9603475.9739725 1.6455.9739725s1.3158721-.3733233 1.6455-.9739725zm-1.645-1.155c-.958-1.75-.661-1.44-2.38-2.38 1.722-.942 1.431-.647 2.38-2.38.952 1.74.657 1.437 2.38 2.38-1.722.937-1.428.635-2.38 2.38z"/><path id="Shape" d="m48 31.5c0 1.9329966 1.5670034 3.5 3.5 3.5s3.5-1.5670034 3.5-3.5-1.5670034-3.5-3.5-3.5-3.5 1.5670034-3.5 3.5zm5 0c0 .8284271-.6715729 1.5-1.5 1.5s-1.5-.6715729-1.5-1.5.6715729-1.5 1.5-1.5 1.5.6715729 1.5 1.5z"/><circle id="Oval" cx="40" cy="31" r="1"/><circle id="Oval" cx="44" cy="34" r="1"/><circle id="Oval" cx="38" cy="35" r="1"/><circle id="Oval" cx="37" cy="40" r="1"/><circle id="Oval" cx="42" cy="39" r="1"/><circle id="Oval" cx="47" cy="39" r="1"/><circle id="Oval" cx="52" cy="38" r="1"/><circle id="Oval" cx="52" cy="42" r="1"/></g></g></svg>