<svg height="503pt" viewBox="0 0 503 503.95069" width="503pt" xmlns="http://www.w3.org/2000/svg"><path d="m495.6875 67.148438v58.753906c0 4.636718-3.757812 8.394531-8.390625 8.394531h-75.542969l-16.785156-39.367187 16.785156-36.175782h75.542969c4.632813 0 8.390625 3.757813 8.390625 8.394532zm0 0" fill="#283593"/><path d="m470.507812 67.148438v58.753906c0 4.636718-3.757812 8.394531-8.394531 8.394531h-50.359375l-16.785156-39.367187 16.785156-36.175782h50.359375c4.636719 0 8.394531 3.757813 8.394531 8.394532zm0 0" fill="#3f51b5"/><path d="m495.6875 377.703125v109.117187c0 4.636719-3.757812 8.394532-8.390625 8.394532h-470.035156c-4.636719 0-8.394531-3.757813-8.394531-8.394532v-109.117187zm0 0" fill="#bb193b"/><path d="m478.902344 377.703125v109.117187c0 4.636719-3.757813 8.394532-8.394532 8.394532h-453.246093c-4.636719 0-8.394531-3.757813-8.394531-8.394532v-109.117187zm0 0" fill="#ef314c"/><path d="m300.375 306.109375c-7.445312 15.621094-15.769531 30.808594-24.929688 45.492187-8.855468 15.816407-14.664062 33.15625-17.125 51.117188-1.695312 19.359375-4.921874 38.558594-9.652343 57.410156-3.777344 13.847656-9.820313 35.421875-27.359375 35.421875-2.539063-.105469-4.953125-1.117187-6.800782-2.855469-13.429687-11.582031-22.578124-55.566406-27.53125-90.816406-3.273437-23.585937-14.183593-28.285156-22.828124-29.292968h-.085938c-2.902344.304687-5.722656 1.15625-8.308594 2.515624-6.296875 3.191407-12.171875 10.492188-14.519531 26.777344-5.707031 40.960938-17.207031 93.671875-34.246094 93.671875-3.554687.078125-7.042969-.945312-9.988281-2.941406-10.15625-6.210937-14.519531-21.652344-17.375-32.480469-4.757812-18.851562-8.011719-38.046875-9.734375-57.410156-2.394531-17.964844-8.175781-35.3125-17.039063-51.117188-9.195312-14.664062-17.515624-29.855468-24.929687-45.492187-14.4375-36.847656-17.878906-86.285156 12.925781-115.828125 14.175782-13.046875 32.394532-20.835938 51.621094-22.078125h.167969c20.070312-1.726563 40.191406 2.726563 57.660156 12.757813.085937.085937.167969.167968.253906.167968 1.761719 1.09375 3.523438 2.183594 5.203125 3.359375.167969.082031.585938.417969 1.34375.921875 2.480469 1.738282 4.835938 3.644532 7.050782 5.707032.25-.167969.417968-.417969.671874-.503907 15.164063-13.042969 34.105469-20.894531 54.050782-22.410156h.167968c24.878907-2.699219 49.730469 5.332031 68.324219 22.078125 30.804688 29.542969 27.445313 78.980469 13.011719 115.828125zm0 0" fill="#cfd8dc"/><path d="m283.585938 306.109375c-7.445313 15.621094-15.769532 30.808594-24.929688 45.492187-8.851562 15.816407-14.660156 33.15625-17.121094 51.117188-1.695312 19.359375-4.921875 38.558594-9.652344 57.410156-2.9375 10.828125-7.300781 26.269532-17.375 32.566406-13.429687-11.582031-22.578124-55.566406-27.53125-90.816406-3.273437-23.585937-14.183593-28.285156-22.828124-29.292968h-.085938c-3.019531-.167969-4.617188-.253907-7.804688-.335938-3.191406-.085938-5.539062.167969-8.898437.335938h-.082031c-8.644532 1.007812-19.472656 5.707031-22.832032 29.292968-4.949218 35.25-14.101562 79.148438-27.445312 90.730469-10.15625-6.210937-14.519531-21.652344-17.375-32.480469-4.757812-18.851562-8.011719-38.046875-9.734375-57.410156-2.394531-17.964844-8.175781-35.3125-17.039063-51.117188-9.195312-14.664062-17.515624-29.855468-24.929687-45.492187-14.4375-36.847656-17.878906-86.285156 12.925781-115.828125 14.175782-13.046875 32.394532-20.835938 51.621094-22.078125h.167969c18.210937 1.597656 27.460937-5.605469 41.480469 5.304687 1.675781 1.597657 10.070312.136719 11.363281 1.144532 2.601562-2.4375 7.335937 11.851562 10.273437 9.835937.167969.082031.585938.417969 1.34375.921875 1.59375 1.007813 4.28125 2.6875 7.722656 5.203125 15.164063-13.042969 34.105469-20.894531 54.050782-22.410156h.167968c19.203126 1.226563 37.402344 9.019531 51.539063 22.078125 30.800781 29.542969 27.445313 78.980469 13.007813 115.828125zm0 0" fill="#f5f5f5"/><path d="m218.703125 41.96875v58.753906c0 4.632813-3.757813 8.390625-8.390625 8.390625h-67.148438c-4.636718 0-8.394531-3.757812-8.394531-8.390625v-58.753906c.019531-16.914062 12.601563-31.183594 29.378907-33.324219 1.390624-.167969 2.792968-.253906 4.195312-.25h16.789062c18.539063 0 33.570313 15.03125 33.570313 33.574219zm0 0" fill="#283593"/><path d="m193.523438 41.96875v58.753906c0 4.632813-3.757813 8.390625-8.390626 8.390625h-41.96875c-4.636718 0-8.394531-3.757812-8.394531-8.390625v-58.753906c.019531-16.914062 12.601563-31.183594 29.378907-33.324219 16.777343 2.140625 29.355468 16.410157 29.375 33.324219zm0 0" fill="#3f51b5"/><path d="m411.753906 134.296875-193.050781-50.363281v-41.964844l193.050781 16.785156zm0 0" fill="#02a9f4"/><path d="m115.347656 503.949219c-24.230468 0-31.535156-27.085938-35.453125-41.628907-4.875-19.234374-8.203125-38.832031-9.953125-58.597656-2.261718-16.9375-7.738281-33.289062-16.132812-48.175781-2.871094-5.40625-6.027344-10.601563-9.167969-15.789063-6.253906-9.703124-11.65625-19.933593-16.148437-30.570312-15.25-38.917969-19.328126-92.125 14.941406-124.953125 34.773437-33.394531 97.757812-33.070313 134.738281.714844 3.324219 3.144531 3.511719 8.375.429687 11.753906-3.085937 3.378906-8.308593 3.664063-11.742187.644531-30.265625-27.640625-83.574219-28.117187-111.808594-.992187-28.238281 27.128906-24.191406 72.882812-10.929687 106.699219 4.15625 9.738281 9.132812 19.105468 14.882812 28 3.296875 5.457031 6.605469 10.910156 9.625 16.59375 9.398438 16.734374 15.507813 35.109374 18.003906 54.136718 1.65625 18.921875 4.824219 37.683594 9.46875 56.101563 3.820313 14.195312 8.761719 29.277343 19.253907 29.277343 4.609375-.5625 17.054687-22.425781 25.980469-86.453124 3.144531-22.308594 13.308593-34.5625 30.214843-36.445313 2.980469-.328125 5.910157.953125 7.6875 3.371094 1.777344 2.414062 2.132813 5.59375.929688 8.339843-1.203125 2.75-3.78125 4.644532-6.761719 4.976563-3.753906.417969-12.515625 1.386719-15.4375 22.089844-14.089844 100.90625-35.570312 100.90625-42.621094 100.90625zm0 0"/><path d="m229.699219 503.949219c-7.066407 0-28.535157 0-42.613281-100.914063-2.929688-20.6875-11.691407-21.652344-15.433594-22.074218-4.609375-.507813-7.929688-4.65625-7.421875-9.265626.511719-4.609374 4.660156-7.929687 9.265625-7.417968 16.890625 1.878906 27.0625 14.125 30.21875 36.425781 8.914062 64.074219 21.359375 85.914063 26.019531 86.453125 10.484375 0 15.417969-15.109375 19.230469-29.21875 4.613281-18.449219 7.78125-37.226562 9.472656-56.167969 2.492188-19.027343 8.605469-37.402343 18.003906-54.128906 3.023438-5.683594 6.339844-11.15625 9.636719-16.613281 5.753906-8.898438 10.734375-18.273438 14.882813-28.023438 13.253906-33.808594 17.347656-79.59375-10.910157-106.679687-28.261719-27.085938-81.542969-26.660157-111.820312.980469-3.433594 3.019531-8.65625 2.734374-11.742188-.644532-3.082031-3.378906-2.894531-8.605468.429688-11.753906 36.972656-33.78125 99.941406-34.117188 134.746093-.703125 34.261719 32.816406 30.21875 86.058594 14.933594 124.9375-4.480468 10.628906-9.875 20.851563-16.125 30.550781-3.144531 5.195313-6.300781 10.398438-9.179687 15.8125-8.402344 14.867188-13.878907 31.203125-16.132813 48.128906-1.78125 19.796876-5.117187 39.425782-9.972656 58.703126-3.960938 14.527343-11.230469 41.613281-35.488281 41.613281zm0 0"/><path d="m72.574219 386.097656h-63.707031c-4.632813 0-8.390626-3.757812-8.390626-8.394531 0-4.632813 3.757813-8.390625 8.390626-8.390625h63.707031c4.636719 0 8.394531 3.757812 8.394531 8.390625 0 4.636719-3.757812 8.394531-8.394531 8.394531zm0 0"/><path d="m495.6875 386.097656h-223.179688c-4.636718 0-8.394531-3.757812-8.394531-8.394531 0-4.632813 3.757813-8.390625 8.394531-8.390625h223.179688c4.636719 0 8.394531 3.757812 8.394531 8.390625 0 4.636719-3.757812 8.394531-8.394531 8.394531zm0 0"/><path d="m218.703125 260.195312c-3.722656.003907-7.003906-2.449218-8.054687-6.023437-8.554688-29.136719-42.933594-56.121094-43.277344-56.398437-3.515625-2.882813-4.097656-8.039063-1.3125-11.632813s7.925781-4.3125 11.59375-1.628906c1.59375 1.234375 39.011718 30.546875 49.109375 64.925781.628906 2.136719.378906 4.433594-.691407 6.386719-1.066406 1.953125-2.871093 3.402343-5.007812 4.027343-.765625.230469-1.558594.347657-2.359375.34375zm0 0"/><path d="m59.917969 268.589844c-3.964844 0-7.386719-2.777344-8.210938-6.65625-5.449219-24.480469 5.585938-49.671875 27.28125-62.261719 4.042969-2.0625 8.992188-.539063 11.175781 3.441406 2.183594 3.980469.804688 8.972657-3.109374 11.273438-15.179688 9.046875-22.8125 26.835937-18.910157 44.074219.460938 2.179687.039063 4.453124-1.175781 6.320312-1.21875 1.867188-3.125 3.171875-5.304688 3.632812-.574218.117188-1.160156.175782-1.746093.175782zm0 0"/><path d="m210.3125 117.507812h-67.148438c-9.269531 0-16.785156-7.515624-16.785156-16.785156v-58.753906c.027344-23.167969 18.800782-41.9414062 41.964844-41.96875h16.789062c23.164063.0273438 41.9375 18.800781 41.964844 41.96875v58.753906c0 9.269532-7.515625 16.785156-16.785156 16.785156zm-41.96875-100.722656c-13.90625 0-25.179688 11.273438-25.179688 25.183594v58.753906h67.148438v-58.753906c0-13.910156-11.273438-25.183594-25.179688-25.183594zm0 0"/><path d="m176.738281 159.476562c-4.636719 0-8.394531-3.757812-8.394531-8.394531v-33.574219c0-4.636718 3.757812-8.394531 8.394531-8.394531s8.394531 3.757813 8.394531 8.394531v33.574219c0 4.636719-3.757812 8.394531-8.394531 8.394531zm0 0"/><path d="m411.753906 142.6875c-.714844 0-1.421875-.089844-2.113281-.265625l-193.050781-50.363281c-3.699219-.960938-6.28125-4.300782-6.277344-8.125v-41.964844c-.011719-2.359375.972656-4.613281 2.710938-6.210938 1.734374-1.597656 4.0625-2.390624 6.410156-2.183593l193.050781 16.785156c4.347656.382813 7.679687 4.03125 7.664063 8.394531v75.542969c0 4.632813-3.757813 8.390625-8.394532 8.390625zm-184.65625-65.234375 176.261719 45.980469v-56.984375l-176.261719-15.324219zm0 0"/><path d="m487.296875 142.6875h-75.542969c-4.636718 0-8.394531-3.757812-8.394531-8.390625v-75.542969c0-4.636718 3.757813-8.394531 8.394531-8.394531h75.542969c9.269531 0 16.785156 7.515625 16.785156 16.789063v58.753906c0 9.269531-7.515625 16.785156-16.785156 16.785156zm-67.148437-16.785156h67.148437v-58.753906h-67.148437zm0 0"/><path d="m185.132812 159.476562h-16.789062c-4.636719 0-8.394531-3.757812-8.394531-8.394531s3.757812-8.394531 8.394531-8.394531h16.789062c4.632813 0 8.390626 3.757812 8.390626 8.394531s-3.757813 8.394531-8.390626 8.394531zm0 0"/></svg>