<svg id="_x33_0" enable-background="new 0 0 62 62" height="512" viewBox="0 0 62 62" width="512" xmlns="http://www.w3.org/2000/svg"><g><g><path d="m30.708 27.57c-1.321-2.202-3.737-3.57-6.306-3.57h-.179c-1.649 0-3.284.545-4.603 1.534l-1.62 1.216v22.25c1.13 0 2.072.867 2.166 1.993l.681 8.173c.087 1.037.953 1.834 1.993 1.834.794 0 1.529-.234 2.16-.62v-7.745c0-5.347 1.808-10.616 5.09-14.837 1.231-1.583 1.91-3.559 1.91-5.564 0-1.643-.447-3.255-1.292-4.664z" fill="#f0bc5e"/></g><g><g><path d="m48 52c-1.656 0-3.029-1.242-3.194-2.891l-.096-.967c-.443-4.425-2.087-8.646-4.757-12.206-1.26-1.678-1.953-3.758-1.953-5.857 0-.798.098-1.595.292-2.368l.039-.156c.523-2.094 2.395-3.555 4.551-3.555.929 0 1.829.272 2.603.788l1.238.825c.76.506 1.795.506 2.555 0l1.238-.825c.773-.516 1.672-.788 2.602-.788 2.156 0 4.028 1.461 4.552 3.553l.04.159c.192.772.29 1.569.29 2.367 0 2.099-.693 4.179-1.953 5.857-2.669 3.56-4.313 7.781-4.756 12.207l-.096.965c-.166 1.65-1.539 2.892-3.195 2.892z" fill="#f0bc5e"/></g></g><g><path d="m55 16c1.654 0 3-1.346 3-3v-6c0-.552.449-1 1-1h3v-2h-3c-1.654 0-3 1.346-3 3v6c0 .552-.449 1-1 1s-1-.448-1-1v-3c0-1.654-1.346-3-3-3h-1.09c-.479-2.833-2.943-5-5.91-5h-14c-1.103 0-2 .897-2 2h-4.35c-.826-2.327-3.043-4-5.65-4-3.309 0-6 2.691-6 6v8c0 1.103.897 2 2 2h3v5.921c-.115-.058-.236-.098-.341-.177-1.5-1.125-3.358-1.744-5.233-1.744h-.952c-1.829 0-3.582.562-5.069 1.625-3.384 2.417-5.405 6.344-5.405 10.503 0 2.746.854 5.371 2.469 7.592 1.87 2.571 3.274 5.387 4.205 8.354-4.133 2.542-6.674 7.042-6.674 11.926 0 1.103.897 2 2 2h58c1.103 0 2-.897 2-2 0-5.064-2.793-9.769-7.182-12.225 1.127-3.489 2.559-6.88 4.293-10.144l1.608-3.026c.837-1.576 1.28-3.354 1.28-5.139v-.104c0-2.432-.842-4.812-2.371-6.702-1.366-1.69-3.397-2.66-5.572-2.66-1.541 0-3.068.509-4.3 1.434l-1.156.866c-.352.266-.845.267-1.2 0l-1.155-.866c-1.232-.925-2.76-1.434-4.301-1.434-2.175 0-4.207.97-5.573 2.66-.836 1.034-1.458 2.217-1.858 3.472-.927-1.765-2.255-3.319-3.918-4.507-1.488-1.063-3.241-1.625-5.07-1.625h-.952c-1.875 0-3.733.619-5.233 1.744-.105.079-.226.119-.341.177v-5.921h3c1.103 0 2-.897 2-2v-2h4c0 1.103.897 2 2 2h14c2.967 0 5.431-2.167 5.91-5h1.091c.551 0 1 .448 1 1v3c0 1.654 1.346 3 3 3zm-53 16.128c0-3.515 1.708-6.833 4.567-8.876 1.147-.819 2.498-1.252 3.908-1.252h.952c1.445 0 2.877.478 4.033 1.344.467.351.994.578 1.541.71v24.122c-1.169.396-2.056 1.45-2.163 2.734l-.681 8.173c-.044.515-.481.917-.997.917-1.743 0-3.16-1.418-3.16-3.16v-.11c0-6.578-2.045-12.867-5.914-18.186-1.365-1.877-2.086-4.096-2.086-6.416zm16 17.872c.605 0 1.119.473 1.169 1.076l.681 8.173c.022.263.089.511.176.751h-4.052c.086-.24.154-.488.176-.751l.681-8.173c.05-.603.564-1.076 1.169-1.076zm-10.765.112c.503 2.149.765 4.364.765 6.617v.11c0 1.196.426 2.284 1.111 3.16h-7.111c0-3.987 1.986-7.663 5.235-9.887zm28.384-14.87 1.27 2.389c1.438 2.707 2.658 5.504 3.679 8.369h-10.5c.884-2.207 2.035-4.316 3.464-6.28.99-1.362 1.691-2.877 2.087-4.478zm-6.271 12.758h11.902c1.055 3.309 1.841 6.706 2.336 10.172.096.675.359 1.289.721 1.828h-17.418c.685-.876 1.111-1.964 1.111-3.16v-.11c0-3 .462-5.933 1.348-8.73zm30.652 12h-8.307c.362-.54.624-1.153.721-1.828.409-2.86 1.018-5.671 1.809-8.426 3.541 2.16 5.777 6.062 5.777 10.254zm-24-30.638c0-1.976.684-3.909 1.926-5.444.986-1.219 2.45-1.918 4.018-1.918 1.111 0 2.212.367 3.1 1.033l1.155.866c1.061.797 2.542.797 3.601 0l1.155-.866c.888-.666 1.989-1.033 3.1-1.033 1.568 0 3.033.699 4.019 1.918 1.242 1.535 1.926 3.469 1.926 5.444v.104c0 1.459-.362 2.912-1.046 4.2l-1.608 3.025c-3.524 6.632-5.849 13.763-6.911 21.197-.173 1.205-1.219 2.112-2.435 2.112s-2.262-.907-2.435-2.111c-1.062-7.435-3.387-14.565-6.911-21.197l-1.607-3.024c-.685-1.29-1.047-2.743-1.047-4.202zm-15.459-6.018c1.156-.866 2.588-1.344 4.033-1.344h.952c1.409 0 2.76.433 3.907 1.252 2.859 2.043 4.567 5.361 4.567 8.876 0 2.32-.721 4.539-2.086 6.416-3.869 5.318-5.914 11.607-5.914 18.185v.11c0 1.742-1.417 3.16-3.16 3.16-.516 0-.954-.402-.997-.917l-.681-8.173c-.107-1.284-.994-2.338-2.163-2.734v-4.114c1.933.221 3.724 1.076 5.12 2.471l.085.086 1.418-1.41-.087-.088c-1.775-1.775-4.067-2.844-6.536-3.072v-2.048h1.395c2.593 0 4.999-1.288 6.438-3.445l-1.664-1.109c-1.066 1.599-2.851 2.554-4.773 2.554h-1.395v-13.946c.547-.132 1.074-.36 1.541-.71zm-2.541-21.344c2.206 0 4 1.794 4 4l.001 4h-8.001v-4c0-2.206 1.794-4 4-4zm4.001 12h-8.001v-2h8.001zm1.999-4v-4h4v4zm20 2h-14v-8h14c2.206 0 4 1.794 4 4s-1.794 4-4 4z"/><path d="m20.262 29.76c1.303 2.604 3.67 4.504 6.496 5.21l.485-1.939c-2.259-.565-4.151-2.083-5.192-4.165l-.156-.313-1.789.895z"/><path d="m45.059 34.402.417.249c1.036.622 1.767 1.659 2.003 2.844l.541 2.701 1.961-.393-.541-2.701c-.173-.865-.526-1.676-1.024-2.385l2.429-1.458 1.448 1.448 1.414-1.414-1.563-1.563.805-2.414-1.897-.633-.883 2.649-3.197 1.918c-.152-.111-.306-.218-.468-.316l-.417-.249c-1.287-.771-2.087-2.184-2.087-3.685h-2c0 2.199 1.171 4.269 3.059 5.402z"/></g></g></svg>