<svg id="Layer_5" enable-background="new 0 0 64 64" height="512" viewBox="0 0 64 64" width="512" xmlns="http://www.w3.org/2000/svg"><g><path d="m60.211 45.578-.317.633c-.548 1.096-1.668 1.789-2.894 1.789s-2.346-.693-2.894-1.789l-.317-.633c-1.177-2.353-1.789-4.948-1.789-7.578 0 2.63-.612 5.225-1.789 7.578l-.317.633c-.548 1.096-1.668 1.789-2.894 1.789s-2.346-.693-2.894-1.789l-.317-.633c-1.177-2.353-1.789-4.948-1.789-7.578 0 2.63-.612 5.225-1.789 7.578l-.317.633c-.548 1.096-1.668 1.789-2.894 1.789s-2.346-.693-2.894-1.789l-.317-.633c-1.177-2.353-1.789-4.948-1.789-7.578 0 2.63-.612 5.225-1.789 7.578l-.317.633c-.548 1.096-1.668 1.789-2.894 1.789s-2.346-.693-2.894-1.789l-.317-.633c-1.177-2.353-1.789-4.948-1.789-7.578 0 2.63-.612 5.225-1.789 7.578l-.317.633c-.548 1.096-1.668 1.789-2.894 1.789s-2.346-.693-2.894-1.789l-.317-.633c-1.177-2.353-1.789-4.948-1.789-7.578 0 2.63-.612 5.225-1.789 7.578l-.317.633c-.548 1.096-1.668 1.789-2.894 1.789s-2.346-.693-2.894-1.789l-.317-.633c-1.177-2.353-1.789-4.948-1.789-7.578v8.015c0 4.818 3.434 8.939 8.169 9.832 5.562 1.048 13.42 2.153 21.831 2.153s16.269-1.105 21.831-2.154c4.735-.892 8.169-5.013 8.169-9.831v-8.015c0 2.63-.612 5.225-1.789 7.578z" fill="#f0bc5e"/><path d="m53.831 8.154c-5.562-1.049-13.42-2.154-21.831-2.154s-16.269 1.105-21.831 2.154c-4.735.892-8.169 5.013-8.169 9.831v8.015c0-2.631.612-5.225 1.789-7.578l.317-.633c.548-1.096 1.668-1.789 2.894-1.789s2.346.693 2.894 1.789l.317.633c1.177 2.353 1.789 4.947 1.789 7.578 0-2.631.612-5.225 1.789-7.578l.317-.633c.548-1.096 1.668-1.789 2.894-1.789s2.346.693 2.894 1.789l.317.633c1.177 2.353 1.789 4.947 1.789 7.578 0-2.631.612-5.225 1.789-7.578l.317-.633c.548-1.096 1.668-1.789 2.894-1.789s2.346.693 2.894 1.789l.317.633c1.177 2.353 1.789 4.947 1.789 7.578 0-2.631.612-5.225 1.789-7.578l.317-.633c.548-1.096 1.668-1.789 2.894-1.789s2.346.693 2.894 1.789l.317.633c1.177 2.353 1.789 4.947 1.789 7.578 0-2.631.612-5.225 1.789-7.578l.317-.633c.548-1.096 1.668-1.789 2.894-1.789s2.346.693 2.894 1.789l.317.633c1.177 2.353 1.789 4.947 1.789 7.578 0-2.631.612-5.225 1.789-7.578l.317-.633c.548-1.096 1.668-1.789 2.894-1.789s2.346.693 2.894 1.789l.317.633c1.177 2.353 1.789 4.947 1.789 7.578v-8.015c0-4.818-3.434-8.939-8.169-9.831z" fill="#f0bc5e"/><g><path d="m58 33h-2c-1.641 0-3.088.806-4 2.031-.912-1.225-2.359-2.031-4-2.031h-2c-1.641 0-3.088.806-4 2.031-.912-1.225-2.359-2.031-4-2.031h-2c-1.641 0-3.088.806-4 2.031-.912-1.225-2.359-2.031-4-2.031h-2c-1.641 0-3.088.806-4 2.031-.912-1.225-2.359-2.031-4-2.031h-2c-1.641 0-3.088.806-4 2.031-.912-1.225-2.359-2.031-4-2.031h-2c-2.757 0-5 2.243-5 5 0 2.771.655 5.546 1.895 8.025l.316.633c.722 1.445 2.174 2.342 3.789 2.342s3.067-.897 3.789-2.342l.316-.633c.346-.692.641-1.409.895-2.14.253.731.549 1.448.895 2.14l.316.633c.722 1.445 2.174 2.342 3.789 2.342s3.067-.897 3.789-2.342l.316-.633c.346-.692.641-1.409.895-2.14.253.731.549 1.448.895 2.14l.316.633c.722 1.445 2.174 2.342 3.789 2.342s3.067-.897 3.789-2.342l.316-.633c.346-.692.641-1.409.895-2.14.253.731.549 1.448.895 2.14l.316.633c.722 1.445 2.174 2.342 3.789 2.342s3.067-.897 3.789-2.342l.316-.633c.346-.692.641-1.409.895-2.14.253.731.549 1.448.895 2.14l.316.633c.722 1.445 2.174 2.342 3.789 2.342s3.067-.897 3.789-2.342l.316-.633c.346-.692.641-1.409.895-2.14.253.731.549 1.448.895 2.14l.316.633c.722 1.445 2.174 2.342 3.789 2.342s3.067-.897 3.789-2.342l.316-.633c1.24-2.479 1.895-5.254 1.895-8.025 0-2.757-2.243-5-5-5zm-48.684 12.131-.316.633c-.381.762-1.147 1.236-2 1.236s-1.619-.474-2-1.236l-.316-.633c-1.102-2.203-1.684-4.669-1.684-7.131 0-1.654 1.346-3 3-3h2c1.654 0 3 1.346 3 3 0 2.462-.582 4.928-1.684 7.131zm10 0-.316.633c-.381.762-1.147 1.236-2 1.236s-1.619-.474-2-1.236l-.316-.633c-1.102-2.203-1.684-4.669-1.684-7.131 0-1.654 1.346-3 3-3h2c1.654 0 3 1.346 3 3 0 2.462-.582 4.928-1.684 7.131zm10 0-.316.633c-.381.762-1.147 1.236-2 1.236s-1.619-.474-2-1.236l-.316-.633c-1.102-2.203-1.684-4.669-1.684-7.131 0-1.654 1.346-3 3-3h2c1.654 0 3 1.346 3 3 0 2.462-.582 4.928-1.684 7.131zm10 0-.316.633c-.381.762-1.147 1.236-2 1.236s-1.619-.474-2-1.236l-.316-.633c-1.102-2.203-1.684-4.669-1.684-7.131 0-1.654 1.346-3 3-3h2c1.654 0 3 1.346 3 3 0 2.462-.582 4.928-1.684 7.131zm10 0-.316.633c-.381.762-1.147 1.236-2 1.236s-1.619-.474-2-1.236l-.316-.633c-1.102-2.203-1.684-4.669-1.684-7.131 0-1.654 1.346-3 3-3h2c1.654 0 3 1.346 3 3 0 2.462-.582 4.928-1.684 7.131zm10 0-.316.633c-.381.762-1.147 1.236-2 1.236s-1.619-.474-2-1.236l-.316-.633c-1.102-2.203-1.684-4.669-1.684-7.131 0-1.654 1.346-3 3-3h2c1.654 0 3 1.346 3 3 0 2.462-.582 4.928-1.684 7.131z"/><path d="m35.959 52.918.082 1.998c5.19-.213 10.619-.822 16.136-1.813l-.354-1.969c-5.427.974-10.764 1.575-15.864 1.784z"/><path d="m32 53v2c.679 0 1.353-.007 2.022-.021l-.045-2c-.654.014-1.314.021-1.977.021z"/><path d="m6 31h2c1.641 0 3.088-.806 4-2.031.912 1.225 2.359 2.031 4 2.031h2c1.641 0 3.088-.806 4-2.031.912 1.225 2.359 2.031 4 2.031h2c1.641 0 3.088-.806 4-2.031.912 1.225 2.359 2.031 4 2.031h2c1.641 0 3.088-.806 4-2.031.912 1.225 2.359 2.031 4 2.031h2c1.641 0 3.088-.806 4-2.031.912 1.225 2.359 2.031 4 2.031h2c2.757 0 5-2.243 5-5 0-2.771-.655-5.546-1.895-8.025l-.316-.633c-.722-1.445-2.174-2.342-3.789-2.342s-3.067.897-3.789 2.342l-.316.633c-.346.692-.641 1.409-.895 2.14-.253-.731-.549-1.448-.895-2.14l-.316-.633c-.722-1.445-2.174-2.342-3.789-2.342s-3.067.897-3.789 2.342l-.316.633c-.346.692-.641 1.409-.895 2.14-.253-.731-.549-1.448-.895-2.14l-.316-.633c-.722-1.445-2.174-2.342-3.789-2.342s-3.067.897-3.789 2.342l-.316.633c-.346.692-.641 1.409-.895 2.14-.253-.731-.549-1.448-.895-2.14l-.316-.633c-.722-1.445-2.174-2.342-3.789-2.342s-3.067.897-3.789 2.342l-.316.633c-.346.692-.641 1.409-.895 2.14-.253-.731-.549-1.448-.895-2.14l-.316-.633c-.722-1.445-2.174-2.342-3.789-2.342s-3.067.897-3.789 2.342l-.316.633c-.346.692-.641 1.409-.895 2.14-.253-.731-.549-1.448-.895-2.14l-.316-.633c-.722-1.445-2.174-2.342-3.789-2.342s-3.067.897-3.789 2.342l-.316.633c-1.24 2.479-1.895 5.254-1.895 8.025 0 2.757 2.243 5 5 5zm48.684-12.131.316-.633c.381-.762 1.147-1.236 2-1.236s1.619.474 2 1.236l.316.633c1.102 2.203 1.684 4.669 1.684 7.131 0 1.654-1.346 3-3 3h-2c-1.654 0-3-1.346-3-3 0-2.462.582-4.928 1.684-7.131zm-10 0 .316-.633c.381-.762 1.147-1.236 2-1.236s1.619.474 2 1.236l.316.633c1.102 2.203 1.684 4.669 1.684 7.131 0 1.654-1.346 3-3 3h-2c-1.654 0-3-1.346-3-3 0-2.462.582-4.928 1.684-7.131zm-10 0 .316-.633c.381-.762 1.147-1.236 2-1.236s1.619.474 2 1.236l.316.633c1.102 2.203 1.684 4.669 1.684 7.131 0 1.654-1.346 3-3 3h-2c-1.654 0-3-1.346-3-3 0-2.462.582-4.928 1.684-7.131zm-10 0 .316-.633c.381-.762 1.147-1.236 2-1.236s1.619.474 2 1.236l.316.633c1.102 2.203 1.684 4.669 1.684 7.131 0 1.654-1.346 3-3 3h-2c-1.654 0-3-1.346-3-3 0-2.462.582-4.928 1.684-7.131zm-10 0 .316-.633c.381-.762 1.147-1.236 2-1.236s1.619.474 2 1.236l.316.633c1.102 2.203 1.684 4.669 1.684 7.131 0 1.654-1.346 3-3 3h-2c-1.654 0-3-1.346-3-3 0-2.462.582-4.928 1.684-7.131zm-10 0 .316-.633c.381-.762 1.147-1.236 2-1.236s1.619.474 2 1.236l.316.633c1.102 2.203 1.684 4.669 1.684 7.131 0 1.654-1.346 3-3 3h-2c-1.654 0-3-1.346-3-3 0-2.462.582-4.928 1.684-7.131z"/><path d="m28.041 11.082-.082-1.998c-5.19.213-10.619.822-16.136 1.813l.354 1.969c5.427-.974 10.764-1.575 15.864-1.784z"/><path d="m32 11v-2c-.679 0-1.353.007-2.022.021l.045 2c.654-.014 1.314-.021 1.977-.021z"/></g></g></svg>