<svg id="_x33_0" enable-background="new 0 0 62 62" height="512" viewBox="0 0 62 62" width="512" xmlns="http://www.w3.org/2000/svg"><g><g><g><path d="m58 62h-54c-1.103 0-2-.897-2-2 0-3.309 2.691-6 6-6h46c3.309 0 6 2.691 6 6 0 1.103-.897 2-2 2z" fill="#f0bc5e"/></g></g><g><path d="m24.293 34.293c-1.085 1.085-2.587 1.707-4.121 1.707h-8.344c-1.534 0-3.036-.622-4.121-1.707l-1.414 1.414c1.457 1.457 3.475 2.293 5.535 2.293h8.344c2.061 0 4.078-.836 5.535-2.293z"/><path d="m54.293 34.293c-1.085 1.085-2.587 1.707-4.121 1.707h-8.344c-1.534 0-3.036-.622-4.121-1.707l-1.414 1.414c1.457 1.457 3.475 2.293 5.535 2.293h8.344c2.061 0 4.078-.836 5.535-2.293z"/><path d="m44.202 34.219c1.125.563 2.47.563 3.595 0 .785-.389 1.779-.229 2.396.389l.1.1 1.414-1.414-.1-.1c-1.214-1.214-3.162-1.531-4.704-.764-.566.283-1.241.283-1.808 0-1.538-.768-3.489-.45-4.703.764l-.1.1 1.414 1.414.1-.1c.619-.619 1.614-.78 2.396-.389z"/><path d="m57 22c1.654 0 3-1.346 3-3v-9c0-1.103.897-2 2-2v-2c-2.206 0-4 1.794-4 4v9c0 .552-.448 1-1 1s-1-.448-1-1v-4c0-2.414-1.721-4.434-4-4.899v-.101c0-1.103-.897-2-2-2h-2v-5c0-1.654-1.346-3-3-3h-1.481c-.509 0-1.013.131-1.457.378l-17.321 9.622h-4.741v-4c0-1.103-.897-2-2-2h-10c-1.103 0-2 .897-2 2v12c0 1.103.897 2 2 2h2v2c0 1.103.897 2 2 2v4.241c-.704-.154-1.423-.241-2.143-.241-3.377 0-6.511 1.678-8.384 4.487-.963 1.446-1.473 3.128-1.473 4.867v.532c0 1.528.342 3.067.988 4.453l5.532 11.853c.474-.121.968-.192 1.48-.192h.637l-5.836-12.507c-.524-1.122-.801-2.37-.801-3.607v-.532c0-1.342.394-2.642 1.138-3.757 1.501-2.252 4.013-3.597 6.719-3.597.723 0 1.444.11 2.143.303v1.917c-.599.193-1.154.521-1.607.974l-.1.1 1.414 1.414.1-.1c.617-.618 1.614-.779 2.396-.389 1.125.563 2.47.563 3.595 0 .785-.389 1.779-.229 2.396.389l.1.1 1.414-1.414-.1-.1c-1.214-1.214-3.162-1.531-4.704-.764-.566.283-1.241.283-1.808 0-.348-.174-.719-.284-1.096-.349v-1.001c1.466.552 3.119.479 4.531-.227 1.115-.558 2.365-.853 3.612-.853 2.706 0 5.219 1.345 6.72 3.597.743 1.115 1.137 2.415 1.137 3.757v.532c0 1.237-.277 2.485-.801 3.607l-5.836 12.507h2.207l5.43-11.636 5.43 11.636h2.207l-5.836-12.507c-.524-1.122-.801-2.37-.801-3.607v-.532c0-1.342.394-2.642 1.138-3.757 1.501-2.252 4.013-3.597 6.719-3.597 1.247 0 2.496.295 3.611.853 1.586.793 3.477.793 5.063 0 1.115-.558 2.365-.853 3.612-.853 2.706 0 5.219 1.345 6.72 3.597.743 1.115 1.137 2.415 1.137 3.757v.532c0 1.237-.277 2.485-.801 3.607l-5.836 12.507h.637c.512 0 1.006.071 1.48.192l5.531-11.854c.647-1.385.989-2.924.989-4.452v-.532c0-1.738-.51-3.421-1.474-4.866-1.873-2.81-5.006-4.488-8.383-4.488-1.556 0-3.114.368-4.506 1.063-1.025.512-2.248.512-3.273 0-1.392-.695-2.951-1.063-4.507-1.063-3.377 0-6.511 1.678-8.384 4.487-.179.269-.326.553-.474.837-.147-.284-.294-.568-.474-.837-1.872-2.809-5.005-4.487-8.382-4.487-1.556 0-3.114.368-4.506 1.063-1.025.512-2.248.512-3.273 0-.118-.059-.243-.102-.363-.156v-4.907c1.103 0 2-.897 2-2v-2h2c1.103 0 2-.897 2-2h6.003c.695 0 1.398-.035 2.089-.104l17.206-1.721c1.26-.125 2.255-1.011 2.579-2.175h2.122c1.041 0 1.89-.803 1.982-1.821 1.171.409 2.018 1.512 2.018 2.821v4c0 1.654 1.346 3 3 3zm-39-16 .001 8h-10.001v-8zm-4 16h-2v-2h2zm-6-4v-2h10.002v2zm12-6h4v4h-4zm6.003 4h-.003v-4.412l16-8.888v11.795l-6 .6v-1.095c0-1.103-.897-2-2-2h-4c-1.103 0-2 .897-2 2v1.895l-.107.011c-.625.062-1.261.094-1.89.094zm7.997-.705-4 .4v-1.695h4zm12-2.105c0 .516-.387.943-.9.994l-1.1.11v-12.294h1c.552 0 1 .448 1 1zm4-1.19h-2v-2h2z"/></g></g></svg>