<svg id="Icons" height="512" viewBox="0 0 60 60" width="512" xmlns="http://www.w3.org/2000/svg"><path d="m57 12a15.915 15.915 0 0 1 -3.67 10.23l-6.34 5.46a15.635 15.635 0 0 0 -5.62 10.46c-.42 4.35.14 10.4 2.89 18.7a1.51 1.51 0 0 1 .08.51 1.641 1.641 0 0 1 -2.83 1.13c-3.12-3.46-4.75-8.55-5.6-12.92v-.01a50.273 50.273 0 0 1 -.91-8.56 20.843 20.843 0 0 1 5.65-14.77l6.34-4.85c10.55-6.95 3.01-16.38 3.01-16.38s7 2 7 11z" fill="#009688"/><path d="m50 1a13.813 13.813 0 0 1 2.039 3.949 12.317 12.317 0 0 1 1.961 7.051 15.915 15.915 0 0 1 -3.67 10.23l-6.34 5.46a15.635 15.635 0 0 0 -5.62 10.46c-.42 4.35.14 10.4 2.89 18.7a1.51 1.51 0 0 1 .08.51 1.628 1.628 0 0 1 -.177.723c.115.136.227.275.347.407a1.641 1.641 0 0 0 2.83-1.13 1.51 1.51 0 0 0 -.08-.51c-2.75-8.3-3.31-14.35-2.89-18.7a15.635 15.635 0 0 1 5.62-10.46l6.34-5.46a15.915 15.915 0 0 0 3.67-10.23c0-9-7-11-7-11z" fill="#00695c"/><path d="m58.98 37s0 14.29-6.51 21.49a1.641 1.641 0 0 1 -2.83-1.13 1.51 1.51 0 0 1 .08-.51c2.75-8.3 3.31-14.35 2.89-18.7a15.635 15.635 0 0 0 -5.62-10.46 17.618 17.618 0 0 0 -1.56-1.17 21.613 21.613 0 0 1 -4.78-4.29 15.915 15.915 0 0 1 -3.67-10.23 12.53 12.53 0 0 1 1.76-6.77 10.1 10.1 0 0 1 5.24-4.23s-7.54 9.43 3.01 16.38c.31.21.64.42.99.62a23.191 23.191 0 0 1 5.35 4.23 20.843 20.843 0 0 1 5.65 14.77z" fill="#00bcd4"/><path d="m47.98 18c-12-7-4-17-4-17a10.146 10.146 0 0 0 -5.04 3.951c-1.159 3.549-1.174 8.841 6.04 13.049a21.167 21.167 0 0 1 11 19s0 13.771-6.166 21.08a1.63 1.63 0 0 0 2.654.407c6.512-7.193 6.512-21.487 6.512-21.487a21.167 21.167 0 0 0 -11-19z" fill="#00838f"/><path d="m35 37a50.273 50.273 0 0 0 .91 8.56v.01c-.92 6.58-2.69 13.43-6 13.43-3.8 0-4.91-6-4.91-12v-5s-.04-4-3-4-3 4-3 4v5c0 6-1.11 12-4.91 12-5.93 0-6.91-22-6.91-25a7.419 7.419 0 0 0 -1.21-3.68 39.338 39.338 0 0 1 -3.78-8.79l-.51-1.63c-3.46-11.08 6.83-21.73 17.75-18.16.02.01.04.01.06.02a7.98 7.98 0 0 0 5.02 0c.02-.01.04-.01.06-.02a13.691 13.691 0 0 1 14.17 3.49 12.53 12.53 0 0 0 -1.76 6.77 15.915 15.915 0 0 0 3.67 10.23 20.843 20.843 0 0 0 -5.65 14.77z" fill="#f5f5f5"/><path d="m19 38c-2.96 0-3 4-3 4v5c0 5.041-.79 10.067-3.294 11.55a2.482 2.482 0 0 0 1.384.45c3.8 0 4.91-6 4.91-12v-5s.031-2.489 1.5-3.538a2.506 2.506 0 0 0 -1.5-.462z" fill="#cfd8dc"/><path d="m40.65 22.23a15.915 15.915 0 0 1 -3.67-10.23 12.53 12.53 0 0 1 1.76-6.77 13.757 13.757 0 0 0 -11.327-4.105 13.958 13.958 0 0 1 8.327 4.105 12.53 12.53 0 0 0 -1.76 6.77 15.915 15.915 0 0 0 3.67 10.23 20.843 20.843 0 0 0 -5.65 14.77 50.273 50.273 0 0 0 .91 8.56v.01c-.782 5.595-2.183 11.37-4.619 12.978a3.113 3.113 0 0 0 1.619.452c3.31 0 5.08-6.85 6-13.43v-.01a50.273 50.273 0 0 1 -.91-8.56 20.843 20.843 0 0 1 5.65-14.77z" fill="#cfd8dc"/><path d="m58 12c0-9.643-7.648-11.939-7.726-11.962a1 1 0 0 0 -1.057 1.585c.03.037 2.971 3.8 2.289 8.06-.391 2.444-1.921 4.616-4.522 6.474a10.13 10.13 0 0 1 -4.476-6.257c-.818-4.344 2.223-8.237 2.254-8.276a1 1 0 0 0 -1.057-1.586 11.353 11.353 0 0 0 -5.1 3.7 14.557 14.557 0 0 0 -14.346-2.948l-.016.01-.043.011a6.967 6.967 0 0 1 -4.4-.001l-.04-.01-.019-.01a14.651 14.651 0 0 0 -15.071 3.61 15.582 15.582 0 0 0 -3.944 15.8l.509 1.628a40.271 40.271 0 0 0 3.879 9.01 6.4 6.4 0 0 1 1.066 3.162c0 .26.34 26 7.91 26 3.866 0 5.91-4.495 5.91-13v-4.987c0-.123.071-3.013 2-3.013s2 2.89 2 3v5c0 8.505 2.043 13 5.91 13 2.759 0 4.792-3.158 6.176-9.609a23.786 23.786 0 0 0 4.7 8.784 2.641 2.641 0 0 0 4.558-1.815 2.48 2.48 0 0 0 -.13-.825c-2.369-7.148-3.325-13.3-2.844-18.29a14.484 14.484 0 0 1 4.622-9.193 14.544 14.544 0 0 1 4.631 9.194c.476 5-.481 11.149-2.844 18.287a2.651 2.651 0 0 0 .367 2.377 2.637 2.637 0 0 0 4.068.247c6.693-7.392 6.77-21.557 6.767-22.074a21.617 21.617 0 0 0 -5.345-14.925 16.788 16.788 0 0 0 3.364-10.158zm-4.516-2.021a11.847 11.847 0 0 0 -.823-6.256 10.563 10.563 0 0 1 3.339 8.277 14.8 14.8 0 0 1 -2.768 8.691 25.072 25.072 0 0 0 -4.446-3.369 11.589 11.589 0 0 0 4.698-7.343zm-23.574 48.021c-2.448 0-3.91-4.112-3.91-11v-5.01c-.017-1.726-.875-4.99-4-4.99s-3.983 3.264-4 5v5c0 6.888-1.462 11-3.91 11-4.152 0-5.91-17.169-5.91-24a8.241 8.241 0 0 0 -1.353-4.2 38.263 38.263 0 0 1 -3.682-8.573l-.51-1.627a13.59 13.59 0 0 1 3.44-13.774 12.684 12.684 0 0 1 13.045-3.136l.041.014.016.006a8.98 8.98 0 0 0 5.646 0h.013l.045-.015a12.61 12.61 0 0 1 12.624 2.742 13.672 13.672 0 0 0 -1.526 6.563 16.812 16.812 0 0 0 3.4 10.177 21.686 21.686 0 0 0 -5.379 14.823 50.344 50.344 0 0 0 .893 8.615c-1.104 7.757-2.962 12.385-4.983 12.385zm10.464-19.945c-.508 5.265.48 11.694 2.943 19.128a.55.55 0 0 1 .022.177.641.641 0 0 1 -1.088.459c-6.171-6.826-6.251-20.68-6.251-20.902a19.953 19.953 0 0 1 4.663-13.17 23 23 0 0 0 4.217 3.605c.2.129.37.278.558.414a16.447 16.447 0 0 0 -5.064 10.289zm17.605-1.055c0 .139-.071 13.987-6.253 20.815a.606.606 0 0 1 -.455.185.618.618 0 0 1 -.509-.261.637.637 0 0 1 -.089-.577c2.451-7.4 3.438-13.832 2.936-19.1a16.849 16.849 0 0 0 -7.624-12.37c-3.652-2.435-8.006-6.782-8.006-13.692 0-4.319 1.715-6.866 3.353-8.313a11.768 11.768 0 0 0 -.793 6.563c.632 3.4 2.966 6.3 6.937 8.614 11.283 6.581 10.544 17.589 10.503 18.136z"/><circle cx="46.98" cy="22" r="1"/><path d="m15.265 4.037a11.3 11.3 0 0 0 -9.03 4.706 11.392 11.392 0 0 0 -1.682 10.264 1 1 0 0 0 .953.7 1 1 0 0 0 .954-1.3 9.407 9.407 0 0 1 1.389-8.482 9.3 9.3 0 0 1 7.416-3.888 1 1 0 0 0 0-2z"/></svg>