<svg id="Layer_5" enable-background="new 0 0 64 64" height="512" viewBox="0 0 64 64" width="512" xmlns="http://www.w3.org/2000/svg"><g><g fill="#f0bc5e"><circle cx="53" cy="34" r="3"/><circle cx="60" cy="21" r="3"/><circle cx="56" cy="4" r="3"/><circle cx="32" cy="4" r="3"/><circle cx="6" cy="4" r="3"/><circle cx="4" cy="25" r="3"/><circle cx="9" cy="34" r="3"/></g><g><path d="m32 35.024-.217-.048c-5.761-1.281-9.783-6.295-9.783-12.196v-7.78h1.528c2.771 0 5.546-.655 8.024-1.895l.448-.223.447.224c2.479 1.239 5.254 1.894 8.025 1.894h1.528v7.78c0 5.9-4.022 10.915-9.783 12.196z" fill="#f0bc5e"/></g><g><path d="m18.901 42.836 1.973.328.916-5.494c.14-.828.21-1.679.21-2.528 0-1.891-.342-3.741-1.016-5.499l-1.867.715c.586 1.529.883 3.138.883 4.784 0 .738-.062 1.478-.183 2.198z"/><path d="m18.374 45h2.028v2h-2.028z" transform="matrix(.164 -.986 .986 .164 -29.17 57.578)"/><path d="m20.704 50.303c-.382-.38-.627-.883-.688-1.417l-1.986.229c.112.983.562 1.909 1.267 2.608z"/><path d="m43.016 29.642 1.867.717c.244-.638.542-1.264.885-1.861l-1.736-.994c-.393.685-.735 1.405-1.016 2.138z"/><path d="m48 19.514c0 1.29-.378 2.54-1.094 3.613l-1.546 2.318 1.664 1.109 1.546-2.318c.936-1.403 1.43-3.036 1.43-4.722 0-4.695-3.819-8.514-8.514-8.514h-1.486v2h1.486c3.592 0 6.514 2.922 6.514 6.514z"/><path d="m49.053 42.232-.925-5.551c-.085-.504-.128-1.022-.128-1.539 0-1.856.544-3.655 1.574-5.2l2.324-3.486c1.375-2.063 2.102-4.464 2.102-6.942 0-6.901-5.613-12.514-12.514-12.514h-2.684c-1.377 0-2.711.404-3.857 1.168-.816.544-1.766.832-2.748.832h-.395c-.981 0-1.932-.288-2.748-.832-1.146-.764-2.48-1.168-3.857-1.168h-2.684c-6.9 0-12.513 5.613-12.513 12.514 0 2.479.727 4.879 2.102 6.941l2.324 3.486c1.03 1.545 1.574 3.344 1.574 5.2 0 .518-.043 1.035-.128 1.541l-.925 5.548c-8.363 2.979-13.947 10.837-13.947 19.77v1h62v-1c0-8.962-5.574-16.792-13.947-19.768zm-35.287-16.886c-1.156-1.734-1.766-3.75-1.766-5.832 0-5.797 4.717-10.514 10.514-10.514h2.684c.981 0 1.932.288 2.748.832 1.146.764 2.48 1.168 3.857 1.168h.395c1.377 0 2.711-.404 3.857-1.168.816-.544 1.766-.832 2.748-.832h2.684c5.796 0 10.513 4.717 10.513 10.514 0 2.082-.61 4.099-1.766 5.832l-2.324 3.486c-1.25 1.875-1.91 4.057-1.91 6.31 0 .628.053 1.258.155 1.869l1.758 10.552c.058.342.087.695.087 1.048 0 3.523-2.866 6.389-6.389 6.389-1.065 0-1.971-.727-2.201-1.766l-2.783-12.522c-.485-2.186-2.388-3.712-4.627-3.712s-4.142 1.526-4.627 3.712l-2.783 12.522c-.231 1.039-1.136 1.766-2.201 1.766-3.523 0-6.389-2.866-6.389-6.389 0-.354.029-.706.087-1.051l1.758-10.548c.102-.613.155-1.242.155-1.87 0-2.253-.66-4.435-1.91-6.31zm-10.741 35.654c.378-7.29 4.865-13.658 11.542-16.486l-.453 2.716c-.076.453-.114.917-.114 1.381 0 4.626 3.763 8.389 8.389 8.389 2.01 0 3.718-1.37 4.154-3.332l2.783-12.522c.28-1.264 1.38-2.146 2.674-2.146s2.394.882 2.674 2.146l2.783 12.522c.437 1.962 2.145 3.332 4.154 3.332 4.626 0 8.389-3.763 8.389-8.389 0-.464-.038-.929-.114-1.379l-.452-2.714c6.684 2.825 11.165 9.17 11.541 16.481h-57.95z"/><path d="m38.707 21.707-1.414-1.414-7.293 7.293-2.293-2.293-1.414 1.414 3.707 3.707z"/><path d="m5 1h2v2h-2z"/><path d="m5 5h2v2h-2z"/><path d="m7 3h2v2h-2z"/><path d="m3 3h2v2h-2z"/><path d="m31 1h2v2h-2z"/><path d="m31 5h2v2h-2z"/><path d="m33 3h2v2h-2z"/><path d="m29 3h2v2h-2z"/><path d="m8 31h2v2h-2z"/><path d="m8 35h2v2h-2z"/><path d="m10 33h2v2h-2z"/><path d="m6 33h2v2h-2z"/><path d="m55 1h2v2h-2z"/><path d="m55 5h2v2h-2z"/><path d="m53 3h2v2h-2z"/><path d="m57 3h2v2h-2z"/><path d="m59 18h2v2h-2z"/><path d="m59 22h2v2h-2z"/><path d="m57 20h2v2h-2z"/><path d="m61 20h2v2h-2z"/><path d="m3 22h2v2h-2z"/><path d="m3 26h2v2h-2z"/><path d="m1 24h2v2h-2z"/><path d="m5 24h2v2h-2z"/><path d="m52 31h2v2h-2z"/><path d="m52 35h2v2h-2z"/><path d="m50 33h2v2h-2z"/><path d="m54 33h2v2h-2z"/><path d="m52.625 48.729-1.25 1.561c2.794 2.239 4.698 5.398 5.361 8.896l1.965-.373c-.752-3.964-2.909-7.546-6.076-10.084z"/><path d="m13 57h2v2h-2z"/><path d="m5 57h2v2h-2z"/><path d="m9 57h2v2h-2z"/></g></g></svg>