<svg id="Layer_3" height="512" viewBox="0 0 32 32" width="512" xmlns="http://www.w3.org/2000/svg" xmlns:xlink="http://www.w3.org/1999/xlink" data-name="Layer 3"><linearGradient id="Orange_Yellow" gradientUnits="userSpaceOnUse" x1=".164" x2="26.272" y1="32.243" y2="5.513"><stop offset="0" stop-color="#fff33b"/><stop offset=".04" stop-color="#fee72e"/><stop offset=".117" stop-color="#fed51b"/><stop offset=".196" stop-color="#fdca10"/><stop offset=".281" stop-color="#fdc70c"/><stop offset=".669" stop-color="#f3903f"/><stop offset=".888" stop-color="#ed683c"/><stop offset="1" stop-color="#e93e3a"/></linearGradient><linearGradient id="Orange_Yellow-2" x1=".209" x2="26.317" xlink:href="#Orange_Yellow" y1="32.286" y2="5.557"/><linearGradient id="Orange_Yellow-3" x1=".238" x2="26.347" xlink:href="#Orange_Yellow" y1="32.315" y2="5.586"/><path d="m30.035 22.594c-.053-.044-6.049-4.31-7.668-4.049-.781.138-1.227.671-2.122 1.737-.144.172-.491.583-.759.876a12.458 12.458 0 0 1 -1.651-.672 13.7 13.7 0 0 1 -6.321-6.321 12.458 12.458 0 0 1 -.672-1.651c.294-.269.706-.616.882-.764 1.061-.89 1.593-1.337 1.731-2.119.283-1.619-4.005-7.613-4.049-7.667a2.289 2.289 0 0 0 -1.706-.964c-1.738 0-6.7 6.436-6.7 7.521 0 .063.091 6.467 7.988 14.5 8.024 7.888 14.428 7.979 14.491 7.979 1.084 0 7.521-4.962 7.521-6.7a2.291 2.291 0 0 0 -.965-1.706zm-6.667 6.4c-.868-.074-6.248-.783-12.968-7.384-6.633-6.753-7.324-12.142-7.393-12.977a27.054 27.054 0 0 1 4.706-5.561c.04.04.093.1.161.178a35.391 35.391 0 0 1 3.574 6.063 11.886 11.886 0 0 1 -1.016.911 10.033 10.033 0 0 0 -1.512 1.422 1 1 0 0 0 -.171.751 11.418 11.418 0 0 0 .965 2.641 15.71 15.71 0 0 0 7.248 7.247 11.389 11.389 0 0 0 2.641.966.991.991 0 0 0 .751-.171 10.075 10.075 0 0 0 1.427-1.518c.314-.374.733-.873.892-1.014a35.146 35.146 0 0 1 6.076 3.578c.083.07.142.124.181.159a27.036 27.036 0 0 1 -5.562 4.707z" fill="url(#Orange_Yellow)"/><path d="m23 15h2a8.009 8.009 0 0 0 -8-8v2a6.006 6.006 0 0 1 6 6z" fill="url(#Orange_Yellow-2)"/><path d="m28 15h2a13.015 13.015 0 0 0 -13-13v2a11.013 11.013 0 0 1 11 11z" fill="url(#Orange_Yellow-3)"/></svg>