<svg id="_x33_0" enable-background="new 0 0 62 62" height="512" viewBox="0 0 62 62" width="512" xmlns="http://www.w3.org/2000/svg"><g><g><path d="m34.482 51c-.855 0-1.585-.618-1.726-1.462l-.592-3.551c-.003-.019-.015-.034-.019-.053l-2.295.012c-.003.015-.012.026-.015.041l-.592 3.551c-.14.844-.87 1.462-1.725 1.462-.871 0-1.609-.64-1.732-1.502l-.013-.088c-.166-1.161-.414-2.306-.699-3.44l-7.074.035v8.995c0 1.654 1.346 3 3 3s3-1.346 3-3c0-.552.448-1 1-1s1 .448 1 1v4c0 1.654 1.346 3 3 3s3-1.346 3-3v-2c0-.552.448-1 1-1 1.654 0 3-1.346 3-3v-2.882c-.304.531-.874.882-1.518.882z" fill="#f0bc5e"/></g><g><path d="m13.109 35.059c-1.848 1.232-4.371 1.232-6.219 0l-1.336-.891-1.109 1.664 1.336.891c1.253.836 2.712 1.277 4.219 1.277s2.966-.441 4.219-1.277l1.336-.891-1.109-1.664z"/><path d="m52 38c1.507 0 2.966-.441 4.219-1.277l1.336-.891-1.109-1.664-1.336.891c-1.848 1.232-4.371 1.232-6.219 0l-1.336-.891-1.109 1.664 1.336.891c1.252.836 2.711 1.277 4.218 1.277z"/><path d="m31 21c1.654 0 3-1.346 3-3s-1.346-3-3-3-3 1.346-3 3 1.346 3 3 3zm0-4c.552 0 1 .448 1 1s-.448 1-1 1-1-.448-1-1 .448-1 1-1z"/><path d="m60.341 47.86c-.245-.736-.785-1.307-1.461-1.612.579-2.311 1.393-4.559 2.458-6.688.433-.866.662-1.835.662-2.804 0-1.347-.445-2.683-1.254-3.762l-.316-.42c-1.209-1.612-3.133-2.574-5.147-2.574-.993 0-1.988.234-2.878.679l-.405.203-.406-.203c-.889-.445-1.884-.679-2.877-.679-1.793 0-3.511.766-4.72 2.07 0-.023.003-.046.003-.07v-10c0-1.706-.432-3.313-1.188-4.72 3.34-4.339 5.188-9.695 5.188-15.179v-2.101h-8v1.929c0 3.796-1.347 7.434-3.779 10.328-.716-.163-1.457-.257-2.221-.257h-2-4c-.764 0-1.505.094-2.221.257-2.432-2.894-3.779-6.532-3.779-10.328v-1.929h-8v2.101c0 5.485 1.849 10.841 5.188 15.18-.756 1.406-1.188 3.013-1.188 4.719v10c0 .025.005.048.005.073-1.209-1.306-2.928-2.073-4.722-2.073-.993 0-1.988.234-2.878.679l-.405.203-.406-.203c-.889-.445-1.884-.679-2.877-.679-2.014 0-3.938.962-5.146 2.573l-.316.422c-.81 1.078-1.255 2.414-1.255 3.761 0 .969.229 1.938.662 2.804 1.065 2.129 1.879 4.377 2.458 6.688-.675.306-1.216.876-1.461 1.612l-1.521 4.562c-.091.278-.138.566-.138.857 0 1.5 1.221 2.721 2.721 2.721h15.464c-.113-.314-.185-.648-.185-1v-1h-15.279c-.398 0-.721-.323-.721-.721 0-.076.013-.156.036-.228l1.52-4.559c.098-.294.374-.492.684-.492h13.76v-1.995l.967-.005h-2.025c.575-2.224 1.369-4.387 2.396-6.44.433-.866.662-1.835.662-2.804 0-.108-.021-.213-.026-.321.319.29.671.545 1.052.763.059.819.269 1.628.636 2.362 1.573 3.147 2.623 6.509 3.133 10.08.192 1.346 1.363 2.36 2.723 2.36 1.351 0 2.491-.966 2.713-2.298l.592-3.552c.029-.174.326-.174.355 0l.592 3.552c.221 1.332 1.362 2.298 2.712 2.298 1.359 0 2.53-1.015 2.735-2.449.074-.522.186-1.035.285-1.551h20.258c.311 0 .586.198.685.493l1.518 4.556c.024.074.037.154.037.23 0 .398-.323.721-.721.721h-23.463c-.414 1.161-1.514 2-2.816 2h26.279c1.5 0 2.721-1.221 2.721-2.721 0-.291-.047-.579-.14-.86zm-15.487-13.665.316-.422c.833-1.11 2.159-1.773 3.547-1.773.685 0 1.371.162 1.983.468l1.3.65 1.299-.65c.613-.306 1.3-.468 1.984-.468 1.388 0 2.714.663 3.547 1.774l.316.42c.55.735.854 1.645.854 2.562 0 .659-.156 1.319-.451 1.909-1.166 2.332-2.052 4.799-2.667 7.335h-9.764c-.615-2.536-1.501-5.003-2.667-7.335-.295-.59-.451-1.25-.451-1.909 0-.917.304-1.827.854-2.561zm-6.854 1.805v-11c0-1.221-.735-2.269-1.784-2.737 1.1-1.088 1.784-2.597 1.784-4.263 0-1.283-.408-2.47-1.096-3.446 2.978 1.165 5.096 4.06 5.096 7.446v10c0 2.206-1.794 4-4 4zm-3-12c.552 0 1 .448 1 1v5.244c-1.518-.41-3.183-.27-4.595.435l-.405.203-.406-.203c-.889-.445-1.884-.679-2.877-.679-.586 0-1.161.09-1.717.246v-5.246c0-.552.448-1 1-1h5zm7-22h4v.101c0 4.826-1.558 9.543-4.381 13.438-.924-1.088-2.078-1.97-3.384-2.585 2.418-3.133 3.749-6.967 3.765-10.954zm-26 .101v-.101h4c.016 3.987 1.347 7.821 3.765 10.954-1.306.614-2.46 1.497-3.384 2.585-2.823-3.895-4.381-8.612-4.381-13.438zm1.549 36.564c-1.166 2.332-2.052 4.799-2.667 7.335h-9.764c-.615-2.536-1.501-5.003-2.667-7.335-.295-.59-.451-1.25-.451-1.909 0-.917.304-1.827.854-2.561l.316-.422c.833-1.11 2.159-1.773 3.547-1.773.685 0 1.371.162 1.983.468l1.3.65 1.299-.65c.613-.306 1.3-.468 1.984-.468 1.388 0 2.714.663 3.547 1.774l.316.42c.55.735.854 1.645.854 2.562 0 .659-.156 1.319-.451 1.909zm4.705-5.67c-.436.581-.756 1.24-.968 1.932-.802-.744-1.286-1.794-1.286-2.927v-10c0-4.411 3.589-8 8-8h4c2.206 0 4 1.794 4 4s-1.794 4-4 4h-5c-1.654 0-3 1.346-3 3v6.198c-.539.381-1.027.838-1.43 1.376zm12.971 16.361c-.052.368-.371.644-.743.644-.368 0-.68-.264-.74-.626l-.592-3.552c-.175-1.055-1.08-1.822-2.15-1.822s-1.975.767-2.15 1.822l-.592 3.552c-.061.362-.372.626-.74.626-.371 0-.69-.276-.755-.732-.528-3.695-1.643-7.263-3.312-10.603-.295-.59-.451-1.25-.451-1.909 0-.917.304-1.827.854-2.561l.316-.422c.833-1.11 2.159-1.773 3.547-1.773.685 0 1.371.162 1.983.468l1.3.65 1.299-.65c1.143-.569 2.525-.605 3.701-.118v2.208c-1.055.918-2.426 1.442-3.828 1.442h-1.344c-1.534 0-3.036-.622-4.121-1.707l-1.414 1.414c1.457 1.457 3.475 2.293 5.535 2.293h1.344c1.423 0 2.822-.407 4.034-1.134.324.668 1.003 1.134 1.794 1.134.281 0 .555-.026.825-.064-.072.25-.16.496-.277.729-1.668 3.34-2.782 6.907-3.323 10.691zm5.113-9.796c.366-.731.576-1.538.636-2.355.379-.218.731-.476 1.053-.768-.006.106-.027.211-.027.319 0 .969.229 1.938.662 2.804 1.027 2.053 1.82 4.217 2.396 6.44h-7.105c.573-2.219 1.354-4.379 2.385-6.44z"/></g></g></svg>