<?xml version="1.0" encoding="iso-8859-1"?>
<!-- Generator: Adobe Illustrator 19.0.0, SVG Export Plug-In . SVG Version: 6.00 Build 0)  -->
<svg version="1.1" id="Capa_1" xmlns="http://www.w3.org/2000/svg" xmlns:xlink="http://www.w3.org/1999/xlink" x="0px" y="0px"
	 viewBox="0 0 512.069 512.069" style="enable-background:new 0 0 512.069 512.069;" xml:space="preserve">
<path style="fill:#31E8BB;" d="M384.059,64.069v64c0,23.564-19.103,42.667-42.667,42.667h-42.667
	c-23.564,0-42.667-19.103-42.667-42.667v-64H384.059z"/>
<path style="fill:#D9EEF7;" d="M501.392,160.069c0.006,48.835-23.901,94.579-64,122.453v176.213
	c0,23.564-19.103,42.667-42.667,42.667h-85.333V394.736c-0.035-11.767-9.566-21.298-21.333-21.333h-64
	c-11.767,0.035-21.298,9.566-21.333,21.333v106.667h-85.333c-23.564,0-42.667-19.102-42.667-42.667V282.522
	C6.703,235.885-10.634,142.936,36.003,74.913S175.59-10.446,243.612,36.191c4.313,2.957,8.467,6.138,12.446,9.531v82.347
	c0,23.564,19.103,42.667,42.667,42.667h42.667c23.564,0,42.667-19.103,42.667-42.667V21.402c0.213-3.552,0.213-7.114,0-10.667
	C453.181,27.104,501.843,89.036,501.392,160.069L501.392,160.069z"/>
<g>
	<path style="fill:#4C5B66;" d="M53.392,160.069h21.333c0.053-47.106,38.227-85.28,85.333-85.333V53.402
		C101.175,53.467,53.457,101.185,53.392,160.069z"/>
	<path style="fill:#4C5B66;" d="M386.288,0.304c-3.389-0.619-6.87,0.419-9.365,2.795c-2.539,2.415-3.792,5.885-3.381,9.365
		c0.088,1.859,0.067,3.722-0.064,5.579c-0.085,1.312-0.085,2.496-0.085,3.36v32H266.725v-7.68c0-3.152-1.394-6.144-3.808-8.171
		C195.318-19.314,94.42-10.612,37.555,56.987S-10.609,225.484,56.99,282.349c2.303,1.937,4.66,3.809,7.068,5.613v170.773
		c0.035,29.441,23.893,53.298,53.333,53.333h85.333c5.891,0,10.667-4.776,10.667-10.667V394.736c0-5.891,4.776-10.667,10.667-10.667
		h64c5.891,0,10.667,4.776,10.667,10.667v106.667c0,5.891,4.776,10.667,10.667,10.667h85.333
		c29.441-0.035,53.298-23.893,53.333-53.333V287.962c40.231-30.217,63.931-77.578,64-127.893
		C512.745,83.924,460.465,17.514,386.288,0.304z M373.392,74.736v53.333c0,17.673-14.327,32-32,32h-42.667
		c-17.673,0-32-14.327-32-32V74.736H373.392z M431.28,273.776c-2.856,1.997-4.556,5.262-4.555,8.747v176.213
		c0,17.673-14.327,32-32,32h-74.667v-96c0-17.673-14.327-32-32-32h-64c-17.673,0-32,14.327-32,32v96h-74.667
		c-17.673,0-32-14.327-32-32V282.522c0.002-3.484-1.699-6.75-4.555-8.747C17.967,230.096,2.41,143.721,46.089,80.851
		S176.143,2.424,239.014,46.103c2.171,1.508,4.298,3.078,6.379,4.708v77.259c0.035,29.441,23.893,53.298,53.333,53.333h42.667
		c29.441-0.035,53.298-23.893,53.333-53.333V24.602c57.842,19.76,96.525,74.345,96,135.467
		C490.656,205.402,468.465,247.847,431.28,273.776z"/>
	<path style="fill:#4C5B66;" d="M288.059,96.069h21.333v21.333h-21.333V96.069z"/>
	<path style="fill:#4C5B66;" d="M330.725,96.069h21.333v21.333h-21.333V96.069z"/>
</g>
<g>
</g>
<g>
</g>
<g>
</g>
<g>
</g>
<g>
</g>
<g>
</g>
<g>
</g>
<g>
</g>
<g>
</g>
<g>
</g>
<g>
</g>
<g>
</g>
<g>
</g>
<g>
</g>
<g>
</g>
</svg>
