<svg height="496pt" viewBox="0 0 496 496" width="496pt" xmlns="http://www.w3.org/2000/svg"><path d="m496 496h-496v-144h122.664062v16h-106.664062v112h464v-112h-106.664062v-16h122.664062zm0 0"/><path d="m217 352h62v16h-62zm0 0"/><g fill="#f0bc5e"><path d="m312 240-64-40-64 40 24-72-56-40h66.726562l29.273438-72 29.273438 72h66.726562l-56 40zm0 0"/><path d="m343.246094 276.617188-86.878906 37.765624 46.945312 150.234376 29.367188-78.320313 74.847656 28.070313zm0 0"/><path d="m152.753906 276.617188-64.28125 137.75 74.847656-28.070313 29.367188 78.320313 46.945312-150.234376zm0 0"/></g><path d="m248 0c-88.222656 0-160 71.777344-160 160s71.777344 160 160 160 160-71.777344 160-160-71.777344-160-160-160zm-8 287.59375v16c-20.375-1.128906-39.617188-6.449219-56.878906-15.21875l8.015625-13.878906c14.886719 7.433594 31.390625 12.007812 48.863281 13.097656zm16 0c17.472656-1.089844 33.976562-5.664062 48.871094-13.097656l8.015625 13.878906c-17.261719 8.761719-36.503907 14.089844-56.878907 15.21875v-16zm-8-15.59375c-61.761719 0-112-50.238281-112-112s50.238281-112 112-112 112 50.238281 112 112-50.238281 112-112 112zm-127.59375-120h-16c1.128906-20.375 6.449219-39.617188 15.21875-56.878906l13.878906 8.015625c-7.433594 14.886719-12.007812 31.390625-13.097656 48.863281zm0 16c1.089844 17.472656 5.664062 33.976562 13.097656 48.871094l-13.878906 8.015625c-8.761719-17.261719-14.089844-36.503907-15.21875-56.878907h16zm135.59375-135.59375v-16c20.375 1.128906 39.617188 6.449219 56.878906 15.21875l-8.015625 13.878906c-14.886719-7.433594-31.390625-12.007812-48.863281-13.097656zm-16 0c-17.472656 1.089844-33.976562 5.664062-48.871094 13.097656l-8.007812-13.886718c17.261718-8.761719 36.503906-14.089844 56.878906-15.21875zm135.59375 135.59375h16c-1.128906 20.375-6.449219 39.617188-15.21875 56.878906l-13.878906-8.015625c7.433594-14.886719 12.007812-31.390625 13.097656-48.863281zm0-16c-1.089844-17.472656-5.664062-33.976562-13.097656-48.871094l13.878906-8.015625c8.761719 17.261719 14.089844 36.503907 15.21875 56.878907h-16zm-7.1875-70.761719-13.839844 7.992188c-9.4375-14.175781-21.621094-26.359375-35.796875-35.796875l7.992188-13.839844c16.574219 10.878906 30.765625 25.070312 41.644531 41.644531zm-199.167969-41.644531 7.992188 13.839844c-14.175781 9.4375-26.359375 21.621094-35.796875 35.796875l-13.839844-7.992188c10.878906-16.574219 25.070312-30.765625 41.644531-41.644531zm-41.644531 199.167969 13.839844-7.992188c9.4375 14.175781 21.621094 26.359375 35.796875 35.796875l-7.992188 13.839844c-16.574219-10.878906-30.765625-25.070312-41.644531-41.644531zm199.167969 41.644531-7.992188-13.839844c14.175781-9.4375 26.359375-21.621094 35.796875-35.796875l13.839844 7.992188c-10.878906 16.574219-25.070312 30.765625-41.644531 41.644531zm0 0"/><path d="m408 256h16v16h-16zm0 0"/><path d="m408 288h16v16h-16zm0 0"/><path d="m424 272h16v16h-16zm0 0"/><path d="m392 272h16v16h-16zm0 0"/><path d="m440 128h16v16h-16zm0 0"/><path d="m440 160h16v16h-16zm0 0"/><path d="m456 144h16v16h-16zm0 0"/><path d="m424 144h16v16h-16zm0 0"/><path d="m440 24h16v16h-16zm0 0"/><path d="m440 56h16v16h-16zm0 0"/><path d="m456 40h16v16h-16zm0 0"/><path d="m424 40h16v16h-16zm0 0"/><path d="m40 152h16v16h-16zm0 0"/><path d="m56 168h16v16h-16zm0 0"/><path d="m40 184h16v16h-16zm0 0"/><path d="m24 168h16v16h-16zm0 0"/><path d="m56 24h16v16h-16zm0 0"/><path d="m72 40h16v16h-16zm0 0"/><path d="m56 56h16v16h-16zm0 0"/><path d="m40 40h16v16h-16zm0 0"/><path d="m64 288h16v16h-16zm0 0"/><path d="m80 304h16v16h-16zm0 0"/><path d="m64 320h16v16h-16zm0 0"/><path d="m48 304h16v16h-16zm0 0"/></svg>