<svg id="_x33_0" enable-background="new 0 0 64 64" height="512" viewBox="0 0 64 64" width="512" xmlns="http://www.w3.org/2000/svg"><path d="m32 58.973-.311-.102c-.127-.041-12.689-4.291-12.689-16.871v-6.245l1.152.178c6.425.994 11.094-3.594 11.141-3.64l.704-.704.708.703c.047.046 4.751 4.627 11.142 3.641l1.153-.178v6.245c0 12.58-12.562 16.83-12.689 16.871z" fill="#f0bc5e"/><path d="m30 52.335-4.707-4.707 1.414-1.414 3.293 3.293 8.293-8.293 1.414 1.414z"/><path d="m41 16.414-5-4.676-4 3.74-4-3.74-5 4.676v-14.414h18z" fill="#f0bc5e"/><path d="m63.618 47h-8.618v-2c0-1.103-.897-2-2-2h-4.03c.012-.314.03-.625.03-.948v-1.052h6c1.103 0 2-.897 2-2v-36c0-1.103-.897-2-2-2h-46c-1.103 0-2 .897-2 2v36c0 1.103.897 2 2 2h6v1.052c0 .323.017.634.03.948h-4.03c-1.103 0-2 .897-2 2v2h-8.618l2.5 5-2.5 5h13.618c1.103 0 2-.897 2-2v-2h2v-.045c4.787 7.663 13.635 9.985 13.757 10.015l.243.061.243-.062c.122-.03 8.971-2.351 13.757-10.015v.046h2v2c0 1.103.897 2 2 2h13.618l-2.5-5zm-48.618-8h-6v-36h46v36h-6v-8.219l-1.382.572c-8.215 3.393-14.599-3.71-14.866-4.013l-.754-.856-.75.857c-.065.075-6.624 7.417-14.865 4.012l-1.383-.572zm-1 16h-10.382l1.5-3-1.5-3h5.382v2c0 1.103.897 2 2 2h3zm-3-4v-6h4.185c.29 2.256.912 4.244 1.744 6zm36-8.948c0 14.082-12.958 18.33-14.996 18.911-1.939-.573-15.004-4.96-15.004-18.911v-8.358c7.178 2.15 12.993-2.408 15-4.28 2.006 1.872 7.82 6.427 15 4.28zm.071 8.948c.832-1.756 1.454-3.744 1.744-6h4.185v6zm13.311 4h-10.382v-2h3c1.103 0 2-.897 2-2v-2h5.382l-1.5 3z"/></svg>