<svg id="_x33_0" enable-background="new 0 0 63.043 62.466" height="512" viewBox="0 0 63.043 62.466" width="512" xmlns="http://www.w3.org/2000/svg"><g><g><path d="m36.592 26.466h-6.599c-2.935 0-5.592 1.524-7.073 4.016-5.787.313-10.398 5.12-10.398 10.984 0 .731.072 1.464.216 2.176l.86 4.303h.227c.599-1.454 2.027-2.479 3.697-2.479h2v-3.465c0-2.505 2.031-4.535 4.535-4.535.691 1.196 1.984 2 3.465 2h12c2.209 0 4 1.791 4 4v2h2c1.663 0 3.087 1.016 3.691 2.46h.246l.874-5.239c.126-.753.189-1.524.189-2.291-.001-7.681-6.25-13.93-13.93-13.93z" fill="#f0bc5e"/></g><g><path d="m30.521 44.466h-2c0 1.103-.897 2-2 2s-2-.897-2-2h-2c0 2.206 1.794 4 4 4s4-1.795 4-4z"/><path d="m36.521 46.466c-1.103 0-2-.897-2-2h-2c0 2.206 1.794 4 4 4s4-1.794 4-4h-2c0 1.103-.897 2-2 2z"/><path d="m35.521 53.343c-.459 1.838-2.104 3.123-3.999 3.123s-3.54-1.284-4-3.125l-.03-.12-1.939.49.03.117c.682 2.731 3.124 4.638 5.939 4.638s5.258-1.907 5.939-4.635l.03-.12-1.939-.49z"/><path d="m61.809 24.829-.516-1.804c-.512-1.791-.771-3.644-.771-5.506 0-2.562.482-5.066 1.434-7.444l1.088-2.72-1.594.113c-3.861.276-7.602 1.443-10.925 3.347 0-.026-.003-.052-.003-.079 0-2.707.51-5.352 1.515-7.864l1.064-2.662-1.731.267c-4.977.765-9.614 3.124-13.197 6.648l-6.652-7.125-6.651 7.126c-3.583-3.525-8.22-5.883-13.197-6.648l-1.731-.267 1.064 2.662c1.005 2.512 1.515 5.157 1.515 7.864 0 .026-.003.052-.003.079-3.323-1.905-7.064-3.072-10.925-3.348l-1.593-.114 1.088 2.72c.951 2.377 1.434 4.882 1.434 7.444 0 1.863-.26 3.715-.771 5.506l-.516 1.804c-.473 1.658-.713 3.372-.713 5.094 0 3.868 1.222 7.516 3.323 10.543h-.324c-1.654 0-3 1.346-3 3s1.346 3 3 3h4c.552 0 1 .449 1 1s-.448 1-1 1h-2c-1.654 0-3 1.346-3 3s1.346 3 3 3h4c.552 0 1 .449 1 1s-.448 1-1 1h-6c-1.654 0-3 1.346-3 3s1.346 3 3 3h13v-2h-13c-.552 0-1-.449-1-1s.448-1 1-1h6c1.654 0 3-1.346 3-3s-1.346-3-3-3h-4c-.552 0-1-.449-1-1s.448-1 1-1h2c1.654 0 3-1.346 3-3 0-.455-.11-.882-.292-1.269.873.475 1.789.881 2.746 1.214-.286.629-.454 1.321-.454 2.055 0 2.757 2.243 5 5 5h1.059c.499 4.493 4.316 8 8.941 8h8c4.625 0 8.442-3.507 8.941-8h1.059c2.757 0 5-2.243 5-5 0-.734-.168-1.426-.454-2.055.957-.333 1.873-.74 2.746-1.214-.182.387-.292.814-.292 1.269 0 1.654 1.346 3 3 3h2c.552 0 1 .449 1 1s-.448 1-1 1h-4c-1.654 0-3 1.346-3 3s1.346 3 3 3h6c.552 0 1 .449 1 1s-.448 1-1 1h-13v2h13c1.654 0 3-1.346 3-3s-1.346-3-3-3h-6c-.552 0-1-.449-1-1s.448-1 1-1h4c1.654 0 3-1.346 3-3s-1.346-3-3-3h-2c-.552 0-1-.449-1-1s.448-1 1-1h4c1.654 0 3-1.346 3-3s-1.346-3-3-3h-.323c2.101-3.027 3.323-6.675 3.323-10.543 0-1.721-.24-3.435-.712-5.093zm-11.885-22.032c-.931 2.549-1.402 5.216-1.402 7.939 0 .441.029.88.054 1.318-1.365.953-2.638 2.04-3.798 3.248-.736-1.504-1.689-2.909-2.857-4.16l-2.388-2.559c2.867-2.834 6.476-4.851 10.391-5.786zm-36.805 0c3.915.935 7.524 2.952 10.391 5.786l-2.388 2.559c-1.168 1.251-2.12 2.656-2.857 4.16-1.16-1.207-2.433-2.295-3.798-3.248.025-.438.054-.877.054-1.318 0-2.723-.471-5.39-1.402-7.939zm-5.598 41.669h-4c-.552 0-1-.449-1-1s.448-1 1-1h1.926c.668.725 1.393 1.397 2.171 2.01-.032-.001-.063-.01-.097-.01zm7 5c0-1.654 1.346-3 3-3h1v2.132l-1.445-.964-1.109 1.664 2.555 1.703v1.465h-1c-1.655 0-3.001-1.346-3.001-3zm28 4c0 3.86-3.141 7-7 7h-8c-3.859 0-7-3.14-7-7v-11.465c0-1.788 1.339-3.255 3.065-3.488.916 1.179 2.33 1.952 3.935 1.952h12c1.654 0 3 1.346 3 3zm3-1h-1v-1.465l2.555-1.703-1.109-1.664-1.445.964v-2.132h1c1.654 0 3 1.346 3 3s-1.346 3-3.001 3zm14-10c.552 0 1 .449 1 1s-.448 1-1 1h-4c-.033 0-.064.009-.097.01.778-.613 1.503-1.285 2.171-2.01zm-9.637 2.908-.217 1.299c-.899-1.331-2.422-2.207-4.145-2.207h-1v-5c0-3.86-3.141-7-7-7h-7v2h7c2.757 0 5 2.243 5 5v.026c-.838-.635-1.87-1.026-3-1.026h-12c-1.654 0-3-1.346-3-3v-1h-2v1c0 .409.063.8.156 1.181-2.386.615-4.156 2.779-4.156 5.354v2.465h-1c-1.741 0-3.274.897-4.169 2.251l-.275-1.378c-6.289-2.443-10.557-8.556-10.557-15.416 0-1.536.214-3.065.637-4.544l.516-1.804c.563-1.97.848-4.007.848-6.056 0-2.708-.49-5.359-1.457-7.883 5.52.785 10.653 3.549 14.365 7.727-.585 1.741-.907 3.575-.907 5.453 0 3.074.816 6.049 2.365 8.677.615-.287 1.26-.52 1.931-.69-1.498-2.4-2.296-5.143-2.296-7.987 0-3.841 1.443-7.502 4.063-10.309l8.937-9.575 8.937 9.575c2.62 2.807 4.063 6.468 4.063 10.309 0 1.867-.375 3.736-1.053 5.482.593.338 1.157.72 1.691 1.139.877-2.092 1.362-4.357 1.362-6.62 0-1.878-.322-3.712-.907-5.453 3.712-4.178 8.844-6.942 14.365-7.727-.967 2.524-1.457 5.175-1.457 7.883 0 2.048.285 4.086.848 6.056l.516 1.803c.423 1.48.637 3.009.637 4.545-.004 6.889-4.308 13.028-10.641 15.45z"/></g></g></svg>