<svg id="_x33_0" enable-background="new 0 0 64 64" height="512" viewBox="0 0 64 64" width="512" xmlns="http://www.w3.org/2000/svg"><g><g><path d="m39.994 32.619.006.017v2.925c0 8.668-5.712 16.197-14 18.439-8.288-2.242-14-9.771-14-18.439v-8.561c4.9-.457 9.656-1.67 14-4 3.758 2.016 7.823 3.195 12.024 3.773l.017.051c-.018-.274-.041-.546-.041-.824 0-1.447.269-2.829.739-4.113l-.108-.25c-4.322-.658-8.394-2.167-12.102-4.484l-.529-.332-.53.331c-5.074 3.172-10.92 4.848-16.904 4.848h-1.566v13.561c0 11.329 7.724 20.958 18.783 23.415l.217.048.217-.048c10.514-2.336 18.149-11.39 18.733-22.102-2.019-.939-3.736-2.415-4.956-4.255z" fill="#f0bc5e"/></g><g><g><path d="m8 11c-1.654 0-3-1.346-3-3s1.346-3 3-3 3 1.346 3 3-1.346 3-3 3z" fill="#f0bc5e"/></g></g><g><g><path d="m16 11c-1.654 0-3-1.346-3-3s1.346-3 3-3 3 1.346 3 3-1.346 3-3 3z" fill="#f0bc5e"/></g></g><g><g><path d="m24 11c-1.654 0-3-1.346-3-3s1.346-3 3-3 3 1.346 3 3-1.346 3-3 3z" fill="#f0bc5e"/></g></g><g><path d="m19.707 37.293-1.414 1.414 4.774 4.774 10.701-12.841-1.536-1.28-9.299 11.159z"/><path d="m63 26c0-6.831-5.299-12.436-12-12.949v-9.051c0-1.654-1.346-3-3-3h-44c-1.654 0-3 1.346-3 3v56c0 1.654 1.346 3 3 3h46c2.757 0 5-2.243 5-5v-15c0-1.103-.897-2-2-2v-2.363c5.724-1.36 10-6.503 10-12.637zm-2 0c0 6.065-4.935 11-11 11s-11-4.935-11-11 4.935-11 11-11 11 4.935 11 11zm-23.885 1.642c.243 1.912.902 3.693 1.885 5.254v2.664c0 8.084-5.332 15.201-13 17.401-7.668-2.2-13-9.316-13-17.401v-7.659c4.825-.545 9.192-1.813 13-3.773 3.308 1.704 7.044 2.879 11.115 3.514zm-33.115-24.642h44c.551 0 1 .449 1 1v9h-46v-9c0-.551.449-1 1-1zm-1 57v-45h40.103c-3.553 2.236-5.947 6.135-6.083 10.602-3.885-.646-7.431-1.812-10.547-3.484l-.473-.253-.473.253c-3.916 2.101-8.499 3.408-13.62 3.886l-.907.085v9.472c0 9.077 6.061 17.057 14.739 19.404l.261.071.261-.071c8.678-2.347 14.739-10.327 14.739-19.404v-.202c1.646 1.583 3.705 2.732 6 3.277v2.364c-1.103 0-2 .897-2 2v15c0 1.13.391 2.162 1.026 3h-42.026c-.551 0-1-.449-1-1zm50-17v2h-6v-2zm-3 18c-1.654 0-3-1.346-3-3v-11h6v11c0 1.654-1.346 3-3 3zm1-20h-2v-2.051c.331.026.662.051 1 .051s.669-.025 1-.051z"/><path d="m49 25h2v2h-2z"/><path d="m53 25h2v2h-2z"/><path d="m45 25h2v2h-2z"/></g></g></svg>