<svg id="Layer_35" enable-background="new 0 0 64 64" height="512" viewBox="0 0 64 64" width="512" xmlns="http://www.w3.org/2000/svg"><path d="m36.548 35.208-4.548-3.482-4.548 3.482-2.095-1.452 2.244-4.812-4.601-2.817v-2.156h6.243l1.398-4.971h2.719l1.398 4.971h6.242v2.156l-4.601 2.817 2.244 4.812z" fill="#f0bc5e"/><path d="m32 15c-9.374 0-17 7.626-17 17s7.626 17 17 17 17-7.626 17-17-7.626-17-17-17zm0 2c8.271 0 15 6.729 15 15 0 1.755-.319 3.433-.875 5h-28.25c-.556-1.567-.875-3.245-.875-5 0-8.271 6.729-15 15-15zm0 30c-5.743 0-10.737-3.248-13.256-8h26.513c-2.52 4.752-7.514 8-13.257 8z"/><path d="m20.99 54.596-4.808 4.808-3.913-6.259 4.438-4.438-1.414-1.414-4.438 4.438-6.259-3.913 4.808-4.808-1.414-1.414-6.586 6.586 8.87 5.544 5.544 8.87 6.586-6.586z"/><path d="m53.726 10.274-5.544-8.87-6.586 6.586 1.414 1.414 4.808-4.808 3.913 6.259-4.64 4.64 1.414 1.414 4.64-4.64 6.259 3.913-4.808 4.808 1.414 1.414 6.586-6.586z"/><path d="m59 32c0-2.649-1.505-5.036-3.795-6.218 1.393-2.168 1.503-4.988.178-7.282s-3.815-3.617-6.396-3.487c.122-2.574-1.192-5.071-3.487-6.396s-5.115-1.215-7.282.178c-1.182-2.29-3.569-3.795-6.218-3.795s-5.036 1.505-6.218 3.795c-2.168-1.393-4.988-1.501-7.282-.178-2.294 1.325-3.609 3.822-3.487 6.396-2.578-.129-5.071 1.193-6.396 3.487s-1.214 5.114.178 7.282c-2.29 1.182-3.795 3.569-3.795 6.218s1.505 5.036 3.795 6.218c-1.393 2.168-1.502 4.988-.178 7.282 1.325 2.295 3.827 3.592 6.396 3.487-.122 2.573 1.193 5.07 3.487 6.396 2.294 1.324 5.114 1.213 7.282-.178 1.182 2.29 3.569 3.795 6.218 3.795s5.036-1.505 6.218-3.795c2.168 1.391 4.987 1.503 7.282.178 2.294-1.325 3.609-3.822 3.487-6.396 2.564.106 5.07-1.192 6.396-3.487 1.324-2.294 1.214-5.114-.178-7.282 2.29-1.182 3.795-3.569 3.795-6.218zm-27 20c-11.046 0-20-8.954-20-20s8.954-20 20-20 20 8.954 20 20-8.954 20-20 20z" fill="#f0bc5e"/><path d="m32 53c-11.58 0-21-9.421-21-21 0-11.58 9.42-21 21-21s21 9.42 21 21c0 11.579-9.42 21-21 21zm0-40c-10.477 0-19 8.523-19 19s8.523 19 19 19 19-8.523 19-19-8.523-19-19-19z"/><path d="m39 43h-2v-2h2zm-4 0h-2v-2h2zm-4 0h-2v-2h2zm-4 0h-2v-2h2z"/></svg>